<?xml version="1.0" encoding="UTF-8"?>
<svg id="_Слой_2" data-name="Слой 2" xmlns="http://www.w3.org/2000/svg" viewBox="0 0 1862.89 9.15">
  <defs>
    <style>
      .cls-1 {
        fill: #272727;
      }
    </style>
  </defs>
  <g id="elements">
    <path class="cls-1" d="M1858.93,4.89c-2.58.2-6.37.48-11.19.77-4.82.31-10.67.63-17.38.97-6.71.32-14.28.67-22.54.97-8.26.32-17.21.58-26.67.83-4.73.11-9.59.21-14.56.33-4.97.08-10.04.16-15.2.24-2.58.03-5.18.06-7.8.08-1.31.02-748.25.03-749.57.04h-.99s-.5.02-.5.02h-.25c-.08,0-.17,0-.25-.04-.17-.09-.33-.31-.5-.68-.17-.32-.33-.79-.5-1.22l-.12-.33c-.04-.11-.08-.19-.12-.28l-.12-.28c-.04-.1-.08-.15-.12-.23-.04-.08-.08-.12-.12-.18-.04-.06-.08-.1-.12-.14-.08-.07-.17-.12-.25-.13-1.33-.29-2.66-.52-3.99-.6-1.34-.09-2.68-.02-4.02.12-1.34.15-2.69.33-4.04.52-.67.1-1.35.29-2.03.55-.67.26-1.35.59-2.03.92-.68.33-1.35.64-2.03.87-.68.22-1.36.36-2.04.4-1.36.06-2.72-.09-4.09-.42-1.36-.33-2.73-.85-4.1-1.31-1.37-.47-2.74-.83-4.11-1.03-1.37-.2-2.74-.34-4.12-.28-.68.03-1.37.1-2.06.18-.69.08-1.38.17-2.06.33-1.37.3-2.75.84-4.13,1.28-1.38.45-2.75.71-4.13.7-1.38.01-2.75-.25-4.13-.7-1.38-.45-2.75-.98-4.13-1.28-.69-.16-1.37-.25-2.06-.33-.69-.08-1.37-.16-2.06-.18-1.37-.07-2.75.07-4.12.28-1.37.2-2.74.56-4.11,1.03-1.37.46-2.74.98-4.1,1.31-1.36.33-2.72.48-4.09.42-.68-.04-1.36-.18-2.04-.4-.68-.23-1.36-.54-2.03-.87-.68-.33-1.36-.66-2.03-.92-.68-.26-1.35-.45-2.03-.55-1.35-.19-2.69-.37-4.04-.52-1.34-.14-2.68-.21-4.02-.12-1.34.08-2.67.31-3.99.6-.08.01-.17.06-.25.13-.04.04-.08.08-.12.14-.04.06-.08.1-.12.18-.04.08-.08.13-.12.23l-.12.28c-.04.09-.08.18-.12.28l-.12.33c-.17.43-.33.9-.5,1.22-.17.37-.33.59-.5.68-.08.05-.17.05-.25.05h-.25s-.5,0-.5,0h-.99c-1.32-.03-767.54-.04-768.85-.06-2.62-.03-5.22-.06-7.8-.08-5.16-.08-10.24-.17-15.2-.24-4.97-.11-9.83-.22-14.56-.33-9.46-.25-18.41-.51-26.67-.83-8.26-.3-15.83-.65-22.54-.97-6.71-.34-12.56-.67-17.38-.97-4.82-.3-8.6-.58-11.19-.77-1.29-.09-2.28-.17-2.94-.23-.67-.06-1.01-.08-1.01-.08,0,0,.35-.03,1.01-.08.67-.06,1.65-.13,2.94-.23,2.58-.19,6.37-.47,11.19-.77,4.82-.31,10.67-.63,17.38-.97,6.71-.32,14.28-.68,22.54-.97,8.26-.32,17.21-.58,26.67-.83,4.73-.1,9.59-.21,14.56-.32,4.97-.08,10.04-.16,15.2-.24,2.58-.03,5.18-.06,7.8-.09,1.31-.01,767.53-.03,768.85-.04h.99s.5-.01.5-.01h.25c.08,0,.17,0,.25.04.17.09.33.31.5.68.17.32.33.79.5,1.22l.12.33c.04.11.08.19.12.29l.12.28c.04.09.08.15.12.23.04.08.08.12.12.18s.08.1.12.14c.08.08.17.12.25.13,1.33.29,2.66.52,3.99.6,1.34.09,2.68.02,4.02-.12,1.34-.15,2.69-.33,4.04-.52.68-.1,1.35-.29,2.03-.55.67-.26,1.35-.59,2.03-.92.68-.33,1.35-.64,2.03-.87.68-.23,1.36-.36,2.04-.4,1.36-.06,2.72.09,4.09.42,1.36.33,2.73.85,4.1,1.31,1.37.46,2.74.83,4.11,1.03,1.37.2,2.74.35,4.12.28.69-.03,1.37-.1,2.06-.18.69-.08,1.37-.17,2.06-.33,1.37-.3,2.75-.84,4.13-1.28,1.38-.45,2.75-.71,4.13-.7,1.37,0,2.75.25,4.13.7,1.38.45,2.75.98,4.13,1.28.69.16,1.37.25,2.06.33.69.09,1.37.16,2.06.18,1.37.07,2.75-.07,4.12-.28,1.37-.2,2.74-.56,4.11-1.03,1.37-.46,2.74-.98,4.1-1.31,1.36-.33,2.73-.48,4.09-.42.68.04,1.36.17,2.04.4.68.22,1.36.54,2.03.87.68.33,1.36.66,2.03.92.68.26,1.35.45,2.03.55,1.35.19,2.69.37,4.04.52,1.34.14,2.68.21,4.02.12,1.34-.08,2.67-.31,3.99-.6.08-.02.17-.06.25-.13.04-.04.08-.08.12-.14s.08-.1.12-.18c.04-.08.08-.14.12-.23l.12-.28c.04-.1.08-.18.12-.29l.12-.33c.17-.42.33-.89.5-1.22.17-.37.33-.59.5-.68.08-.05.17-.05.25-.04h.25s.5,0,.5,0h.99c1.32.03,748.26.04,749.57.05,2.62.03,5.22.06,7.8.09,5.16.08,10.24.16,15.2.24,4.97.11,9.83.22,14.56.32,9.46.25,18.41.51,26.67.83,8.26.29,15.83.65,22.54.97,6.71.34,12.56.66,17.38.97,4.82.29,8.6.58,11.19.77,1.29.1,2.28.17,2.95.23.67.06,1.01.08,1.01.08,0,0-.34.03-1.01.08-.67.06-1.66.13-2.95.23Z"/>
  </g>
</svg>