<?xml version="1.0" encoding="UTF-8"?>
<svg id="_Слой_2" data-name="Слой 2" xmlns="http://www.w3.org/2000/svg" viewBox="0 0 200 200">
  <defs>
    <style>
      .cls-1 {
        fill: none;
      }
    </style>
  </defs>
  <g id="elements">
    <g>
      <path class="cls-1" d="M108.28,50.07c0-2.24-1.76-1.97-1.76-2.78,0-.52.59-.89.59-2.02,0-1.58-1.27-2.78-2.8-2.78-.51,0-1.03.14-1.51.43-.13-1.61-1.37-2.66-2.81-3.01-1.45.35-2.69,1.4-2.82,3.01-.48-.3-1-.43-1.51-.43-1.53,0-2.8,1.2-2.8,2.78,0,1.13.6,1.5.6,2.02,0,.81-1.76.54-1.76,2.78,0,3.93,5.38,3.82,8.28,8.37,2.9-4.55,8.28-4.45,8.28-8.37ZM101.31,49.46c0,.76-.57,1.39-1.31,1.47-.74-.09-1.32-.71-1.32-1.47s.58-1.39,1.32-1.47c.74.08,1.31.71,1.31,1.47Z"/>
      <path class="cls-1" d="M91.71,149.93c0,2.24,1.76,1.97,1.76,2.78,0,.52-.6.89-.6,2.02,0,1.58,1.27,2.78,2.8,2.78.51,0,1.03-.14,1.51-.43.13,1.61,1.37,2.66,2.82,3.01,1.44-.35,2.69-1.4,2.81-3.01.48.3,1,.43,1.51.43,1.53,0,2.8-1.2,2.8-2.78,0-1.13-.6-1.5-.6-2.02,0-.81,1.75-.54,1.75-2.78,0-3.93-5.38-3.82-8.28-8.37-2.91,4.55-8.28,4.45-8.28,8.37ZM98.69,150.54c0-.76.57-1.39,1.31-1.47.74.09,1.31.71,1.31,1.47s-.58,1.39-1.31,1.47c-.74-.09-1.31-.71-1.31-1.47Z"/>
      <path class="cls-1" d="M50.07,108.28c-2.24,0-1.97-1.75-2.78-1.75-.52,0-.89.59-2.02.59-1.58,0-2.78-1.27-2.78-2.8,0-.51.14-1.03.43-1.51-1.61-.13-2.66-1.37-3.01-2.82.35-1.45,1.4-2.69,3.01-2.82-.3-.48-.43-1-.43-1.51,0-1.53,1.2-2.8,2.78-2.8,1.13,0,1.5.6,2.02.6.81,0,.54-1.75,2.78-1.75,3.93,0,3.82,5.38,8.37,8.28-4.55,2.9-4.45,8.28-8.37,8.28ZM49.46,101.31c.76,0,1.39-.57,1.47-1.31-.09-.74-.71-1.32-1.47-1.32s-1.39.58-1.47,1.32c.08.74.71,1.31,1.47,1.31Z"/>
      <path class="cls-1" d="M149.93,91.72c2.24,0,1.97,1.76,2.78,1.76.52,0,.89-.6,2.02-.6,1.58,0,2.78,1.27,2.78,2.8,0,.51-.14,1.03-.43,1.51,1.61.13,2.66,1.37,3.01,2.82-.35,1.44-1.4,2.69-3.01,2.82.3.48.43,1,.43,1.51,0,1.53-1.2,2.8-2.78,2.8-1.13,0-1.5-.6-2.02-.6-.81,0-.54,1.76-2.78,1.76-3.93,0-3.82-5.38-8.37-8.28,4.55-2.91,4.45-8.28,8.37-8.28ZM150.54,98.69c-.76,0-1.39.57-1.47,1.31.09.74.71,1.31,1.47,1.31s1.39-.58,1.47-1.31c-.09-.74-.71-1.31-1.47-1.31Z"/>
      <path d="M42.68,149.79c0-2.56,1.87-4.21,3.77-4.21,1.79,0,3.07,1.95,3.07,3.4,0,1.55-1.16,3.02-2.57,3.02-.37,0-.78-.1-1.11-.29.06.63.53,1.06,1.13,1.32.27.6.7,1.08,1.33,1.13-.19-.34-.29-.75-.29-1.11,0-1.42,1.47-2.57,3.01-2.57,1.45,0,3.4,1.27,3.4,3.06,0,1.91-1.65,3.78-4.21,3.78-2.15,0-3.65-1.17-4.65-2.87-1.71-1-2.87-2.5-2.87-4.65ZM51.97,147.67c0-.98.74-.92,1.45-1.09-.17.71-.11,1.45-1.09,1.45-.11,0-.22-.01-.32-.04-.02-.1-.04-.21-.04-.32ZM54.69,144.6c0-.96-.37-1.93-1.33-1.93-.82,0-1.35.89-2.24.89-.52,0-1.01-.34-1.01-.82,0-.7.86-1.5.86-2.3s-.71-1.52-1.97-1.52c-2.8,0-.83,2.79-3,2.79-2,0,.38-3.33-2.93-3.33-1.57,0-2.31,1.3-2.31,1.87,0,.7.94,1.18.94,1.93,0,.5-.59,1.29-1.3,1.29-.9,0-1.66-.84-2.55-.84s-2.67,1.19-2.67,2.99c0,1.52,1.05,2,2.55,2,.25,0,.6-.02.6-.02.57,0,.84.47.84,1.01,0,2.78-4.21.33-4.21,4.14,0,1.73,1.25,3.4,3.05,3.4,1.61,0,1.78-1.78,3.1-1.78.58,0,1.15.51,1.15,1.08,0,.48-.5.82-.5,1.85,0,.28.05.54.14.77.23.09.49.14.77.14,1.04,0,1.38-.5,1.86-.5.57,0,1.08.57,1.08,1.15,0,1.32-1.78,1.48-1.78,3.1,0,1.8,1.67,3.05,3.4,3.05,3.81,0,1.37-4.21,4.14-4.21.54,0,1.01.26,1.01.84,0,.01-.02.35-.02.6,0,1.51.49,2.55,2.01,2.55,1.8,0,2.99-1.81,2.99-2.67s-.84-1.65-.84-2.55c0-.71.79-1.3,1.29-1.3.75,0,1.23.94,1.93.94.56,0,1.87-.73,1.87-2.31,0-3.3-3.33-.92-3.33-2.93,0-2.17,2.78-.2,2.78-3,0-1.26-.75-1.97-1.52-1.97s-1.59.86-2.3.86c-.48,0-.82-.5-.82-1.01,0-.89.89-1.42.89-2.24,0-.96-.97-1.33-1.92-1.33-.31,0-.57.03-.79.08.05-.22.07-.48.07-.79Z"/>
      <path d="M157.31,50.21c0,2.56-1.87,4.21-3.78,4.21-1.79,0-3.06-1.94-3.06-3.4,0-1.54,1.15-3.01,2.57-3.01.37,0,.78.1,1.11.29-.05-.63-.53-1.06-1.13-1.33-.27-.6-.7-1.07-1.33-1.13.19.34.29.75.29,1.11,0,1.42-1.47,2.57-3.02,2.57-1.45,0-3.4-1.27-3.4-3.07,0-1.91,1.65-3.77,4.21-3.77,2.15,0,3.65,1.17,4.65,2.87,1.71,1,2.87,2.5,2.87,4.65ZM148.02,52.33c0,.98-.74.92-1.45,1.09.17-.71.11-1.45,1.09-1.45.11,0,.22.01.32.04.02.1.04.21.04.32ZM145.31,55.4c0,.95.37,1.92,1.33,1.92.82,0,1.35-.89,2.24-.89.52,0,1.01.34,1.01.82,0,.7-.87,1.5-.87,2.3s.71,1.52,1.97,1.52c2.8,0,.83-2.78,3-2.78,2,0-.37,3.33,2.93,3.33,1.57,0,2.31-1.3,2.31-1.87,0-.7-.94-1.18-.94-1.93,0-.5.59-1.29,1.3-1.29.9,0,1.65.84,2.55.84s2.67-1.19,2.67-2.99c0-1.52-1.05-2-2.55-2-.25,0-.59.02-.6.02-.58,0-.84-.47-.84-1.01,0-2.77,4.21-.33,4.21-4.14,0-1.73-1.26-3.4-3.05-3.4-1.61,0-1.78,1.78-3.1,1.78-.58,0-1.15-.51-1.15-1.08,0-.48.5-.82.5-1.86,0-.28-.05-.54-.14-.77-.24-.09-.49-.14-.77-.14-1.04,0-1.38.5-1.85.5-.57,0-1.08-.57-1.08-1.15,0-1.32,1.78-1.48,1.78-3.1,0-1.8-1.67-3.05-3.4-3.05-3.81,0-1.37,4.21-4.14,4.21-.54,0-1.01-.26-1.01-.85,0,0,.02-.34.02-.59,0-1.51-.48-2.55-2-2.55-1.8,0-2.99,1.8-2.99,2.67s.84,1.65.84,2.55c0,.7-.79,1.3-1.29,1.3-.75,0-1.23-.94-1.93-.94-.56,0-1.87.74-1.87,2.31,0,3.3,3.33.92,3.33,2.93,0,2.17-2.79.2-2.79,3,0,1.26.75,1.97,1.52,1.97s1.59-.86,2.3-.86c.48,0,.82.49.82,1.01,0,.89-.89,1.42-.89,2.24,0,.96.97,1.33,1.93,1.33.31,0,.57-.03.79-.07-.05.22-.08.48-.08.79Z"/>
      <path d="M67.29,132.71c.3.94,2.57-.07,2.57,2.72,0,1.39-1.14,1.89-1.78,1.89-.7,0-.63-1.12-1.61-1.12-.25,0-.5.1-.71.26-.31.24-.62.58-.62.96,0,.42.75,1.2.75,2.3s-1.03,2.21-2.4,2.21c-.89,0-1.31-.61-1.31-1.33,0-.33.1-.66.1-.99,0-.58-.36-.95-.78-1.12-.17-.42-.54-.78-1.12-.78-.33,0-.66.1-1,.1-.72,0-1.32-.42-1.32-1.31,0-1.36,1.09-2.4,2.21-2.4s1.88.76,2.31.76c.37,0,.71-.31.95-.62.16-.21.26-.45.26-.7,0-.98-1.12-.91-1.12-1.61,0-.63.5-1.78,1.89-1.78,2.78,0,1.78,2.27,2.71,2.57Z"/>
      <path d="M132.71,67.29c-.3-.94-2.57.07-2.57-2.71,0-1.4,1.15-1.89,1.78-1.89.7,0,.64,1.12,1.61,1.12.25,0,.5-.1.7-.26.31-.24.62-.58.62-.95,0-.42-.76-1.21-.76-2.31s1.03-2.21,2.4-2.21c.89,0,1.31.61,1.31,1.33,0,.33-.1.66-.1.99,0,.58.36.95.78,1.12.17.42.54.78,1.12.78.33,0,.66-.1.99-.1.72,0,1.33.42,1.33,1.31,0,1.36-1.09,2.4-2.21,2.4s-1.88-.75-2.3-.75c-.37,0-.71.3-.96.62-.16.21-.26.46-.26.71,0,.98,1.12.91,1.12,1.61,0,.64-.49,1.78-1.89,1.78-2.78,0-1.78-2.27-2.72-2.57Z"/>
      <path d="M69.97,130.03s0,.09,0,.14c0,1.11-.78,1.24-1.5,1.36.12-.72.25-1.5,1.36-1.5.05,0,.09,0,.14,0Z"/>
      <path d="M130.03,69.96s0-.09,0-.14c0-1.11.78-1.24,1.5-1.36-.12.72-.25,1.5-1.36,1.5-.05,0-.09,0-.14,0Z"/>
      <path d="M76.42,123.58c.2.31.35.72.35,1.29,0,1.05-.75,1.75-1.57,1.75-.44,0-.91-.2-1.18-.65-.44-.26-.65-.74-.65-1.18,0-.82.71-1.57,1.75-1.57.58,0,.98.15,1.29.35Z"/>
      <path d="M123.58,76.42c-.2-.31-.35-.72-.35-1.29,0-1.05.75-1.75,1.57-1.75.44,0,.91.2,1.18.65.45.26.65.74.65,1.18,0,.82-.7,1.57-1.75,1.57-.58,0-.98-.15-1.29-.35Z"/>
      <path d="M79.37,120.63c-.11.86-.73,1.37-1.28,1.37-.03,0-.06,0-.09,0,0-.03,0-.06,0-.09,0-.55.51-1.16,1.37-1.28Z"/>
      <path d="M120.63,79.37c.11-.86.73-1.37,1.28-1.37.03,0,.06,0,.09,0,0,.03,0,.06,0,.09,0,.55-.51,1.17-1.37,1.28Z"/>
      <path d="M118.77,50.93c.04.63.06,1.28.06,1.93,0,.43-.01.85-.03,1.27l-5.23.67s-.09,0-.14,0c-.07,0-.14,0-.21,0,.02-.44.03-.88.03-1.31,0-.47-.01-.94-.03-1.4l5.55-1.15Z"/>
      <path d="M81.22,149.07c-.04-.63-.06-1.28-.06-1.93,0-.43,0-.85.03-1.27l5.23-.67s.09,0,.14,0c.07,0,.14,0,.21,0-.02.43-.03.87-.03,1.31,0,.47.01.94.03,1.4l-5.55,1.15Z"/>
      <path d="M50.93,118.77c.63.04,1.28.06,1.93.06.43,0,.85-.01,1.27-.03l.67-5.23s0-.09,0-.14c0-.07,0-.14,0-.21-.44.02-.88.03-1.31.03-.47,0-.94-.01-1.4-.03l-1.15,5.55Z"/>
      <path d="M149.07,81.22c-.63-.04-1.28-.06-1.93-.06-.43,0-.85,0-1.27.03l-.67,5.23s0,.09,0,.14c0,.07,0,.14,0,.21.43-.02.87-.03,1.31-.03.47,0,.94.01,1.4.03l1.15-5.55Z"/>
      <path d="M104.72,37.06l1.03-7.4c1.17.51,2.31,1.17,3.4,1.97l-3.18,6.09c-.41-.24-.82-.46-1.25-.65Z"/>
      <path d="M95.28,162.93l-1.03,7.4c-1.17-.51-2.31-1.17-3.4-1.97l3.18-6.09c.4.24.82.46,1.25.65Z"/>
      <path d="M37.06,104.72l-7.41,1.03c.51,1.17,1.17,2.31,1.97,3.4l6.09-3.18c-.24-.41-.46-.82-.65-1.25Z"/>
      <path d="M162.93,95.28l7.41-1.03c-.51-1.17-1.17-2.31-1.97-3.4l-6.09,3.18c.24.4.46.82.65,1.25Z"/>
      <path d="M112.61,47.46l5.22-2.48c.31,1.16.55,2.38.72,3.63l-5.48,1.56c-.11-.93-.26-1.83-.46-2.71Z"/>
      <path d="M87.39,152.54l-5.22,2.49c-.31-1.17-.55-2.38-.72-3.63l5.48-1.56c.1.93.26,1.83.46,2.71Z"/>
      <path d="M47.46,112.61l-2.48,5.22c1.16.31,2.38.55,3.63.72l1.56-5.48c-.93-.11-1.83-.26-2.71-.46Z"/>
      <path d="M152.54,87.39l2.49-5.22c-1.17-.31-2.38-.55-3.63-.72l-1.56,5.48c.93.1,1.83.26,2.71.46Z"/>
      <path d="M111.08,43.24l4.59-3.82c.42.81.81,1.65,1.15,2.53l-4.71,3.77c-.29-.87-.63-1.7-1.04-2.48Z"/>
      <path d="M88.92,156.76l-4.59,3.83c-.42-.81-.81-1.66-1.15-2.53l4.71-3.77c.29.86.63,1.7,1.04,2.48Z"/>
      <path d="M43.23,111.08l-3.82,4.59c.81.42,1.65.81,2.53,1.15l3.77-4.71c-.87-.29-1.7-.63-2.48-1.04Z"/>
      <path d="M156.76,88.92l3.83-4.59c-.81-.42-1.66-.81-2.53-1.15l-3.77,4.71c.87.29,1.7.63,2.48,1.04Z"/>
      <path d="M107.23,38.58l3.98-5.21c1.01.97,1.95,2.08,2.81,3.31l-4.12,4.65c-.75-1.03-1.64-1.95-2.67-2.75Z"/>
      <path d="M92.76,161.42l-3.98,5.21c-1.01-.97-1.95-2.08-2.81-3.31l4.12-4.65c.75,1.03,1.64,1.95,2.67,2.75Z"/>
      <path d="M38.58,107.23l-5.21,3.98c.97,1.01,2.08,1.95,3.31,2.81l4.65-4.12c-1.03-.75-1.95-1.64-2.75-2.67Z"/>
      <path d="M161.42,92.76l5.21-3.98c-.97-1.01-2.08-1.95-3.31-2.81l-4.65,4.12c1.03.75,1.95,1.64,2.75,2.67Z"/>
      <path d="M100,50.93c-.74-.09-1.32-.71-1.32-1.47s.58-1.39,1.32-1.47c.74.08,1.31.71,1.31,1.47s-.57,1.39-1.31,1.47Z"/>
      <path d="M100,149.07c.74.09,1.31.71,1.31,1.47s-.58,1.39-1.31,1.47c-.74-.09-1.31-.71-1.31-1.47s.57-1.39,1.31-1.47Z"/>
      <path d="M50.93,100c-.09-.74-.71-1.32-1.47-1.32s-1.39.58-1.47,1.32c.08.74.71,1.31,1.47,1.31s1.39-.57,1.47-1.31Z"/>
      <path d="M149.07,100c.09.74.71,1.31,1.47,1.31s1.39-.58,1.47-1.31c-.09-.74-.71-1.31-1.47-1.31s-1.39.57-1.47,1.31Z"/>
      <path d="M110.55,55.32c.27-1.17.4-2.37.4-3.56,0-6.74-4.07-13.25-10.94-14.12-6.88.87-10.95,7.37-10.95,14.12,0,1.19.13,2.38.4,3.56,4.67.8,8.9,3.89,10.55,8.24,1.64-4.35,5.88-7.44,10.55-8.24ZM108.28,50.07c0,3.93-5.38,3.82-8.28,8.37-2.91-4.55-8.28-4.45-8.28-8.37,0-2.24,1.76-1.97,1.76-2.78,0-.52-.6-.89-.6-2.02,0-1.58,1.27-2.78,2.8-2.78.51,0,1.03.14,1.51.43.13-1.61,1.37-2.66,2.82-3.01,1.44.35,2.69,1.4,2.81,3.01.48-.3,1-.43,1.51-.43,1.53,0,2.8,1.2,2.8,2.78,0,1.13-.59,1.5-.59,2.02,0,.81,1.76.54,1.76,2.78Z"/>
      <path d="M89.45,144.68c-.27,1.17-.4,2.37-.4,3.56,0,6.74,4.06,13.25,10.95,14.12,6.88-.87,10.95-7.37,10.95-14.12,0-1.19-.13-2.38-.4-3.56-4.67-.8-8.9-3.89-10.55-8.24-1.64,4.35-5.88,7.44-10.55,8.24ZM91.71,149.93c0-3.93,5.38-3.82,8.28-8.37,2.91,4.55,8.28,4.45,8.28,8.37,0,2.24-1.75,1.97-1.75,2.78,0,.52.6.89.6,2.02,0,1.58-1.27,2.78-2.8,2.78-.51,0-1.03-.14-1.51-.43-.13,1.61-1.37,2.66-2.81,3.01-1.44-.35-2.69-1.4-2.82-3.01-.48.3-1,.43-1.51.43-1.53,0-2.8-1.2-2.8-2.78,0-1.13.6-1.5.6-2.02,0-.81-1.76-.54-1.76-2.78Z"/>
      <path d="M55.32,110.55c-1.17.27-2.37.4-3.56.4-6.74,0-13.25-4.06-14.12-10.94.87-6.88,7.37-10.95,14.12-10.95,1.19,0,2.38.13,3.56.4.8,4.67,3.89,8.9,8.24,10.55-4.35,1.64-7.44,5.88-8.24,10.55ZM50.07,108.28c3.93,0,3.82-5.38,8.37-8.28-4.55-2.91-4.45-8.28-8.37-8.28-2.24,0-1.97,1.75-2.78,1.75-.52,0-.89-.6-2.02-.6-1.58,0-2.78,1.27-2.78,2.8,0,.51.14,1.03.43,1.51-1.61.13-2.66,1.37-3.01,2.82.35,1.44,1.4,2.69,3.01,2.82-.3.48-.43,1-.43,1.51,0,1.53,1.2,2.8,2.78,2.8,1.13,0,1.5-.59,2.02-.59.81,0,.54,1.75,2.78,1.75Z"/>
      <path d="M144.68,89.45c1.17-.27,2.37-.4,3.56-.4,6.74,0,13.25,4.06,14.11,10.95-.87,6.88-7.37,10.95-14.11,10.95-1.19,0-2.38-.13-3.56-.4-.8-4.67-3.89-8.9-8.24-10.55,4.35-1.64,7.44-5.88,8.24-10.55ZM149.93,91.72c-3.93,0-3.82,5.38-8.37,8.28,4.55,2.91,4.45,8.28,8.37,8.28,2.24,0,1.97-1.76,2.78-1.76.52,0,.89.6,2.02.6,1.58,0,2.78-1.27,2.78-2.8,0-.51-.14-1.03-.43-1.51,1.61-.13,2.66-1.37,3.01-2.82-.35-1.44-1.4-2.69-3.01-2.82.3-.48.43-1,.43-1.51,0-1.53-1.2-2.8-2.78-2.8-1.13,0-1.5.6-2.02.6-.81,0-.54-1.76-2.78-1.76Z"/>
      <path d="M100,36.08h-.22c-.62,0-1.25.06-1.86.17l-.37-7.59c.78-.14,1.56-.21,2.34-.21.04,0,.08,0,.12,0,.04,0,.07,0,.11,0,.78,0,1.56.07,2.34.21l-.37,7.59c-.61-.11-1.23-.17-1.86-.17h-.22Z"/>
      <path d="M100,163.92c.07,0,.15,0,.22,0,.62,0,1.25-.06,1.86-.17l.37,7.59c-.78.14-1.56.21-2.34.21-.04,0-.07,0-.11,0s-.07,0-.11,0c-.78,0-1.56-.07-2.34-.21l.37-7.59c.61.11,1.23.17,1.86.17.07,0,.15,0,.22,0Z"/>
      <path d="M36.08,100v-.22c0-.62.06-1.25.17-1.86l-7.59-.37c-.14.78-.21,1.56-.21,2.34,0,.04,0,.08,0,.12,0,.04,0,.07,0,.11,0,.78.07,1.56.21,2.34l7.59-.37c-.11-.61-.17-1.23-.17-1.86v-.22Z"/>
      <path d="M163.92,100c0,.07,0,.15,0,.22,0,.63-.06,1.25-.17,1.86l7.59.37c.14-.78.21-1.56.21-2.34,0-.04,0-.07,0-.11,0-.04,0-.07,0-.11,0-.78-.07-1.56-.21-2.34l-7.59.37c.11.61.17,1.23.17,1.86,0,.07,0,.15,0,.22Z"/>
      <path d="M94.25,29.66l1.03,7.4c-.43.19-.85.41-1.25.65l-3.18-6.09c1.09-.8,2.23-1.46,3.4-1.97Z"/>
      <path d="M105.75,170.34l-1.03-7.4c.43-.19.85-.41,1.26-.65l3.18,6.09c-1.09.8-2.23,1.46-3.4,1.97Z"/>
      <path d="M29.66,94.25l7.41,1.03c.19-.43.41-.85.65-1.25l-6.09-3.18c-.8,1.09-1.46,2.23-1.97,3.4Z"/>
      <path d="M170.34,105.75l-7.41-1.03c-.19.43-.41.85-.65,1.26l6.09,3.18c.8-1.09,1.46-2.23,1.97-3.4Z"/>
      <path d="M88.78,33.37l3.98,5.21c-1.04.79-1.92,1.72-2.67,2.75l-4.12-4.65c.85-1.23,1.8-2.33,2.81-3.31Z"/>
      <path d="M111.21,166.63l-3.98-5.21c1.03-.79,1.92-1.72,2.67-2.75l4.12,4.65c-.86,1.23-1.8,2.33-2.81,3.31Z"/>
      <path d="M33.37,88.79l5.21,3.98c.79-1.04,1.72-1.92,2.75-2.67l-4.65-4.12c-1.23.85-2.33,1.8-3.31,2.81Z"/>
      <path d="M166.63,111.21l-5.21-3.98c-.79,1.03-1.72,1.92-2.75,2.67l4.65,4.12c1.23-.86,2.33-1.8,3.31-2.81Z"/>
      <path d="M83.17,41.94c.35-.88.73-1.73,1.15-2.53l4.59,3.82c-.41.79-.75,1.62-1.04,2.48l-4.71-3.77Z"/>
      <path d="M116.83,158.06c-.35.88-.73,1.73-1.15,2.53l-4.6-3.83c.41-.78.75-1.61,1.04-2.48l4.71,3.77Z"/>
      <path d="M41.94,83.17c-.88.35-1.73.73-2.53,1.15l3.82,4.59c.79-.41,1.62-.75,2.48-1.04l-3.77-4.71Z"/>
      <path d="M158.06,116.83c.88-.35,1.73-.73,2.53-1.15l-3.83-4.6c-.78.41-1.61.75-2.48,1.04l3.77,4.71Z"/>
      <path d="M81.45,48.61c.17-1.25.41-2.47.72-3.63l5.22,2.48c-.2.87-.36,1.78-.46,2.71l-5.48-1.56Z"/>
      <path d="M118.55,151.39c-.17,1.25-.41,2.47-.72,3.63l-5.22-2.49c.2-.87.36-1.78.46-2.71l5.48,1.56Z"/>
      <path d="M48.61,81.45c-1.25.17-2.47.41-3.63.72l2.48,5.22c.87-.2,1.78-.36,2.71-.46l-1.56-5.48Z"/>
      <path d="M151.39,118.55c1.25-.17,2.47-.41,3.63-.72l-2.49-5.22c-.87.2-1.78.36-2.71.46l1.56,5.48Z"/>
      <path d="M86.56,54.81s-.09,0-.14,0l-5.23-.67c-.02-.42-.03-.84-.03-1.27,0-.65.02-1.3.06-1.93l5.55,1.15c-.02.46-.03.93-.03,1.4,0,.44.01.88.03,1.31-.07,0-.14,0-.21,0Z"/>
      <path d="M113.43,145.19s.09,0,.14,0l5.23.67c.02.42.03.84.03,1.27,0,.65-.02,1.3-.06,1.93l-5.55-1.15c.02-.46.03-.93.03-1.4,0-.44-.01-.88-.03-1.31.07,0,.14,0,.21,0Z"/>
      <path d="M54.81,86.56s0-.09,0-.14l-.67-5.23c-.42-.02-.84-.03-1.27-.03-.65,0-1.3.02-1.93.06l1.15,5.55c.46-.02.93-.03,1.4-.03.44,0,.88.01,1.31.03,0-.07,0-.14,0-.21Z"/>
      <path d="M145.19,113.43s0,.09,0,.14l.67,5.23c.42.02.84.03,1.27.03.65,0,1.3-.02,1.93-.06l-1.15-5.55c-.46.02-.93.03-1.4.03-.44,0-.88-.01-1.31-.03,0,.07,0,.14,0,.21Z"/>
      <path d="M77.18,54.18c-.13,0-.27-.02-.4-.04-.4-.08-.67-.36-.69-.74,0-.03,0-.06,0-.09,0-.07,0-.14,0-.21,1.07-14.9,8.68-27.44,23.91-28.48,15.23,1.05,22.84,13.58,23.9,28.48,0,.07,0,.14,0,.21,0,.03,0,.06,0,.09-.02.38-.28.66-.69.74-.13.02-.27.04-.4.04-.6,0-1.02-.36-1.07-1.16-.66-12.06-8.59-25.5-21.75-25.83-13.17.33-21.1,13.76-21.76,25.83-.05.8-.47,1.16-1.07,1.16Z"/>
      <path d="M122.82,145.81c.13,0,.27.02.4.05.4.08.67.36.69.74v.08c0,.07,0,.14,0,.21-1.07,14.9-8.68,27.44-23.9,28.48-15.23-1.05-22.84-13.58-23.9-28.48,0-.07,0-.14,0-.21,0-.03,0-.06,0-.08.02-.38.28-.66.69-.74.13-.03.27-.05.4-.05.6,0,1.02.36,1.07,1.16.65,12.06,8.59,25.5,21.75,25.83,13.16-.32,21.1-13.76,21.75-25.83.05-.8.47-1.16,1.07-1.16Z"/>
      <path d="M54.18,77.18c0-.13-.02-.27-.04-.4-.08-.4-.36-.67-.74-.69-.03,0-.06,0-.09,0-.07,0-.14,0-.21,0-14.9,1.07-27.44,8.68-28.48,23.91,1.05,15.23,13.58,22.84,28.48,23.9.07,0,.14,0,.21,0,.03,0,.06,0,.09,0,.38-.02.66-.28.74-.69.02-.13.04-.27.04-.4,0-.6-.36-1.02-1.16-1.07-12.06-.66-25.5-8.59-25.83-21.75.33-13.17,13.76-21.1,25.83-21.76.8-.05,1.16-.47,1.16-1.07Z"/>
      <path d="M145.81,122.82c0,.13.02.27.05.4.08.4.36.67.74.69.03,0,.05,0,.08,0,.07,0,.14,0,.21,0,14.9-1.07,27.44-8.68,28.48-23.9-1.05-15.23-13.58-22.84-28.48-23.9-.07,0-.14,0-.21,0-.03,0-.06,0-.08,0-.38.02-.66.28-.74.69-.03.13-.05.27-.05.4,0,.6.36,1.02,1.16,1.07,12.06.65,25.5,8.59,25.83,21.75-.32,13.16-13.76,21.1-25.83,21.75-.8.05-1.16.47-1.16,1.07Z"/>
      <path d="M121.99,121.99s-.06,0-.09,0c-.55,0-1.17-.51-1.28-1.37.86.11,1.37.73,1.37,1.28,0,.03,0,.06,0,.09Z"/>
      <path d="M78,78s.06,0,.09,0c.55,0,1.17.51,1.28,1.37-.86-.11-1.37-.73-1.37-1.28,0-.03,0-.06,0-.09Z"/>
      <path d="M125.97,125.97c-.26.44-.74.65-1.18.65-.82,0-1.57-.7-1.57-1.75,0-.58.15-.98.35-1.29.31-.2.72-.35,1.3-.35,1.05,0,1.75.75,1.75,1.57,0,.44-.2.91-.65,1.18Z"/>
      <path d="M74.03,74.03c.26-.45.74-.65,1.18-.65.82,0,1.57.7,1.57,1.75,0,.58-.15.98-.35,1.29-.31.2-.72.35-1.29.35-1.05,0-1.75-.75-1.75-1.57,0-.44.2-.91.65-1.18Z"/>
      <path d="M109.8,90.78c0,.08-.89,1.12-.89,1.66,0,.66,1.02,1.71,2.43,1.71,1.55,0,2.5-1.15,2.77-1.98-.21.11-.47.17-.79.17-1.37,0-2.6-.97-2.6-2.49,0-.22.03-.44.08-.66-.22.06-.43.08-.66.08-1.52,0-2.49-1.22-2.49-2.6,0-.32.06-.58.17-.79-.83.26-1.98,1.22-1.98,2.77,0,1.41,1.05,2.43,1.71,2.43.55,0,1.58-.89,1.67-.89.09,0,.26.06.39.19.13.13.19.3.19.39ZM90.2,109.22c0-.08.89-1.11.89-1.66,0-.66-1.02-1.71-2.43-1.71-1.55,0-2.5,1.15-2.77,1.98.22-.11.47-.17.79-.17,1.38,0,2.6.97,2.6,2.49,0,.22-.03.44-.08.66.22-.05.44-.08.66-.08,1.52,0,2.49,1.22,2.49,2.6,0,.33-.06.58-.17.79.83-.26,1.98-1.22,1.98-2.77,0-1.41-1.05-2.43-1.71-2.43-.55,0-1.58.89-1.66.89-.09,0-.26-.06-.39-.19-.13-.13-.19-.3-.19-.39ZM113.88,86.81c2.18,0,3.43,2.07,3.43,4.15,0,1.54-.48,2.8-1.32,3.82-3.55,2.75-8.47,3.7-14.71,3.93.23-6.24,1.18-11.15,3.93-14.7,1.02-.84,2.28-1.33,3.82-1.33,2.08,0,4.15,1.25,4.15,3.43,0,.28-.04.55-.11.81.26-.07.53-.11.8-.11ZM86.12,113.18c-2.18,0-3.43-2.07-3.43-4.15,0-1.54.49-2.8,1.33-3.82,3.55-2.75,8.46-3.7,14.7-3.93-.23,6.24-1.18,11.16-3.93,14.71-1.02.84-2.28,1.32-3.82,1.32-2.08,0-4.15-1.25-4.15-3.43,0-.28.04-.55.11-.8-.26.07-.53.11-.81.11ZM84.01,94.79c-.84-1.02-1.33-2.28-1.33-3.82,0-2.08,1.25-4.15,3.43-4.15.28,0,.55.04.81.11-.07-.26-.11-.53-.11-.81,0-2.18,2.07-3.43,4.15-3.43,1.54,0,2.8.49,3.82,1.33,2.74,3.55,3.7,8.47,3.93,14.71-6.24-.23-11.16-1.18-14.71-3.93ZM115.99,105.21c.84,1.02,1.32,2.28,1.32,3.82,0,2.08-1.25,4.15-3.43,4.15-.28,0-.55-.04-.81-.11.07.26.11.53.11.81,0,2.18-2.07,3.43-4.15,3.43-1.54,0-2.8-.48-3.82-1.32-2.75-3.55-3.7-8.47-3.93-14.71,6.24.23,11.16,1.18,14.71,3.93ZM89.28,89.86c0,1.52-1.22,2.49-2.6,2.49-.32,0-.58-.06-.79-.17.26.83,1.22,1.98,2.77,1.98,1.41,0,2.43-1.05,2.43-1.71,0-.55-.89-1.58-.89-1.67,0-.09.06-.26.19-.39.13-.13.3-.19.39-.19.08,0,1.12.89,1.67.89.66,0,1.71-1.02,1.71-2.43,0-1.55-1.15-2.5-1.98-2.77.11.21.17.47.17.79,0,1.38-.97,2.6-2.49,2.6-.22,0-.44-.03-.66-.08.06.21.08.44.08.66ZM110.71,110.14c0-1.52,1.22-2.49,2.6-2.49.33,0,.58.06.79.17-.26-.84-1.22-1.98-2.77-1.98-1.41,0-2.43,1.05-2.43,1.71,0,.55.89,1.58.89,1.67,0,.09-.06.26-.19.39-.13.13-.3.19-.39.19-.08,0-1.12-.89-1.67-.89-.66,0-1.71,1.02-1.71,2.43,0,1.55,1.14,2.5,1.98,2.77-.11-.22-.17-.47-.17-.79,0-1.37.97-2.6,2.49-2.6.22,0,.44.03.66.08-.05-.22-.08-.44-.08-.66ZM84.74,84.85c0,.55-.36.72-.56.72-1.17,0-1.35-1.82-2.72-1.82-.34,0-1.82.74-1.82,1.45,0,.83,1.59,1.58,1.59,2.63,0,.4-.25.93-.43.93-.21,0-.44,0-.67,0-1.5,0-2.06.68-2.06,1.24,0,1.69,3.29,1.39,3.29,3.26,0,.66-.93,1.23-.93,1.31,0,3.84,9.81,4.39,11.25,4.64l-20.78-.96c-7.77-.51-10.77-4.44-10.77-8.3,0-2.56,1.87-3.92,3.5-3.92,1.92,0,3.15,1.91,3.15,3.22s-1.11,2.09-2.37,2.09c-2.14,0-2.39-1.8-2.39-.53,0,1.42,1.18,2.3,2.62,2.3.72,0,1.31-.38,1.4-.38.34,0,.47.19.47.52,0,.21-.06.45-.06.67,0,.5.41,1.04,1.67,1.04.81,0,1.32-.28,1.32-1.07,0-.31-.07-.62-.07-.91,0-.43.12-.67.55-.67.63,0,1.07,1.16,2.39,1.16.97,0,1.23-.98,1.23-1.34,0-1.23-2.07-1.56-2.07-2.51,0-.41.23-.84.7-.84.37,0,.81.21,1.19.21.54,0,1.26-.57,1.26-1.8,0-1.09-.53-1.33-1.34-1.33-.22,0-.44.02-.66.02-.59,0-1.27-.19-1.27-.78,0-.75,1.55-.27,1.55-1.63,0-.94-1.03-1.78-1.81-1.78-1.39,0-.53,2.07-1.9,2.07-.58,0-1.04-.63-1.04-1.05,0-.37.3-.73.3-1.13,0-.69-.94-1.58-1.96-1.58-.59,0-1.11.38-1.11,1.13,0,.11,0,.22,0,.32,0,.74-.53,1.13-.86,1.13-1.1,0-.35-2.28-2.28-2.28-.8,0-1.03.63-1.03.92,0,1.05-.34,2.72-1.28,2.72-.44,0-1.47-.5-1.47-1.67,0-1.85,2.01-3.59,2.01-4.06,0-1.27-2.31-.36-2.31-1.32,0-1.17,2.3-.54,2.3-2.1,0-.56-.38-1.2-1.36-1.2-.18,0-.38,0-.58,0-.72,0-1.45-.07-1.45-.67,0-1.4,1.88-.62,1.88-2.1,0-.96-1.04-1.86-1.64-1.86-.51,0-.82.8-1.39.8-.37,0-.71-.33-.71-.72,0-.5.76-.82.76-1.38,0-1.11-1.75-2.34-2.42-2.34s-.76,1.11-1.58,1.11c-.4,0-.99-.18-.99-.82,0-.26.02-.51.02-.75,0-1.17-.97-1.58-1.53-1.58-1.06,0-.66,1.94-1.8,1.94-.69,0-.78-1.02-2.41-1.02-1.4,0-2.85.92-3.22,2.39.79-.23,1.58-.34,2.37-.34,13.39,0,8.86,16.32,13.76,26.86,2.66,5.72,10.14,6.26,15.07,6.89-4.93.62-12.41,1.17-15.07,6.89-4.9,10.55-.37,26.86-13.76,26.86-.79,0-1.58-.11-2.37-.34.38,1.47,1.83,2.39,3.22,2.39,1.63,0,1.72-1.03,2.41-1.03,1.14,0,.75,1.94,1.8,1.94.56,0,1.53-.41,1.53-1.58,0-.24-.02-.48-.02-.75,0-.64.59-.82.99-.82.82,0,.93,1.11,1.58,1.11s2.42-1.23,2.42-2.34c0-.56-.76-.87-.76-1.38,0-.39.34-.72.71-.72.57,0,.88.8,1.39.8.6,0,1.64-.9,1.64-1.86,0-1.48-1.88-.7-1.88-2.1,0-.61.73-.67,1.45-.67.2,0,.39,0,.58,0,.98,0,1.36-.65,1.36-1.2,0-1.56-2.3-.93-2.3-2.1,0-.96,2.31-.05,2.31-1.32,0-.46-2.01-2.2-2.01-4.06,0-1.17,1.03-1.67,1.47-1.67.94,0,1.28,1.67,1.28,2.72,0,.29.23.92,1.03.92,1.93,0,1.17-2.28,2.28-2.28.33,0,.86.39.86,1.13,0,.11,0,.21,0,.32,0,.75.52,1.13,1.11,1.13,1.02,0,1.96-.89,1.96-1.58,0-.4-.3-.77-.3-1.13,0-.42.46-1.05,1.04-1.05,1.37,0,.51,2.07,1.9,2.07.78,0,1.81-.83,1.81-1.78,0-1.36-1.55-.89-1.55-1.63,0-.58.68-.77,1.27-.77.22,0,.44.01.66.01.81,0,1.34-.24,1.34-1.33,0-1.24-.72-1.81-1.26-1.81-.38,0-.82.21-1.19.21-.47,0-.7-.43-.7-.84,0-.95,2.07-1.29,2.07-2.51,0-.36-.26-1.33-1.23-1.33-1.32,0-1.76,1.16-2.39,1.16-.43,0-.55-.24-.55-.67,0-.29.07-.6.07-.92,0-.79-.51-1.07-1.32-1.07-1.26,0-1.67.53-1.67,1.04,0,.23.06.46.06.67,0,.32-.13.52-.47.52-.09,0-.68-.38-1.4-.38-1.45,0-2.62.88-2.62,2.3,0,1.27.24-.53,2.39-.53,1.26,0,2.37.79,2.37,2.09s-1.23,3.22-3.15,3.22c-1.63,0-3.5-1.36-3.5-3.92,0-3.86,3.01-7.79,10.77-8.3l20.78-.96c-1.44.24-11.25.79-11.25,4.64,0,.08.93.66.93,1.31,0,1.87-3.29,1.58-3.29,3.27,0,.56.56,1.24,2.06,1.24.23,0,.46,0,.67,0,.17,0,.43.53.43.93,0,1.06-1.59,1.81-1.59,2.63,0,.71,1.49,1.45,1.82,1.45,1.37,0,1.55-1.82,2.72-1.82.2,0,.56.18.56.73,0,.04,0,.08,0,.12.04,0,.08,0,.12,0,.55,0,.73.36.73.56,0,1.17-1.82,1.35-1.82,2.72,0,.33.74,1.82,1.46,1.82.82,0,1.58-1.59,2.63-1.59.4,0,.93.26.93.43,0,.22,0,.44,0,.67,0,1.5.68,2.06,1.23,2.06,1.69,0,1.39-3.29,3.27-3.29.66,0,1.23.93,1.31.93,3.84,0,4.39-9.81,4.64-11.25l-.96,20.78c-.51,7.77-4.44,10.77-8.3,10.77-2.56,0-3.92-1.87-3.92-3.5,0-1.92,1.91-3.15,3.22-3.15s2.09,1.11,2.09,2.37c0,2.14-1.8,2.39-.53,2.39,1.42,0,2.3-1.18,2.3-2.62,0-.72-.39-1.31-.39-1.4,0-.33.19-.47.52-.47.22,0,.45.07.68.07.5,0,1.03-.41,1.03-1.67,0-.81-.28-1.32-1.07-1.32-.31,0-.62.08-.92.08-.43,0-.67-.12-.67-.55,0-.64,1.15-1.07,1.15-2.39,0-.98-.98-1.23-1.33-1.23-1.23,0-1.56,2.07-2.51,2.07-.41,0-.84-.23-.84-.7,0-.37.21-.81.21-1.19,0-.55-.57-1.26-1.81-1.26-1.09,0-1.32.53-1.32,1.34,0,.22.01.44.01.66,0,.6-.19,1.28-.78,1.28-.75,0-.28-1.55-1.63-1.55-.94,0-1.78,1.03-1.78,1.81,0,1.39,2.07.53,2.07,1.9,0,.58-.63,1.04-1.05,1.04-.37,0-.73-.3-1.13-.3-.69,0-1.58.94-1.58,1.96,0,.6.38,1.11,1.13,1.11.11,0,.22,0,.33,0,.74,0,1.13.53,1.13.86,0,1.1-2.28.35-2.28,2.28,0,.8.62,1.03.92,1.03,1.05,0,2.72.34,2.72,1.28,0,.44-.5,1.47-1.67,1.47-1.86,0-3.6-2.01-4.06-2.01-1.28,0-.37,2.31-1.33,2.31-1.17,0-.53-2.3-2.09-2.3-.55,0-1.2.38-1.2,1.35,0,.18,0,.38,0,.58,0,.72-.07,1.45-.67,1.45-1.39,0-.62-1.88-2.1-1.88-.96,0-1.87,1.04-1.87,1.64,0,.51.8.82.8,1.39,0,.37-.33.71-.72.71-.5,0-.82-.76-1.38-.76-1.11,0-2.34,1.75-2.34,2.42s1.11.76,1.11,1.57c0,.4-.18.99-.82.99-.26,0-.51-.02-.75-.02-1.17,0-1.59.97-1.59,1.53,0,1.06,1.94.66,1.94,1.8,0,.69-1.03.78-1.03,2.41,0,1.4.93,2.85,2.39,3.22-.23-.79-.34-1.58-.34-2.37,0-13.39,16.32-8.86,26.87-13.76,5.71-2.66,6.26-10.14,6.89-15.07.62,4.93,1.17,12.41,6.89,15.07,10.55,4.9,26.87.37,26.87,13.76,0,.79-.11,1.58-.34,2.37,1.47-.38,2.39-1.82,2.39-3.22,0-1.63-1.03-1.72-1.03-2.41,0-1.15,1.94-.75,1.94-1.8,0-.56-.41-1.53-1.58-1.53-.24,0-.48.02-.75.02-.64,0-.82-.59-.82-.99,0-.82,1.11-.93,1.11-1.57s-1.23-2.42-2.34-2.42c-.56,0-.88.76-1.38.76-.39,0-.72-.34-.72-.71,0-.57.8-.88.8-1.39,0-.6-.9-1.64-1.86-1.64-1.48,0-.7,1.88-2.1,1.88-.6,0-.67-.73-.67-1.45,0-.2,0-.39,0-.58,0-.97-.64-1.35-1.2-1.35-1.56,0-.93,2.3-2.09,2.3-.96,0-.05-2.31-1.32-2.31-.46,0-2.2,2.01-4.06,2.01-1.17,0-1.67-1.03-1.67-1.47,0-.95,1.67-1.28,2.72-1.28.3,0,.92-.23.92-1.03,0-1.92-2.28-1.17-2.28-2.28,0-.33.4-.86,1.13-.86.11,0,.22,0,.32,0,.75,0,1.13-.52,1.13-1.11,0-1.01-.89-1.96-1.58-1.96-.4,0-.77.3-1.13.3-.42,0-1.05-.46-1.05-1.04,0-1.37,2.07-.51,2.07-1.9,0-.78-.83-1.81-1.78-1.81-1.36,0-.89,1.55-1.63,1.55-.59,0-.78-.68-.78-1.28,0-.22.02-.44.02-.66,0-.81-.24-1.34-1.33-1.34-1.24,0-1.8.72-1.8,1.26,0,.38.21.82.21,1.19,0,.47-.43.7-.84.7-.95,0-1.29-2.07-2.51-2.07-.36,0-1.34.26-1.34,1.23,0,1.32,1.16,1.75,1.16,2.39,0,.43-.24.55-.67.55-.29,0-.6-.08-.91-.08-.79,0-1.07.51-1.07,1.32,0,1.26.53,1.67,1.04,1.67.23,0,.46-.07.68-.07.32,0,.52.14.52.47,0,.09-.39.68-.39,1.4,0,1.45.88,2.62,2.3,2.62,1.27,0-.53-.24-.53-2.39,0-1.26.79-2.37,2.09-2.37s3.22,1.23,3.22,3.15c0,1.63-1.35,3.5-3.92,3.5-3.86,0-7.79-3.01-8.3-10.77l-.96-20.78c.24,1.44.79,11.25,4.64,11.25.08,0,.65-.93,1.31-.93,1.87,0,1.58,3.29,3.27,3.29.55,0,1.24-.56,1.24-2.06,0-.23,0-.46,0-.67,0-.17.53-.43.93-.43,1.06,0,1.81,1.59,2.63,1.59.71,0,1.45-1.49,1.45-1.82,0-1.37-1.82-1.55-1.82-2.72,0-.2.18-.56.72-.56.04,0,.08,0,.12,0,0-.04,0-.08,0-.12,0-.55.36-.72.56-.72,1.17,0,1.35,1.82,2.72,1.82.33,0,1.82-.74,1.82-1.45,0-.83-1.59-1.58-1.59-2.63,0-.39.26-.93.43-.93.21,0,.44,0,.67,0,1.5,0,2.06-.68,2.06-1.24,0-1.69-3.29-1.39-3.29-3.27,0-.66.93-1.23.93-1.31,0-3.85-9.81-4.4-11.25-4.64l20.78.96c7.77.51,10.77,4.44,10.77,8.3,0,2.56-1.87,3.92-3.5,3.92-1.92,0-3.15-1.91-3.15-3.22s1.11-2.09,2.37-2.09c2.14,0,2.39,1.8,2.39.53,0-1.42-1.18-2.3-2.62-2.3-.72,0-1.31.39-1.39.39-.33,0-.47-.2-.47-.52,0-.22.07-.45.07-.68,0-.5-.41-1.04-1.67-1.04-.81,0-1.32.28-1.32,1.07,0,.31.08.62.08.92,0,.42-.12.67-.55.67-.64,0-1.07-1.16-2.39-1.16-.98,0-1.23.98-1.23,1.34,0,1.23,2.07,1.56,2.07,2.51,0,.41-.23.84-.7.84-.37,0-.81-.21-1.19-.21-.55,0-1.26.57-1.26,1.8,0,1.09.53,1.33,1.34,1.33.22,0,.44-.02.66-.02.6,0,1.28.19,1.28.78,0,.75-1.55.27-1.55,1.63,0,.94,1.03,1.78,1.81,1.78,1.39,0,.53-2.07,1.9-2.07.58,0,1.04.64,1.04,1.05,0,.37-.3.74-.3,1.13,0,.69.94,1.58,1.96,1.58.6,0,1.11-.38,1.11-1.13,0-.11,0-.21,0-.32,0-.74.53-1.13.86-1.13,1.1,0,.35,2.28,2.28,2.28.8,0,1.03-.62,1.03-.92,0-1.05.34-2.72,1.28-2.72.44,0,1.47.5,1.47,1.67,0,1.85-2.01,3.59-2.01,4.06,0,1.28,2.31.37,2.31,1.32,0,1.17-2.3.54-2.3,2.09,0,.55.38,1.2,1.35,1.2.18,0,.38,0,.58,0,.72,0,1.45.07,1.45.67,0,1.4-1.88.62-1.88,2.1,0,.96,1.04,1.86,1.64,1.86.51,0,.82-.8,1.39-.8.37,0,.71.33.71.72,0,.5-.76.82-.76,1.38,0,1.11,1.75,2.34,2.42,2.34s.76-1.11,1.57-1.11c.4,0,.99.18.99.82,0,.26-.02.51-.02.75,0,1.17.97,1.58,1.53,1.58,1.06,0,.66-1.94,1.8-1.94.69,0,.78,1.02,2.4,1.02,1.4,0,2.85-.92,3.23-2.39-.79.23-1.58.34-2.37.34-13.39,0-8.86-16.32-13.76-26.87-2.66-5.72-10.14-6.26-15.07-6.89,4.93-.62,12.41-1.17,15.07-6.89,4.9-10.55.37-26.87,13.76-26.87.79,0,1.58.11,2.37.34-.38-1.47-1.82-2.39-3.23-2.39-1.63,0-1.72,1.03-2.4,1.03-1.15,0-.75-1.94-1.8-1.94-.56,0-1.53.41-1.53,1.59,0,.24.02.48.02.75,0,.64-.59.82-.99.82-.82,0-.93-1.11-1.57-1.11s-2.42,1.23-2.42,2.34c0,.56.76.88.76,1.38,0,.39-.34.72-.71.72-.57,0-.88-.8-1.39-.8-.6,0-1.64.9-1.64,1.87,0,1.48,1.88.7,1.88,2.1,0,.6-.73.67-1.45.67-.2,0-.39,0-.58,0-.97,0-1.35.65-1.35,1.2,0,1.56,2.3.93,2.3,2.09,0,.96-2.31.05-2.31,1.32,0,.46,2.01,2.2,2.01,4.06,0,1.17-1.03,1.67-1.47,1.67-.95,0-1.28-1.67-1.28-2.72,0-.29-.23-.92-1.03-.92-1.92,0-1.17,2.28-2.28,2.28-.33,0-.86-.4-.86-1.13,0-.11,0-.22,0-.33,0-.75-.52-1.13-1.11-1.13-1.01,0-1.96.89-1.96,1.58,0,.4.3.77.3,1.13,0,.42-.46,1.05-1.04,1.05-1.37,0-.51-2.07-1.9-2.07-.78,0-1.81.83-1.81,1.78,0,1.36,1.55.89,1.55,1.63,0,.59-.68.78-1.28.78-.22,0-.44-.01-.66-.01-.81,0-1.34.24-1.34,1.32,0,1.24.72,1.8,1.26,1.8.38,0,.82-.21,1.19-.21.47,0,.7.43.7.84,0,.95-2.07,1.29-2.07,2.51,0,.36.26,1.33,1.23,1.33,1.32,0,1.76-1.15,2.39-1.15.43,0,.55.24.55.67,0,.3-.08.6-.08.91,0,.79.51,1.07,1.32,1.07,1.26,0,1.67-.53,1.67-1.03,0-.23-.07-.46-.07-.68,0-.32.14-.52.47-.52.09,0,.68.39,1.39.39,1.45,0,2.62-.88,2.62-2.3,0-1.27-.24.53-2.39.53-1.26,0-2.37-.79-2.37-2.09s1.23-3.22,3.15-3.22c1.63,0,3.5,1.36,3.5,3.92,0,3.86-3.01,7.79-10.77,8.3l-20.78.96c1.44-.24,11.25-.79,11.25-4.64,0-.08-.93-.66-.93-1.31,0-1.87,3.29-1.58,3.29-3.27,0-.55-.56-1.24-2.06-1.24-.23,0-.46,0-.67,0-.17,0-.43-.53-.43-.93,0-1.06,1.59-1.81,1.59-2.63,0-.71-1.49-1.46-1.82-1.46-1.37,0-1.55,1.82-2.72,1.82-.2,0-.56-.18-.56-.73,0-.04,0-.08,0-.12-.04,0-.08,0-.12,0-.55,0-.73-.36-.73-.56,0-1.17,1.82-1.35,1.82-2.72,0-.34-.74-1.82-1.45-1.82-.83,0-1.58,1.59-2.63,1.59-.39,0-.93-.25-.93-.43,0-.21,0-.44,0-.67,0-1.5-.68-2.06-1.24-2.06-1.69,0-1.4,3.29-3.27,3.29-.65,0-1.23-.93-1.31-.93-3.84,0-4.4,9.81-4.64,11.25l.96-20.78c.51-7.77,4.44-10.77,8.3-10.77,2.56,0,3.92,1.87,3.92,3.5,0,1.92-1.91,3.15-3.22,3.15s-2.09-1.11-2.09-2.37c0-2.14,1.8-2.39.53-2.39-1.42,0-2.3,1.18-2.3,2.62,0,.72.38,1.31.38,1.39,0,.34-.19.47-.52.47-.22,0-.45-.06-.67-.06-.5,0-1.04.41-1.04,1.67,0,.81.28,1.32,1.07,1.32.31,0,.62-.07.91-.07.43,0,.67.12.67.55,0,.63-1.16,1.07-1.16,2.39,0,.97.98,1.23,1.33,1.23,1.23,0,1.56-2.07,2.51-2.07.41,0,.84.23.84.7,0,.37-.2.81-.2,1.19,0,.54.56,1.26,1.8,1.26,1.09,0,1.33-.53,1.33-1.34,0-.22-.01-.44-.01-.66,0-.59.19-1.27.77-1.27.75,0,.28,1.55,1.63,1.55.94,0,1.78-1.02,1.78-1.81,0-1.39-2.07-.53-2.07-1.9,0-.58.63-1.04,1.05-1.04.37,0,.73.3,1.13.3.69,0,1.58-.94,1.58-1.96,0-.59-.38-1.11-1.13-1.11-.11,0-.22,0-.32,0-.74,0-1.13-.53-1.13-.86,0-1.1,2.28-.35,2.28-2.28,0-.8-.63-1.03-.92-1.03-1.05,0-2.72-.34-2.72-1.28,0-.44.5-1.47,1.67-1.47,1.86,0,3.59,2.01,4.06,2.01,1.28,0,.37-2.31,1.33-2.31,1.17,0,.53,2.3,2.09,2.3.55,0,1.2-.38,1.2-1.36,0-.18,0-.38,0-.57,0-.72.07-1.45.67-1.45,1.4,0,.62,1.88,2.1,1.88.96,0,1.86-1.04,1.86-1.64,0-.51-.8-.82-.8-1.4,0-.37.33-.71.72-.71.5,0,.82.76,1.38.76,1.11,0,2.34-1.75,2.34-2.42s-1.11-.76-1.11-1.58c0-.4.18-.99.82-.99.26,0,.51.02.75.02,1.17,0,1.58-.97,1.58-1.53,0-1.06-1.94-.66-1.94-1.8,0-.69,1.03-.78,1.03-2.41,0-1.4-.93-2.85-2.39-3.23.23.79.34,1.58.34,2.37,0,13.4-16.32,8.86-26.86,13.76-5.72,2.66-6.26,10.14-6.89,15.07-.63-4.93-1.17-12.41-6.89-15.07-10.55-4.9-26.86-.37-26.86-13.76,0-.79.11-1.58.34-2.37-1.47.38-2.39,1.83-2.39,3.23,0,1.63,1.02,1.72,1.02,2.41,0,1.14-1.94.75-1.94,1.8,0,.56.41,1.53,1.58,1.53.24,0,.49-.02.75-.02.65,0,.82.59.82.99,0,.82-1.11.93-1.11,1.58s1.23,2.42,2.34,2.42c.56,0,.87-.76,1.38-.76.39,0,.72.34.72.71,0,.57-.8.88-.8,1.4,0,.6.9,1.64,1.86,1.64,1.48,0,.7-1.88,2.1-1.88.6,0,.67.73.67,1.45,0,.2,0,.39,0,.57,0,.98.64,1.36,1.2,1.36,1.56,0,.93-2.3,2.09-2.3.96,0,.05,2.31,1.32,2.31.47,0,2.21-2.01,4.06-2.01,1.17,0,1.67,1.03,1.67,1.47,0,.94-1.67,1.28-2.72,1.28-.29,0-.92.23-.92,1.03,0,1.93,2.28,1.17,2.28,2.28,0,.33-.39.86-1.13.86-.11,0-.22,0-.32,0-.75,0-1.13.52-1.13,1.11,0,1.02.89,1.96,1.58,1.96.4,0,.77-.3,1.13-.3.42,0,1.05.46,1.05,1.04,0,1.37-2.07.51-2.07,1.9,0,.78.83,1.81,1.78,1.81,1.36,0,.89-1.55,1.63-1.55.59,0,.78.68.78,1.27,0,.22-.02.44-.02.66,0,.81.24,1.34,1.33,1.34,1.24,0,1.8-.72,1.8-1.26,0-.38-.21-.82-.21-1.19,0-.47.43-.7.84-.7.95,0,1.29,2.07,2.51,2.07.36,0,1.34-.26,1.34-1.23,0-1.32-1.16-1.76-1.16-2.39,0-.43.24-.55.67-.55.29,0,.6.07.92.07.79,0,1.07-.51,1.07-1.32,0-1.26-.53-1.67-1.04-1.67-.23,0-.46.06-.67.06-.32,0-.52-.13-.52-.47,0-.09.38-.68.38-1.39,0-1.45-.88-2.62-2.3-2.62-1.27,0,.53.24.53,2.39,0,1.26-.79,2.37-2.09,2.37s-3.22-1.23-3.22-3.15c0-1.63,1.35-3.5,3.92-3.5,3.86,0,7.79,3.01,8.3,10.77l.96,20.78c-.24-1.44-.79-11.25-4.64-11.25-.08,0-.65.93-1.31.93-1.87,0-1.58-3.29-3.27-3.29-.56,0-1.24.56-1.24,2.06,0,.23,0,.46,0,.67,0,.17-.53.43-.93.43-1.05,0-1.81-1.59-2.63-1.59-.71,0-1.45,1.49-1.45,1.82,0,1.37,1.82,1.55,1.82,2.72,0,.2-.18.56-.72.56-.04,0-.08,0-.12,0,0,.04,0,.08,0,.12Z"/>
      <path d="M137.11,27.05c.46,0,1.02-.15,1.51-.15.69,0,1.31.32,1.31,1.85,0,.96-.48,1.93-1.99,1.93-.21,0-.43,0-.64,0-.86,0-1.2.48-1.2.84,0,1.48,2.88.6,2.88,2.43,0,.84-.88,2.02-1.74,2.02-1.22,0-1-1.2-1.97-1.2s-1.35.48-1.35,1.06c0,.79,1.01.91,1.01,1.81s-1.12,1.63-2.07,1.63c-.8,0-1.55-.46-1.69-1.28-.13-.79-.17-1.68-.72-1.68,0,0-.5.06-.98.06-2.02,0-2.91-1.03-2.91-2.31,0-.64.4-1.14.92-1.46.02.06.03.12.05.18.33,1.25,1.54,2.03,2.72,2.03s2.38-.93,2.38-2.27c0-1.43-1.32-2.88-3.62-2.88-2.93,0-5.51,2.48-5.51,5.58,0,3.5,2.1,5.15,5.33,5.56-.41.5-.65,1.17-.65,1.76,0,0,.04,1.18.04,1.92,0,2.79-.36,5.6-2.71,7.38-1.35-20.61-15.8-28.86-24.63-28.86-.29,0-.57,0-.86.02-.29-.02-.58-.02-.86-.02-8.83,0-23.29,8.25-24.63,28.86-2.35-1.78-2.71-4.59-2.71-7.38,0-.74.04-1.92.04-1.92,0-.59-.24-1.25-.65-1.76,3.22-.41,5.33-2.06,5.33-5.56,0-3.1-2.58-5.58-5.51-5.58-2.3,0-3.62,1.45-3.62,2.88,0,1.34,1.16,2.27,2.38,2.27s2.4-.78,2.72-2.03c.02-.06.03-.12.05-.18.52.32.92.82.92,1.46,0,1.28-.89,2.31-2.91,2.31-.48,0-.98-.06-.98-.06-.56,0-.59.89-.72,1.68-.14.82-.89,1.28-1.69,1.28-.96,0-2.07-.73-2.07-1.63s1.01-1.01,1.01-1.81c0-.58-.39-1.06-1.35-1.06s-.75,1.2-1.97,1.2c-.87,0-1.74-1.18-1.74-2.02,0-1.84,2.88-.96,2.88-2.43,0-.35-.34-.84-1.2-.84-.21,0-.43,0-.65,0-1.51,0-1.99-.98-1.99-1.93,0-1.53.62-1.85,1.31-1.85.49,0,1.05.15,1.51.15.33,0,.68-.24.68-.77,0-.92-1.19-1.24-1.58-2-.92-1.76.09-4.16-1.81-4.96.81-.27,1.68-.46,2.52-.46,3.33,0,2.99,2.3,4.76,2.3.81,0,1.9-.62,1.9-1.39,0-.53-.62-.94-.62-2.01,0-1.01.77-1.69,1.37-1.69,2.12,0,.33,3.43,2.45,3.43.59,0,1.09-.38,1.09-1.18,0-.22-.03-.45-.03-.67,0-.78.45-1.16,1.09-1.16,1.11,0,1.93,1.03,1.93,2.09,0,.47-.19.95-.19,1.4s.25.96.7.96c.8,0,1.29-1.75,2.45-1.75.67,0,1.24.53,1.24,1.57,0,.75-.35,1.98-1.34,1.98-.27,0-.53-.06-.81-.06-.67,0,.59.02.59,1.54,0,1.36-1.27,2.93-2.74,2.93-1.35,0,.59-.07.59-2.12,0-1.45-1.35-2.18-2.28-2.18-1.67,0-2.96,1.77-2.96,3.38,0,2.26,2.96,3.75,5.27,3.75,2.84,0,6.99-1.96,6.99-7.08,0-4.06-3.08-9.2-7.89-9.2-.49,0-.99.05-1.47.14.72-1.38,2.22-1.96,3.73-1.96,2.1,0,.59.82.59-2.19,0-.58.05-1.17.05-1.74,0-.75-.21-1.06-.69-1.88,1.6.56,2.9,1.73,3.63,3.33.12.26.36.45.6.45.49,0,1.36-1.55,2.81-1.55.1,0,.2,0,.3.02-.99,1.22-1.4,2.67-1.4,4.16,0,5.33,4.25,9.31,7.77,9.31,2.63,0,6.13-2.28,6.13-5.24,0-1.98-1.4-3.58-3.48-3.58-1.64,0-2.51,1.13-2.51,2.27s.85,1.85,1.9,1.85c.41,0,.82-.11,1.22-.26.04.18.07.36.07.47,0,1.52-1.64,2.33-2.69,2.33-2,0-1.08-2.76-1.77-2.76-.07,0-.14-.06-.2-.06,0,0-.63.63-1.53.63-1.19,0-2.15-.96-2.15-2.05,0-.52.24-1.2,1.03-1.2.39,0,.82.13,1.21.13.57,0,.82-.35.82-.83,0-1.32-2.88-.2-2.88-3.1,0-.81.52-1.52,1.27-1.52,1.14,0,1.85,1.22,2.59,1.22s1.2-.75,1.2-1.36c0-1.09-1.55-1.32-1.55-2.72,0-1.2.92-2.4,2.11-2.4,2.67,0,.95,3.13,2.95,3.13.55,0,1.07-.39,1.07-.82,0-.1-.37-1.02-.37-1.76,0-2.05,2.23-2.53,3.43-4.16,1.2,1.63,3.43,2.11,3.43,4.16,0,.74-.37,1.66-.37,1.76,0,.43.52.82,1.07.82,2.01,0,.29-3.13,2.95-3.13,1.18,0,2.11,1.2,2.11,2.4,0,1.4-1.55,1.62-1.55,2.72,0,.61.45,1.36,1.2,1.36s1.45-1.22,2.59-1.22c.75,0,1.27.72,1.27,1.52,0,2.9-2.88,1.78-2.88,3.1,0,.48.25.83.82.83.39,0,.82-.13,1.21-.13.79,0,1.03.68,1.03,1.2,0,1.1-.96,2.05-2.15,2.05-.9,0-1.53-.63-1.53-.63-.07,0-.14.06-.21.06-.7,0,.23,2.76-1.77,2.76-1.06,0-2.69-.81-2.69-2.33,0-.11.03-.29.07-.47.39.15.8.26,1.21.26,1.05,0,1.9-.75,1.9-1.85s-.87-2.27-2.51-2.27c-2.07,0-3.48,1.59-3.48,3.58,0,2.96,3.49,5.24,6.12,5.24,3.52,0,7.77-3.98,7.77-9.31,0-1.49-.4-2.95-1.39-4.16.1-.02.2-.02.3-.02,1.46,0,2.32,1.55,2.81,1.55.24,0,.49-.19.6-.45.73-1.6,2.03-2.77,3.63-3.33-.48.82-.69,1.13-.69,1.88,0,.57.05,1.16.05,1.74,0,3.01-1.51,2.19.59,2.19,1.5,0,3,.58,3.72,1.96-.48-.1-.97-.14-1.47-.14-4.81,0-7.89,5.14-7.89,9.2,0,5.12,4.15,7.08,6.99,7.08,2.31,0,5.27-1.49,5.27-3.75,0-1.61-1.3-3.38-2.96-3.38-.93,0-2.28.73-2.28,2.18,0,2.05,1.95,2.12.59,2.12-1.47,0-2.74-1.57-2.74-2.93,0-1.51,1.26-1.54.6-1.54-.27,0-.54.06-.81.06-.99,0-1.34-1.23-1.34-1.98,0-1.04.57-1.57,1.24-1.57,1.16,0,1.65,1.75,2.45,1.75.44,0,.7-.51.7-.96s-.19-.93-.19-1.4c0-1.06.83-2.09,1.93-2.09.64,0,1.09.38,1.09,1.16,0,.22-.03.45-.03.67,0,.8.49,1.18,1.09,1.18,2.11,0,.33-3.43,2.45-3.43.6,0,1.37.68,1.37,1.69,0,1.07-.62,1.48-.62,2.01,0,.77,1.09,1.39,1.9,1.39,1.77,0,1.43-2.3,4.75-2.3.84,0,1.71.18,2.52.46-1.9.81-.89,3.2-1.81,4.96-.39.76-1.58,1.08-1.58,2,0,.53.35.77.67.77Z"/>
      <path d="M62.88,172.95c-.46,0-1.02.15-1.51.15-.69,0-1.31-.32-1.31-1.85,0-.96.48-1.93,1.99-1.93.21,0,.43.01.65.01.86,0,1.2-.48,1.2-.84,0-1.48-2.88-.6-2.88-2.43,0-.84.88-2.01,1.74-2.01,1.22,0,.99,1.2,1.97,1.2s1.35-.48,1.35-1.06c0-.79-1.01-.91-1.01-1.8s1.12-1.63,2.08-1.63c.8,0,1.55.45,1.69,1.27.13.79.17,1.68.72,1.68,0,0,.5-.06.98-.06,2.01,0,2.91,1.03,2.91,2.31,0,.64-.4,1.14-.92,1.46-.02-.06-.03-.12-.05-.17-.32-1.25-1.54-2.04-2.72-2.04s-2.38.93-2.38,2.28c0,1.43,1.33,2.88,3.62,2.88,2.93,0,5.51-2.48,5.51-5.58,0-3.5-2.11-5.15-5.33-5.56.41-.51.65-1.17.65-1.76,0,0-.04-1.18-.04-1.92,0-2.79.36-5.6,2.71-7.38,1.34,20.61,15.8,28.86,24.63,28.86.29,0,.57,0,.86-.02.29.02.57.02.86.02,8.83,0,23.29-8.25,24.63-28.86,2.35,1.78,2.71,4.59,2.71,7.38,0,.74-.04,1.92-.04,1.92,0,.59.24,1.25.65,1.76-3.22.41-5.33,2.06-5.33,5.56,0,3.1,2.58,5.58,5.51,5.58,2.3,0,3.62-1.45,3.62-2.88,0-1.35-1.16-2.28-2.38-2.28s-2.4.78-2.72,2.04c-.01.06-.03.12-.05.17-.52-.32-.92-.82-.92-1.46,0-1.28.89-2.31,2.91-2.31.48,0,.98.06.98.06.56,0,.59-.89.72-1.68.14-.82.89-1.27,1.69-1.27.96,0,2.07.72,2.07,1.63s-1.01,1.01-1.01,1.8c0,.59.39,1.06,1.35,1.06s.75-1.2,1.97-1.2c.87,0,1.74,1.17,1.74,2.01,0,1.84-2.88.96-2.88,2.43,0,.36.34.84,1.2.84.21,0,.43-.01.65-.01,1.51,0,1.99.98,1.99,1.93,0,1.53-.62,1.85-1.3,1.85-.49,0-1.05-.15-1.51-.15-.33,0-.67.24-.67.77,0,.92,1.19,1.24,1.58,2,.92,1.76-.09,4.16,1.81,4.97-.81.27-1.68.45-2.52.45-3.32,0-2.99-2.3-4.75-2.3-.81,0-1.9.62-1.9,1.39,0,.53.62.94.62,2.01,0,1.01-.77,1.69-1.37,1.69-2.12,0-.33-3.43-2.45-3.43-.59,0-1.09.38-1.09,1.18,0,.22.03.45.03.67,0,.77-.45,1.16-1.09,1.16-1.11,0-1.94-1.03-1.94-2.09,0-.47.2-.95.2-1.4s-.25-.96-.7-.96c-.8,0-1.29,1.75-2.45,1.75-.67,0-1.24-.53-1.24-1.57,0-.75.35-1.98,1.34-1.98.27,0,.54.07.81.07.67,0-.59-.03-.59-1.54,0-1.36,1.27-2.93,2.74-2.93,1.35,0-.59.06-.59,2.11,0,1.45,1.35,2.18,2.28,2.18,1.67,0,2.96-1.77,2.96-3.38,0-2.26-2.97-3.75-5.27-3.75-2.84,0-6.99,1.96-6.99,7.08,0,4.06,3.08,9.2,7.89,9.2.49,0,.98-.05,1.47-.14-.73,1.38-2.23,1.96-3.73,1.96-2.1,0-.59-.82-.59,2.19,0,.58-.05,1.17-.05,1.74,0,.75.21,1.06.69,1.88-1.6-.56-2.9-1.73-3.63-3.32-.12-.26-.36-.45-.6-.45-.49,0-1.36,1.55-2.81,1.55-.1,0-.2,0-.3-.02,1-1.22,1.39-2.67,1.39-4.17,0-5.33-4.25-9.31-7.77-9.31-2.63,0-6.12,2.29-6.12,5.24,0,1.98,1.4,3.57,3.47,3.57,1.64,0,2.51-1.13,2.51-2.27s-.85-1.85-1.9-1.85c-.41,0-.82.11-1.22.26-.04-.18-.07-.36-.07-.47,0-1.52,1.64-2.33,2.69-2.33,2,0,1.08,2.76,1.77,2.76.07,0,.14.06.21.06,0,0,.63-.63,1.53-.63,1.19,0,2.15.96,2.15,2.05,0,.52-.24,1.2-1.03,1.2-.38,0-.82-.12-1.21-.12-.57,0-.82.35-.82.83,0,1.32,2.88.19,2.88,3.1,0,.81-.52,1.52-1.27,1.52-1.14,0-1.85-1.22-2.59-1.22s-1.2.75-1.2,1.36c0,1.09,1.55,1.32,1.55,2.72,0,1.2-.92,2.4-2.11,2.4-2.67,0-.95-3.13-2.95-3.13-.55,0-1.07.39-1.07.82,0,.1.37,1.02.37,1.76,0,2.05-2.23,2.53-3.43,4.16-1.2-1.63-3.43-2.11-3.43-4.16,0-.74.37-1.66.37-1.76,0-.43-.52-.82-1.07-.82-2,0-.28,3.13-2.95,3.13-1.18,0-2.11-1.2-2.11-2.4,0-1.4,1.55-1.63,1.55-2.72,0-.61-.45-1.36-1.2-1.36s-1.45,1.22-2.59,1.22c-.75,0-1.27-.72-1.27-1.52,0-2.91,2.88-1.78,2.88-3.1,0-.48-.25-.83-.82-.83-.39,0-.82.12-1.21.12-.79,0-1.03-.68-1.03-1.2,0-1.1.96-2.05,2.15-2.05.9,0,1.53.63,1.53.63.07,0,.14-.06.21-.06.69,0-.24-2.76,1.77-2.76,1.06,0,2.7.81,2.7,2.33,0,.11-.03.29-.07.47-.39-.15-.8-.26-1.22-.26-1.05,0-1.9.75-1.9,1.85s.87,2.27,2.51,2.27c2.07,0,3.48-1.59,3.48-3.57,0-2.96-3.5-5.24-6.13-5.24-3.52,0-7.77,3.98-7.77,9.31,0,1.49.4,2.95,1.4,4.17-.1.01-.2.02-.3.02-1.45,0-2.32-1.55-2.81-1.55-.24,0-.48.19-.6.45-.73,1.6-2.03,2.76-3.63,3.32.48-.82.69-1.13.69-1.88,0-.57-.05-1.16-.05-1.74,0-3.01,1.51-2.19-.59-2.19-1.5,0-3-.58-3.72-1.96.48.09.97.14,1.47.14,4.81,0,7.89-5.14,7.89-9.2,0-5.12-4.15-7.08-6.99-7.08-2.31,0-5.27,1.49-5.27,3.75,0,1.61,1.3,3.38,2.96,3.38.93,0,2.28-.73,2.28-2.18,0-2.05-1.95-2.11-.59-2.11,1.47,0,2.74,1.57,2.74,2.93,0,1.51-1.26,1.54-.6,1.54.27,0,.54-.07.81-.07.99,0,1.34,1.23,1.34,1.98,0,1.04-.57,1.57-1.24,1.57-1.16,0-1.65-1.75-2.45-1.75-.45,0-.7.51-.7.96s.2.93.2,1.4c0,1.06-.83,2.09-1.93,2.09-.64,0-1.09-.38-1.09-1.16,0-.22.03-.45.03-.67,0-.8-.49-1.18-1.09-1.18-2.12,0-.33,3.43-2.45,3.43-.6,0-1.37-.68-1.37-1.69,0-1.07.62-1.49.62-2.01,0-.77-1.1-1.39-1.9-1.39-1.76,0-1.43,2.3-4.75,2.3-.84,0-1.71-.18-2.52-.45,1.9-.81.89-3.2,1.81-4.97.4-.76,1.58-1.08,1.58-2,0-.53-.35-.77-.67-.77Z"/>
      <path d="M27.05,137.12c0,.46-.15,1.01-.15,1.51,0,.69.32,1.31,1.85,1.31.95,0,1.93-.48,1.93-1.99,0-.21,0-.43,0-.65,0-.85.48-1.2.84-1.2,1.48,0,.6,2.88,2.43,2.88.84,0,2.02-.88,2.02-1.74,0-1.22-1.2-.99-1.2-1.97s.48-1.35,1.06-1.35c.79,0,.91,1.01,1.8,1.01s1.63-1.12,1.63-2.07c0-.8-.46-1.55-1.27-1.69-.79-.13-1.68-.17-1.68-.72,0,0,.06-.5.06-.98,0-2.02-1.03-2.91-2.31-2.91-.64,0-1.14.4-1.46.92.06.02.12.03.18.05,1.25.33,2.03,1.54,2.03,2.72s-.93,2.38-2.27,2.38c-1.43,0-2.88-1.32-2.88-3.62,0-2.93,2.48-5.51,5.58-5.51,3.5,0,5.15,2.1,5.56,5.33.51-.41,1.17-.65,1.76-.65,0,0,1.18.04,1.92.04,2.79,0,5.6-.36,7.38-2.71-20.61-1.34-28.86-15.8-28.86-24.63,0-.29,0-.57.02-.86-.02-.29-.02-.57-.02-.86,0-8.83,8.25-23.29,28.86-24.63-1.78-2.35-4.59-2.71-7.38-2.71-.74,0-1.92.04-1.92.04-.59,0-1.25-.24-1.76-.65-.41,3.22-2.06,5.33-5.56,5.33-3.1,0-5.58-2.58-5.58-5.51,0-2.3,1.45-3.62,2.88-3.62,1.35,0,2.27,1.16,2.27,2.38s-.78,2.4-2.03,2.72c-.06.02-.12.03-.18.05.32.52.82.92,1.46.92,1.28,0,2.31-.89,2.31-2.91,0-.48-.06-.98-.06-.98,0-.56.89-.59,1.68-.72.82-.14,1.27-.89,1.27-1.69,0-.96-.73-2.07-1.63-2.07s-1.01,1.01-1.8,1.01c-.58,0-1.06-.39-1.06-1.35s1.2-.75,1.2-1.97c0-.87-1.18-1.74-2.02-1.74-1.84,0-.96,2.88-2.43,2.88-.35,0-.84-.34-.84-1.2,0-.21,0-.43,0-.65,0-1.51-.98-1.99-1.93-1.99-1.53,0-1.85.62-1.85,1.31,0,.49.15,1.05.15,1.51,0,.33-.24.68-.77.68-.92,0-1.24-1.19-2-1.58-1.76-.92-4.16.09-4.96-1.81-.27.81-.46,1.68-.46,2.52,0,3.33,2.3,2.99,2.3,4.76,0,.81-.62,1.9-1.39,1.9-.53,0-.94-.62-2.01-.62-1.01,0-1.69.77-1.69,1.37,0,2.12,3.43.33,3.43,2.45,0,.59-.38,1.09-1.18,1.09-.22,0-.45-.03-.67-.03-.78,0-1.16.45-1.16,1.09,0,1.11,1.03,1.93,2.09,1.93.47,0,.95-.2,1.4-.2s.96.25.96.7c0,.8-1.75,1.29-1.75,2.45,0,.67.53,1.24,1.57,1.24.75,0,1.98-.35,1.98-1.35,0-.27-.06-.53-.06-.81,0-.67.02.59,1.54.59,1.36,0,2.93-1.27,2.93-2.74,0-1.35-.07.59-2.11.59-1.45,0-2.18-1.35-2.18-2.28,0-1.67,1.77-2.96,3.38-2.96,2.26,0,3.75,2.96,3.75,5.27,0,2.84-1.96,6.99-7.08,6.99-4.06,0-9.2-3.08-9.2-7.89,0-.49.05-.98.14-1.47-1.38.72-1.96,2.22-1.96,3.73,0,2.1.82.59-2.19.59-.58,0-1.16.05-1.74.05-.75,0-1.06-.21-1.88-.69.56,1.6,1.73,2.9,3.33,3.63.26.12.45.36.45.6,0,.49-1.55,1.36-1.55,2.81,0,.1,0,.2.02.3,1.22-.99,2.67-1.39,4.16-1.39,5.33,0,9.31,4.25,9.31,7.77,0,2.63-2.28,6.12-5.24,6.12-1.98,0-3.58-1.4-3.58-3.47,0-1.64,1.13-2.51,2.27-2.51s1.85.85,1.85,1.9c0,.41-.11.82-.26,1.22.18.04.36.07.47.07,1.52,0,2.33-1.64,2.33-2.69,0-2-2.76-1.08-2.76-1.77,0-.07-.06-.14-.06-.2,0,0,.63-.62.63-1.53,0-1.19-.96-2.15-2.05-2.15-.52,0-1.2.24-1.2,1.03,0,.38.13.82.13,1.21,0,.57-.35.82-.83.82-1.32,0-.2-2.88-3.1-2.88-.81,0-1.52.52-1.52,1.27,0,1.14,1.22,1.85,1.22,2.59s-.75,1.2-1.36,1.2c-1.09,0-1.32-1.55-2.72-1.55-1.2,0-2.4.92-2.4,2.11,0,2.67,3.13.95,3.13,2.95,0,.55-.39,1.07-.82,1.07-.1,0-1.02-.37-1.76-.37-2.05,0-2.53,2.23-4.16,3.43,1.63,1.2,2.11,3.43,4.16,3.43.74,0,1.66-.37,1.76-.37.43,0,.82.52.82,1.07,0,2.01-3.13.29-3.13,2.95,0,1.18,1.2,2.11,2.4,2.11,1.4,0,1.62-1.55,2.72-1.55.61,0,1.36.45,1.36,1.2s-1.22,1.45-1.22,2.59c0,.75.72,1.27,1.52,1.27,2.9,0,1.78-2.88,3.1-2.88.48,0,.83.25.83.82,0,.39-.13.82-.13,1.21,0,.79.68,1.03,1.2,1.03,1.1,0,2.05-.96,2.05-2.15,0-.9-.63-1.53-.63-1.53,0-.07.06-.14.06-.21,0-.7,2.76.23,2.76-1.77,0-1.06-.81-2.69-2.33-2.69-.11,0-.29.03-.47.07.15.39.26.8.26,1.21,0,1.05-.75,1.9-1.85,1.9s-2.27-.86-2.27-2.51c0-2.07,1.59-3.48,3.58-3.48,2.96,0,5.24,3.49,5.24,6.12,0,3.52-3.98,7.77-9.31,7.77-1.49,0-2.95-.4-4.16-1.4-.02.1-.02.2-.02.3,0,1.46,1.55,2.32,1.55,2.81,0,.24-.19.49-.45.6-1.6.73-2.77,2.03-3.33,3.63.82-.48,1.13-.69,1.88-.69.57,0,1.16.05,1.74.05,3.01,0,2.19-1.51,2.19.59,0,1.5.58,3,1.96,3.73-.09-.48-.14-.97-.14-1.47,0-4.81,5.14-7.89,9.2-7.89,5.12,0,7.08,4.15,7.08,6.99,0,2.31-1.49,5.27-3.75,5.27-1.61,0-3.38-1.3-3.38-2.96,0-.93.73-2.28,2.18-2.28,2.05,0,2.11,1.95,2.11.59,0-1.47-1.57-2.74-2.93-2.74-1.51,0-1.54,1.26-1.54.6,0-.27.06-.54.06-.81,0-.99-1.23-1.34-1.98-1.34-1.04,0-1.57.57-1.57,1.24,0,1.16,1.75,1.65,1.75,2.45,0,.44-.51.7-.96.7s-.93-.19-1.4-.19c-1.06,0-2.09.83-2.09,1.93,0,.64.38,1.09,1.16,1.09.22,0,.45-.03.67-.03.8,0,1.18.49,1.18,1.09,0,2.12-3.43.33-3.43,2.45,0,.6.68,1.37,1.69,1.37,1.07,0,1.48-.62,2.01-.62.77,0,1.39,1.09,1.39,1.9,0,1.76-2.3,1.43-2.3,4.75,0,.84.18,1.71.46,2.52.81-1.9,3.2-.89,4.96-1.81.76-.39,1.08-1.58,2-1.58.53,0,.77.35.77.67Z"/>
      <path d="M172.95,62.89c0-.46.15-1.02.15-1.51,0-.69-.32-1.31-1.85-1.31-.96,0-1.93.48-1.93,1.99,0,.21.01.43.01.65,0,.86-.48,1.2-.84,1.2-1.48,0-.6-2.88-2.43-2.88-.84,0-2.01.88-2.01,1.74,0,1.22,1.2.99,1.2,1.97s-.48,1.35-1.06,1.35c-.79,0-.91-1.01-1.8-1.01s-1.63,1.12-1.63,2.08c0,.8.45,1.55,1.27,1.69.79.13,1.68.17,1.68.72,0,0-.06.5-.06.98,0,2.01,1.03,2.91,2.31,2.91.64,0,1.14-.4,1.46-.92-.06-.02-.12-.03-.18-.05-1.25-.32-2.04-1.54-2.04-2.72s.93-2.38,2.28-2.38c1.43,0,2.88,1.33,2.88,3.62,0,2.93-2.48,5.51-5.58,5.51-3.5,0-5.15-2.11-5.56-5.33-.51.41-1.17.65-1.76.65,0,0-1.18-.04-1.92-.04-2.79,0-5.6.36-7.38,2.71,20.61,1.35,28.86,15.8,28.86,24.63,0,.29,0,.57-.02.86.02.29.02.57.02.86,0,8.83-8.25,23.29-28.86,24.63,1.78,2.35,4.59,2.71,7.38,2.71.74,0,1.92-.04,1.92-.04.59,0,1.25.24,1.76.65.41-3.22,2.06-5.33,5.56-5.33,3.1,0,5.58,2.58,5.58,5.51,0,2.3-1.45,3.62-2.88,3.62-1.34,0-2.28-1.16-2.28-2.38s.78-2.4,2.04-2.72c.06-.01.12-.03.18-.05-.32-.52-.83-.92-1.46-.92-1.28,0-2.31.89-2.31,2.91,0,.48.06.98.06.98,0,.56-.89.59-1.68.72-.82.14-1.27.89-1.27,1.69,0,.96.72,2.07,1.63,2.07s1.01-1.01,1.8-1.01c.59,0,1.06.39,1.06,1.35s-1.2.75-1.2,1.97c0,.87,1.17,1.74,2.01,1.74,1.84,0,.96-2.88,2.43-2.88.36,0,.84.34.84,1.2,0,.21-.01.43-.01.65,0,1.51.98,1.99,1.93,1.99,1.53,0,1.85-.62,1.85-1.3,0-.49-.15-1.05-.15-1.51,0-.33.24-.67.77-.67.92,0,1.24,1.19,2,1.58,1.76.92,4.16-.09,4.97,1.81.27-.81.45-1.68.45-2.52,0-3.32-2.3-2.99-2.3-4.75,0-.81.62-1.9,1.39-1.9.53,0,.94.62,2.01.62,1.01,0,1.69-.77,1.69-1.37,0-2.12-3.43-.33-3.43-2.45,0-.59.38-1.09,1.18-1.09.22,0,.45.03.67.03.77,0,1.16-.45,1.16-1.09,0-1.11-1.03-1.94-2.09-1.94-.47,0-.95.19-1.4.19s-.96-.25-.96-.7c0-.8,1.75-1.29,1.75-2.45,0-.67-.53-1.24-1.57-1.24-.75,0-1.98.35-1.98,1.34,0,.27.07.54.07.81,0,.67-.03-.59-1.54-.59-1.36,0-2.93,1.27-2.93,2.74,0,1.35.07-.59,2.12-.59,1.45,0,2.18,1.35,2.18,2.28,0,1.67-1.77,2.96-3.38,2.96-2.26,0-3.75-2.97-3.75-5.27,0-2.84,1.96-6.99,7.08-6.99,4.06,0,9.2,3.08,9.2,7.89,0,.49-.05.99-.14,1.47,1.38-.73,1.96-2.23,1.96-3.73,0-2.1-.82-.59,2.19-.59.58,0,1.17-.05,1.74-.05.75,0,1.06.21,1.88.69-.56-1.6-1.73-2.9-3.32-3.63-.26-.12-.45-.36-.45-.6,0-.49,1.55-1.36,1.55-2.81,0-.1,0-.2-.02-.3-1.22.99-2.67,1.4-4.17,1.4-5.33,0-9.31-4.25-9.31-7.77,0-2.63,2.29-6.12,5.24-6.12,1.98,0,3.57,1.4,3.57,3.47,0,1.64-1.13,2.51-2.27,2.51s-1.85-.85-1.85-1.9c0-.41.11-.82.26-1.22-.18-.04-.36-.07-.47-.07-1.52,0-2.33,1.63-2.33,2.69,0,2,2.76,1.08,2.76,1.77,0,.07.06.14.06.21,0,0-.63.62-.63,1.53,0,1.19.96,2.15,2.05,2.15.52,0,1.2-.24,1.2-1.03,0-.38-.12-.82-.12-1.21,0-.57.35-.82.83-.82,1.32,0,.2,2.88,3.1,2.88.81,0,1.52-.52,1.52-1.27,0-1.14-1.22-1.85-1.22-2.59s.75-1.2,1.36-1.2c1.09,0,1.32,1.55,2.72,1.55,1.2,0,2.4-.92,2.4-2.11,0-2.67-3.13-.94-3.13-2.95,0-.55.39-1.07.82-1.07.1,0,1.02.37,1.76.37,2.05,0,2.53-2.23,4.16-3.43-1.63-1.2-2.11-3.43-4.16-3.43-.74,0-1.66.37-1.76.37-.43,0-.82-.52-.82-1.07,0-2,3.13-.28,3.13-2.95,0-1.18-1.2-2.11-2.4-2.11-1.4,0-1.63,1.55-2.72,1.55-.61,0-1.36-.45-1.36-1.2s1.22-1.45,1.22-2.59c0-.75-.72-1.27-1.52-1.27-2.91,0-1.78,2.88-3.1,2.88-.48,0-.83-.25-.83-.82,0-.39.12-.82.12-1.21,0-.79-.68-1.03-1.2-1.03-1.1,0-2.05.96-2.05,2.15,0,.9.63,1.53.63,1.53,0,.07-.06.14-.06.21,0,.69-2.76-.24-2.76,1.77,0,1.06.81,2.7,2.33,2.7.11,0,.29-.03.47-.07-.15-.39-.26-.8-.26-1.22,0-1.05.75-1.9,1.85-1.9s2.27.87,2.27,2.51c0,2.07-1.59,3.48-3.57,3.48-2.96,0-5.24-3.5-5.24-6.13,0-3.52,3.98-7.77,9.31-7.77,1.49,0,2.95.4,4.17,1.39.01-.1.02-.2.02-.3,0-1.45-1.55-2.32-1.55-2.81,0-.24.19-.48.45-.6,1.6-.73,2.76-2.03,3.32-3.63-.82.48-1.13.69-1.88.69-.57,0-1.16-.05-1.74-.05-3.01,0-2.19,1.51-2.19-.59,0-1.5-.58-3-1.96-3.72.1.48.14.97.14,1.47,0,4.81-5.14,7.89-9.2,7.89-5.12,0-7.08-4.15-7.08-6.99,0-2.31,1.49-5.27,3.75-5.27,1.61,0,3.38,1.3,3.38,2.96,0,.93-.73,2.28-2.18,2.28-2.05,0-2.12-1.95-2.12-.59,0,1.47,1.57,2.74,2.93,2.74,1.51,0,1.54-1.26,1.54-.6,0,.27-.07.54-.07.81,0,.99,1.23,1.34,1.98,1.34,1.04,0,1.57-.57,1.57-1.24,0-1.16-1.75-1.65-1.75-2.45,0-.45.51-.7.96-.7s.94.2,1.4.2c1.06,0,2.09-.83,2.09-1.93,0-.64-.38-1.09-1.16-1.09-.22,0-.45.03-.67.03-.79,0-1.18-.49-1.18-1.09,0-2.12,3.43-.33,3.43-2.45,0-.6-.68-1.37-1.69-1.37-1.07,0-1.49.62-2.01.62-.77,0-1.39-1.1-1.39-1.9,0-1.76,2.3-1.43,2.3-4.75,0-.84-.18-1.71-.45-2.52-.81,1.9-3.2.89-4.97,1.81-.76.4-1.08,1.58-2,1.58-.53,0-.77-.35-.77-.67Z"/>
      <path d="M131.53,131.53c-.72-.12-1.5-.25-1.5-1.36,0-.05,0-.09,0-.14.05,0,.09,0,.14,0,1.11,0,1.24.78,1.36,1.5Z"/>
      <path d="M68.47,68.47c.72.12,1.5.25,1.5,1.36,0,.05,0,.09,0,.14-.05,0-.09,0-.14,0-1.11,0-1.24-.78-1.36-1.5Z"/>
      <path d="M138.48,138.48c-.42.17-.78.54-.78,1.12,0,.33.1.66.1.99,0,.72-.42,1.33-1.31,1.33-1.36,0-2.4-1.09-2.4-2.21s.75-1.88.75-2.3c0-.37-.31-.71-.62-.96-.21-.16-.45-.26-.71-.26-.98,0-.91,1.12-1.61,1.12-.64,0-1.78-.49-1.78-1.89,0-2.78,2.27-1.78,2.57-2.72.94-.3-.07-2.57,2.72-2.57,1.4,0,1.89,1.14,1.89,1.78,0,.7-1.12.64-1.12,1.61,0,.25.1.5.26.71.24.31.58.62.96.62.42,0,1.2-.75,2.3-.75s2.21,1.03,2.21,2.4c0,.89-.61,1.31-1.33,1.31-.33,0-.66-.1-.99-.1-.58,0-.95.36-1.12.78Z"/>
      <path d="M61.51,61.51c.42-.17.78-.54.78-1.12,0-.33-.1-.66-.1-.99,0-.72.42-1.33,1.31-1.33,1.36,0,2.4,1.08,2.4,2.21s-.76,1.88-.76,2.31c0,.37.31.71.62.95.21.16.45.26.7.26.98,0,.91-1.12,1.61-1.12.64,0,1.78.5,1.78,1.89,0,2.78-2.28,1.77-2.57,2.72-.94.3.07,2.57-2.72,2.57-1.39,0-1.89-1.15-1.89-1.78,0-.7,1.12-.63,1.12-1.61,0-.25-.1-.5-.26-.71-.24-.31-.58-.62-.95-.62-.42,0-1.21.75-2.31.75s-2.21-1.03-2.21-2.39c0-.89.61-1.31,1.32-1.31.33,0,.66.1,1,.1.58,0,.95-.36,1.12-.78Z"/>
      <path d="M148.02,147.67c0,.11-.01.22-.04.32-.1.02-.21.04-.32.04-.98,0-.92-.74-1.09-1.45.71.17,1.45.11,1.45,1.09ZM154.16,151.7c-.34.19-.75.29-1.11.29-1.42,0-2.57-1.47-2.57-3.01,0-1.45,1.27-3.4,3.06-3.4,1.91,0,3.78,1.65,3.78,4.21,0,2.15-1.17,3.65-2.87,4.65-1,1.71-2.5,2.87-4.65,2.87-2.56,0-4.21-1.87-4.21-3.78,0-1.79,1.94-3.06,3.4-3.06,1.54,0,3.01,1.15,3.01,2.57,0,.37-.1.78-.29,1.11.63-.05,1.06-.53,1.33-1.13.6-.27,1.08-.7,1.13-1.33ZM158.23,157.32c0-1.04-.5-1.38-.5-1.86,0-.57.57-1.08,1.15-1.08,1.32,0,1.48,1.78,3.1,1.78,1.8,0,3.05-1.67,3.05-3.4,0-3.81-4.21-1.37-4.21-4.14,0-.54.26-1.01.84-1.01.01,0,.35.02.6.02,1.51,0,2.55-.49,2.55-2,0-1.81-1.81-2.99-2.67-2.99s-1.65.84-2.55.84c-.71,0-1.3-.79-1.3-1.29,0-.75.94-1.24.94-1.93,0-.56-.73-1.87-2.31-1.87-3.3,0-.92,3.33-2.93,3.33-2.17,0-.2-2.79-3-2.79-1.26,0-1.97.75-1.97,1.52s.87,1.59.87,2.29c0,.49-.5.82-1.01.82-.89,0-1.42-.89-2.24-.89-.96,0-1.33.97-1.33,1.93,0,.31.03.58.08.79-.22-.05-.48-.08-.79-.08-.95,0-1.93.37-1.93,1.33,0,.82.89,1.35.89,2.24,0,.52-.34,1.01-.82,1.01-.7,0-1.49-.86-2.29-.86s-1.52.71-1.52,1.97c0,2.8,2.79.83,2.79,3,0,2-3.33-.37-3.33,2.93,0,1.57,1.3,2.31,1.87,2.31.7,0,1.18-.94,1.93-.94.5,0,1.29.59,1.29,1.3,0,.9-.84,1.65-.84,2.55s1.19,2.67,2.99,2.67c1.52,0,2-1.05,2-2.55,0-.25-.02-.59-.02-.6,0-.57.47-.84,1.01-.84,2.77,0,.33,4.21,4.14,4.21,1.73,0,3.4-1.26,3.4-3.05,0-1.61-1.78-1.78-1.78-3.1,0-.58.51-1.15,1.08-1.15.48,0,.82.5,1.86.5.28,0,.54-.05.77-.14.09-.24.14-.49.14-.77Z"/>
      <path d="M51.97,52.33c0-.11.01-.22.04-.32.1-.02.21-.04.32-.04.98,0,.92.74,1.09,1.45-.71-.17-1.45-.11-1.45-1.09ZM45.84,48.3c.34-.19.75-.29,1.11-.29,1.42,0,2.57,1.47,2.57,3.01,0,1.46-1.27,3.4-3.07,3.4-1.91,0-3.77-1.65-3.77-4.21,0-2.15,1.17-3.65,2.87-4.65,1-1.71,2.5-2.87,4.65-2.87,2.56,0,4.21,1.87,4.21,3.77,0,1.79-1.94,3.07-3.4,3.07-1.54,0-3.01-1.16-3.01-2.57,0-.37.1-.78.29-1.11-.63.06-1.06.53-1.33,1.13-.6.27-1.07.7-1.13,1.33ZM41.77,42.69c0,1.04.5,1.37.5,1.85,0,.57-.57,1.08-1.15,1.08-1.32,0-1.48-1.78-3.1-1.78-1.8,0-3.05,1.67-3.05,3.4,0,3.81,4.21,1.37,4.21,4.14,0,.54-.26,1.01-.85,1.01,0,0-.34-.02-.59-.02-1.51,0-2.55.49-2.55,2,0,1.81,1.8,2.99,2.67,2.99s1.65-.84,2.55-.84c.7,0,1.3.79,1.3,1.29,0,.75-.94,1.24-.94,1.93,0,.57.74,1.87,2.31,1.87,3.3,0,.93-3.33,2.93-3.33,2.17,0,.2,2.79,3,2.79,1.26,0,1.97-.76,1.97-1.52s-.86-1.59-.86-2.3c0-.49.49-.82,1.01-.82.89,0,1.42.89,2.24.89.96,0,1.33-.97,1.33-1.93,0-.31-.03-.57-.08-.79.22.05.48.08.79.08.95,0,1.93-.37,1.93-1.33,0-.82-.89-1.35-.89-2.24,0-.52.34-1.01.82-1.01.7,0,1.5.86,2.3.86s1.52-.71,1.52-1.97c0-2.8-2.79-.83-2.79-3,0-2,3.33.38,3.33-2.93,0-1.57-1.3-2.31-1.87-2.31-.69,0-1.18.94-1.93.94-.5,0-1.29-.59-1.29-1.3,0-.9.84-1.66.84-2.55s-1.19-2.67-2.99-2.67c-1.51,0-2,1.05-2,2.55,0,.25.02.6.02.6,0,.57-.47.84-1.01.84-2.77,0-.33-4.21-4.14-4.21-1.73,0-3.4,1.25-3.4,3.05,0,1.61,1.78,1.78,1.78,3.1,0,.58-.51,1.15-1.08,1.15-.48,0-.81-.5-1.85-.5-.28,0-.54.05-.77.14-.09.23-.14.49-.14.77Z"/>
    </g>
  </g>
</svg>