<?xml version="1.0" encoding="UTF-8"?>
<svg id="_Слой_2" data-name="Слой 2" xmlns="http://www.w3.org/2000/svg" viewBox="0 0 200 200">
  <defs>
    <style>
      .cls-1 {
        fill: #181818;
      }

      .cls-2 {
        fill: none;
      }
    </style>
  </defs>
  <g id="elements">
    <g>
      <path class="cls-2" d="M98.22,98.64l.64.64c-.13.17-.21.36-.23.57h-.9c.03-.45.21-.87.5-1.2Z"/>
      <path class="cls-2" d="M101.36,91.73c0,1.54-.7,2.68-1.36,3.99-.73-1.47-2.83-5.41,0-6.13.91.23,1.36.93,1.36,2.14Z"/>
      <path class="cls-2" d="M92.57,58.62c3.99-1.46,6.42-3.15,7.43-5.16,1.01,2.02,3.44,3.71,7.43,5.16-3.39,2.21-6.01,5.7-7.43,9.87-1.42-4.18-4.04-7.66-7.43-9.87,3.99-1.46,3.39,2.21,0,0Z"/>
      <path class="cls-2" d="M98.86,100.71l-.64.64c-.29-.34-.47-.76-.5-1.2h.9c.03.21.11.4.23.56Z"/>
      <path class="cls-2" d="M99.85,99.42l-.35-.35c.1-.07.22-.12.35-.15v.49Z"/>
      <polygon class="cls-2" points="100.15 100.08 100.04 99.96 100 100 99.96 99.96 99.85 100.08 99.85 99.85 100.15 99.85 100.15 100.08"/>
      <path class="cls-2" d="M98.65,98.22c.34-.29.76-.46,1.2-.5v.9c-.21.03-.4.11-.56.23l-.64-.64Z"/>
      <path class="cls-2" d="M93.12,50.45c-1.04-.24.48-3.21.81-3.51-4.39,2.1-9.39,2.2-14.15,2.46-.83.07-1.67.18-2.49.35,1.38,2.29,3.36,4.09,5.69,5.39.56.28,1.11.53,1.69.77.7.25,1.4.48,2.13.62,2.94-2.76,8.18-.6,10.96-3.48,1.55-1.61,1.09-5.37-1.62-5.37-1.28,0-2.67,2.83-3,2.76-.18-.04.16.03,0,0ZM96.25,49.03c1.58,0,1.58,2.45,0,2.45s-1.58-2.45,0-2.45Z"/>
      <path class="cls-2" d="M84.73,72.88c0,5.12-7.14,3.1-9.17.78-3.11-3.54-2.62-8.19.23-11.64,1.27,2.11,1.56,4.77,1.48,7.18,0,5.04,7.86,7.41,7.04,2.45.36.4.43.92.43,1.23Z"/>
      <path class="cls-2" d="M100.5,99.07l-.35.35v-.49c.13.02.25.07.35.14Z"/>
      <path class="cls-2" d="M90.33,63.82c0-1.75.37-3.08,1.13-4.04,9.12,5.91,9.19,18.57,6.83,27.98-1.83-1.76-4.29-.22-4.07,2.06.25,2.63,2.33,5.48,4.12,7.27h0c-.21.21-.41.41-.62.62h0c-.21.21-.41.41-.62.62h0c-1.89-1.76-4.58-3.86-7.27-4.12-2.28-.22-3.82,2.25-2.06,4.07-9.41,2.36-22.06,2.3-27.98-6.83,3.52-2.78,8.43.36,12.33-1.25,4.21-1.74,6.06-5.93,5.19-10.25,1.72,1.83,2.99,4.35,3.47,6.86-3.23-.79-5.12,2.47-2.95,4.83,3.19,3.46-3.28,4.71-3.54,1.32h-.3c0,5.31,6.27,3.06,7.79,0,1.96-3.96.24-9.6-2-13.1l.06-.06h0l.06-.06c3.5,2.24,9.14,3.97,13.1,2,3.05-1.51,5.3-7.79,0-7.79v.3c3.32.25,2.12,5.92-.49,4.24-2.25-1.45-6.9-2.73-5.68,2.25-2.51-.48-5.03-1.75-6.86-3.47,3.14.62,6.19,0,8.45-2.41,3.24-3.45,1.92-6.9,1.92-11.07Z"/>
      <path class="cls-2" d="M69.2,77.26c-2.41.08-5.07-.21-7.18-1.48,3.45-2.85,8.1-3.34,11.64-.23,1.52,1.34,2.5,3.25,2.5,5.29,0,1.82-2.32,5.47-4.51,3.46,4.96.83,2.6-7.04-2.45-7.04Z"/>
      <path class="cls-2" d="M98.64,108.27c0-1.53.7-2.68,1.36-3.99.74,1.47,2.82,5.41,0,6.13-.91-.23-1.36-.93-1.36-2.14Z"/>
      <path class="cls-2" d="M95.12,99.68c.21.11.4.22.6.32-1.47.73-5.41,2.83-6.13,0,.63-2.47,4.14-1.09,5.53-.32.21.11-.87-.48,0,0Z"/>
      <path class="cls-2" d="M107.43,141.38c-3.99,1.46-6.42,3.15-7.43,5.16-1.01-2.02-3.44-3.71-7.43-5.16,3.39-2.21,6.01-5.7,7.43-9.87,1.42,4.18,4.04,7.66,7.43,9.87-3.99,1.46-3.39-2.21,0,0Z"/>
      <path class="cls-2" d="M101.78,98.65c.29.34.46.76.5,1.2h-.9c-.03-.21-.11-.4-.23-.56l.64-.64Z"/>
      <path class="cls-2" d="M99.07,99.5l.35.35h-.5c.02-.13.07-.25.14-.35Z"/>
      <path class="cls-2" d="M53.45,100c2.02-1.01,3.71-3.44,5.16-7.43,2.21,3.39,5.7,6.01,9.87,7.43-4.18,1.42-7.66,4.04-9.87,7.43-1.45-3.99-3.15-6.42-5.16-7.43,2.02-1.01,2.02,1.01,0,0Z"/>
      <path class="cls-2" d="M146.55,100c-2.01,1.01-3.71,3.44-5.16,7.43-2.21-3.39-5.7-6.01-9.87-7.43,4.18-1.42,7.66-4.04,9.87-7.43,1.46,3.99,3.15,6.42,5.16,7.43-2.01,1.01-2.01-1.01,0,0Z"/>
      <path class="cls-2" d="M99.28,101.14c.16.13.36.21.56.23v.9c-.45-.03-.87-.21-1.2-.5l.64-.64Z"/>
      <path class="cls-2" d="M110.41,100c-.72,2.82-4.66.74-6.13,0,1.47-.73,5.41-2.83,6.13,0-.23.91-.23-.91,0,0Z"/>
      <path class="cls-2" d="M102.28,100.15c-.03.45-.21.87-.5,1.2l-.64-.64c.13-.17.21-.36.23-.57h.9Z"/>
      <path class="cls-2" d="M101.35,101.78c-.34.29-.76.46-1.2.5v-.9c.21-.03.4-.11.56-.23l.64.64Z"/>
      <path class="cls-2" d="M99.5,100.93l.35-.35v.5c-.13-.02-.25-.07-.35-.14Z"/>
      <path class="cls-2" d="M100.15,100.57l.35.35c-.1.07-.22.12-.35.15v-.5Z"/>
      <path class="cls-2" d="M101.07,99.85h-.5l.35-.35c.07.1.12.22.15.35Z"/>
      <path class="cls-2" d="M100.93,100.5l-.35-.35h.5c-.02.13-.07.24-.14.35Z"/>
      <path class="cls-2" d="M100.72,98.86c-.17-.13-.36-.21-.57-.23v-.9c.45.03.87.21,1.2.5l-.64.64Z"/>
      <polygon class="cls-2" points="100 100.07 100.08 100.15 99.92 100.15 100 100.07"/>
      <path class="cls-2" d="M98.93,100.15h.5l-.35.35c-.07-.1-.12-.22-.15-.35Z"/>
      <polygon class="cls-2" points="175.65 100.15 175.65 100.14 175.68 100.14 175.65 100.15"/>
      <path class="cls-2" d="M53.29,80.27c-1.01-1.17-2.21-2.19-3.54-2.99-.17.82-.28,1.65-.35,2.49-.25,4.75-.34,9.78-2.46,14.15.3-.32,3.27-1.84,3.51-.8.23,1.07-4.17,1.52-2.39,4.3,1.03,1.61,3.71,1.56,4.99.33,2.89-2.77.72-8.01,3.48-10.96-.15-.73-.38-1.43-.62-2.13-.25-.58-.49-1.13-.77-1.69-.54-.96-1.14-1.87-1.85-2.7-.51-.59.51.59,0,0ZM50.25,97.47c-1.58,0-1.58-2.44,0-2.44s1.58,2.44,0,2.44Z"/>
      <polygon class="cls-2" points="175.65 99.86 175.65 99.85 175.68 99.86 175.65 99.86"/>
      <path class="cls-2" d="M33.58,99.5c-.09-.06-.17-.12-.25-.18-.17-.13-.33-.25-.5-.38-.08-.06-.16-.13-.24-.2l-.48-.4c-.19-.17-.38-.35-.57-.52-.19-.19-.37-.37-.56-.56-.08-.07-.14-.15-.21-.23l-.26-.3c.09-.03.18-.07.27-.1l.51-.17c.29-.08.58-.18.87-.23l.71-.15c.3-.04.6-.1.9-.13.3-.03.6-.05.9-.07.36-.01.73-.02,1.09-.03l.72.02c.24,0,.48.03.72.05l.36.03c.3.02.6.09.89.14.06,0,.12.03.18.04.2.05.41.1.61.15.26.08.51.16.77.25l.33.13c.11.05.23.08.33.14.43.2.86.43,1.26.69l.3.2.29.21c.94.66,1.78,1.45,2.72,2.11-.94.65-1.78,1.45-2.72,2.1l-.29.21-.3.2c-.4.26-.83.48-1.26.69-.11.06-.22.09-.33.14l-.33.13c-.23.08-.46.15-.68.22l-.09.03-.09.02c-.23.05-.47.12-.7.16-.29.05-.59.12-.89.14l-.36.03c-.24.02-.48.05-.72.05l-.72.02c-.36,0-.73-.02-1.09-.03-.3-.03-.6-.05-.9-.07-.3-.03-.6-.08-.9-.13l-.71-.15c-.29-.05-.59-.15-.87-.23-.17-.06-.34-.12-.51-.17-.09-.03-.18-.07-.27-.1l.26-.3c.07-.08.13-.16.21-.23.18-.19.37-.37.56-.56.19-.17.38-.35.57-.52l.48-.4c.08-.07.16-.13.24-.2.17-.13.33-.25.5-.38.24-.17.48-.35.72-.52l.45.02-.24-.18.24-.18-.45.02c-.15-.12-.31-.23-.47-.34-.09-.06.16.11,0,0Z"/>
      <path class="cls-2" d="M47.81,82.86c-.09,1.21-.21,2.41-.37,3.61-1.52-2.46-4.01-4.12-6.87-2.87-2.81,1.22,1.01,1.59,1.75,2.75,2.29,3.6-3.78,4.1-5.8,3.13-2.51-1.21-3.2-4.18-3.64-6.67,4.07,1.57,5.68-3.22,4.13-6.18h0c.68-.27,1.37-.5,2.07-.71.25-.07.51-.14.79-.21.98-.21,1.95-.38,2.96-.4h.05c.37,0,.74.03,1.11.06-1.09,3.16.44,5.38,3.98,5.07-.05.81-.11,1.63-.17,2.44-.09,1.2.04-.6,0,0Z"/>
      <path class="cls-2" d="M39.45,90.57c4.26,0,5.08-6,.63-6.15,2.93-2.03,5.8.24,7.23,2.85-.24,1.49-.58,2.96-1.01,4.41-.6,1.76-1.31,3.48-2.45,4.97-2.32-2.14-4.96-4.61-8.35-4.61-.11,0-.21,0-.32,0h-.03c-.23,0-.46.01-.69.02-.26.02-.52.04-.78.06-.26.03-.52.07-.77.11-.21.04-.43.09-.64.13-.13.03-.25.07-.38.1-1.1.31-2.13.78-3.08,1.41-.04-.09-.08-.21-.13-.34-.27-.72-.45-1.5-.53-2.26-.55-3.7.99-7.5,3.23-10.37.18-.22.37-.44.55-.66.81,4.66,1.52,10.34,7.52,10.34Z"/>
      <path class="cls-2" d="M45.13,103.18c-.17-.2-.32-.39-.46-.55,1.01-.91,2.26-1.55,3.24-2.44l.5.1-.3-.29.3-.29-.5.1c-1.02-.92-2.24-1.44-3.24-2.44.57-.63,1.07-1.31,1.51-2.04-.51,2.01,1.12,3.87,2.83,4.68-1.7.81-3.33,2.66-2.83,4.67-.36-.59-.73-1.09-1.05-1.49-.17-.2.32.4,0,0Z"/>
      <path class="cls-2" d="M30.12,96.89l.37.42c.07.08.14.17.22.24.19.18.38.37.56.55.2.18.4.35.6.53.24.2.49.41.75.6.17.13.34.25.51.38.12.09.24.17.36.25-1.1,0-2.3.16-3.39-.04h.07c-.26-.15-.53-.27-.81-.38l-.82-.35c-.07-.03-.13-.06-.2-.09-.2-.1-.4-.19-.6-.29-.17-.09-.34-.18-.51-.27.93-.57,1.88-1.12,2.89-1.54Z"/>
      <path class="cls-2" d="M187.09,98.82c.33-.11.66-.18,1-.18.08,0,.18,0,.25.01h.12s.12.03.12.03c.33.08.62.23.87.46.36.3.73.59,1.11.86-.38.27-.75.56-1.11.86-.25.22-.54.38-.87.46l-.12.02h-.12c-.08.02-.18.02-.25.02-1.41-.02-2.61-.97-3.93-1.36.99-.36,1.97-.75,2.93-1.18.33-.11-.66.21,0,0Z"/>
      <path class="cls-2" d="M105.22,18.96h.01s.06-.01.06-.01h0s0,.02,0,.02h-.07s-.06-.06,0,0Z"/>
      <path class="cls-2" d="M18.96,94.78h0s-.01-.08-.01-.08h0s.02,0,.02,0v.07s-.07.06,0,0Z"/>
      <path class="cls-2" d="M94.78,181.04h-.01s-.07.01-.07.01h0s0-.02,0-.02h.07s.06.07,0,0Z"/>
      <path class="cls-2" d="M181.04,105.22h0s.01.08.01.08h0s-.02,0-.02,0v-.07s.06-.06,0,0Z"/>
      <path class="cls-2" d="M109.67,136.18c0,1.75-.37,3.07-1.13,4.04-9.12-5.91-9.19-18.57-6.83-27.98,1.83,1.76,4.29.22,4.08-2.06-.25-2.63-2.33-5.48-4.12-7.27h0c.2-.21.41-.41.62-.62h0c.21-.21.42-.41.62-.62h0c1.79,1.79,4.64,3.87,7.27,4.12,2.28.22,3.82-2.25,2.07-4.07,9.41-2.36,22.06-2.3,27.98,6.83-3.53,2.78-8.42-.37-12.33,1.25-4.22,1.74-6.05,5.93-5.19,10.25-1.72-1.83-2.99-4.35-3.47-6.86,3.23.79,5.12-2.47,2.95-4.83-3.19-3.45,3.28-4.72,3.54-1.32h.3c0-5.31-6.28-3.06-7.79,0-1.96,3.96-.24,9.6,2.01,13.1l-.06.06h0l-.06.06c-3.5-2.24-9.14-3.97-13.1-2-3.05,1.51-5.3,7.79,0,7.79v-.3c-3.32-.25-2.12-5.93.49-4.24,2.25,1.46,6.9,2.73,5.68-2.24,2.51.48,5.03,1.75,6.86,3.47-3.14-.63-6.19,0-8.45,2.41-3.24,3.45-1.92,6.9-1.92,11.07Z"/>
      <path class="cls-2" d="M127.95,84.33c.13,0,.26,0,.39-.03-3.78,3.47-4.9-5.23-3.05-7.64,3.24-4.21,8.87-4.03,12.68-.88-2.11,1.27-4.77,1.55-7.18,1.48-4.11,0-8.24,7.07-2.84,7.07Z"/>
      <path class="cls-2" d="M115.27,127.12c0-5.12,7.14-3.1,9.17-.78,3.11,3.54,2.62,8.19-.23,11.64-1.27-2.11-1.56-4.77-1.48-7.18,0-5.04-7.86-7.41-7.04-2.45-.36-.4-.43-.92-.43-1.23Z"/>
      <path class="cls-2" d="M130.8,122.73c2.42-.08,5.07.21,7.18,1.48-3.45,2.85-8.1,3.34-11.64.23-1.52-1.34-2.5-3.25-2.5-5.29,0-1.82,2.32-5.47,4.51-3.46-4.96-.83-2.59,7.04,2.45,7.04Z"/>
      <path class="cls-2" d="M125.11,88.42c4.66,4.38,10.68-.46,15.11,3.05-5.91,9.12-18.57,9.19-27.98,6.83,1.75-1.83.22-4.29-2.07-4.07-2.63.25-5.48,2.33-7.27,4.12h0c-.21-.2-.41-.41-.62-.62h0c-.21-.21-.41-.41-.62-.62h0c1.76-1.89,3.86-4.58,4.12-7.27.22-2.28-2.25-3.82-4.08-2.06-2.36-9.41-2.3-22.07,6.83-27.98,2.78,3.52-.37,8.42,1.25,12.33,1.74,4.22,5.93,6.05,10.25,5.19-1.83,1.72-4.35,2.99-6.86,3.47.79-3.23-2.47-5.12-4.83-2.95-3.46,3.19-4.71-3.28-1.33-3.54v-.3c-5.31,0-3.06,6.28,0,7.79,3.96,1.96,9.6.24,13.1-2l.06.06h0l.06.06c-2.24,3.5-3.97,9.14-2,13.1,1.51,3.05,7.79,5.3,7.79,0h-.3c-.25,3.32-5.92,2.12-4.24-.49,1.45-2.25,2.73-6.9-2.25-5.68.48-2.51,1.75-5.03,3.47-6.86-.63,3.14,0,6.19,2.41,8.45,1.65,1.55-1.73-1.62,0,0Z"/>
      <path class="cls-2" d="M122.73,68.63c0-2.75.5-4.97,1.48-6.61,2.85,3.45,3.34,8.1.23,11.64-1.34,1.52-3.25,2.5-5.29,2.5-1.82,0-5.47-2.32-3.46-4.51-.77,5.05,7.04,2.52,7.04-2.45,0-.19,0-.38,0-.58Z"/>
      <path class="cls-2" d="M106.08,46.94c.32.3,1.84,3.27.8,3.51-1.07.23-1.52-4.17-4.3-2.39-1.61,1.03-1.56,3.71-.33,4.99,2.77,2.88,8.02.72,10.96,3.48.73-.15,1.43-.38,2.13-.62.58-.24,1.13-.49,1.69-.77,2.32-1.3,4.31-3.1,5.69-5.39-.82-.17-1.65-.28-2.49-.35-.15-.01-.3-.02-.44-.03-4.59-.19-9.49-.39-13.7-2.43.62.58.35.17,0,0ZM103.76,51.48c-1.58,0-1.58-2.45,0-2.45s1.58,2.45,0,2.45Z"/>
      <path class="cls-2" d="M106.88,149.55c1.04.24-.48,3.21-.8,3.51,4.21-2.04,9.11-2.24,13.71-2.43.15,0,.3-.02.44-.03.83-.07,1.67-.18,2.49-.35-1.39-2.29-3.36-4.09-5.69-5.39-.56-.28-1.11-.53-1.69-.77-.7-.25-1.4-.48-2.13-.62-2.94,2.76-8.18.6-10.96,3.48-1.55,1.61-1.09,5.37,1.62,5.37,1.28,0,2.67-2.83,3-2.76.18.04-.16-.03,0,0ZM103.75,150.97c-1.58,0-1.58-2.45,0-2.45s1.58,2.45,0,2.45Z"/>
      <path class="cls-2" d="M102.64,44.66c.63.57,1.31,1.07,2.04,1.52-2.01-.51-3.87,1.12-4.68,2.83-.8-1.7-2.66-3.33-4.67-2.83.73-.44,1.41-.95,2.04-1.51.91,1.01,1.55,2.26,2.44,3.24l-.1.5.29-.3.29.3-.1-.5c.92-1.02,1.44-2.24,2.44-3.24.16.15-.02.02,0,0Z"/>
      <path class="cls-2" d="M93.92,153.06c-.32-.3-1.84-3.27-.8-3.51,1.07-.23,1.52,4.17,4.3,2.39,1.61-1.03,1.56-3.71.33-4.99-2.77-2.88-8.01-.72-10.95-3.48-.73.14-1.43.37-2.13.62-.58.25-1.13.49-1.69.77-2.33,1.3-4.3,3.1-5.69,5.39.82.17,1.65.28,2.49.35.15.01.3.02.44.03,4.59.19,9.5.39,13.7,2.43-.62-.58-.35-.17,0,0ZM96.24,148.52c1.58,0,1.58,2.45,0,2.45s-1.58-2.45,0-2.45Z"/>
      <path class="cls-2" d="M72.05,115.67c-.13,0-.26,0-.39.03,3.78-3.47,4.9,5.23,3.05,7.64-3.24,4.21-8.87,4.03-12.68.88,2.11-1.27,4.77-1.55,7.18-1.48,4.11,0,8.24-7.07,2.84-7.07Z"/>
      <path class="cls-2" d="M77.27,131.37c0,2.75-.5,4.97-1.48,6.61-2.85-3.45-3.34-8.1-.23-11.64,1.34-1.52,3.25-2.5,5.29-2.5,1.82,0,5.47,2.32,3.46,4.51.83-4.96-7.04-2.59-7.04,2.45,0,.19,0,.38,0,.58Z"/>
      <path class="cls-2" d="M97.36,155.34c-.63-.57-1.31-1.07-2.04-1.51,2.01.51,3.87-1.12,4.68-2.83.81,1.7,2.66,3.33,4.67,2.83-.73.44-1.41.95-2.04,1.51-.91-1.01-1.55-2.25-2.44-3.24l.1-.5-.29.3-.29-.3.1.5c-.89,1-1.53,2.23-2.44,3.24-.16-.15.02-.02,0,0Z"/>
      <path class="cls-2" d="M74.89,111.58c-4.67-4.38-10.67.45-15.11-3.05,5.91-9.12,18.57-9.19,27.98-6.83-1.76,1.83-.22,4.29,2.06,4.07,2.63-.25,5.48-2.33,7.27-4.12h0c.21.2.41.41.62.62h0c.21.21.41.41.62.62h0c-1.79,1.79-3.86,4.64-4.12,7.27-.22,2.28,2.25,3.82,4.08,2.06,2.36,9.41,2.3,22.06-6.83,27.98-2.78-3.53.37-8.42-1.25-12.33-1.74-4.22-5.93-6.05-10.25-5.19,1.83-1.72,4.35-2.99,6.86-3.47-.79,3.23,2.47,5.12,4.83,2.95,3.46-3.19,4.71,3.28,1.33,3.54v.3c5.31,0,3.06-6.28,0-7.79-3.96-1.96-9.6-.24-13.1,2l-.06-.06h0l-.06-.06c2.24-3.5,3.97-9.14,2-13.1-1.51-3.05-7.79-5.3-7.79,0h.3c.25-3.32,5.93-2.12,4.24.49-1.46,2.25-2.73,6.9,2.24,5.68-.48,2.51-1.75,5.03-3.47,6.86.63-3.14,0-6.19-2.41-8.45-1.65-1.55,1.73,1.62,0,0Z"/>
      <path class="cls-2" d="M160.55,90.07c-1.94,0-4.2-1.62-2.86-3.72.44-.69,2.9-1.32,2.9-1.81,0-3.96-7.31.77-8.03,1.93-.27-2.01-.4-4.03-.54-6.05,3.54.28,5.08-1.88,3.98-5.07.37-.03.74-.05,1.11-.06h.12c.98.03,1.93.19,2.89.4.28.07.54.15.79.21.7.21,1.39.44,2.07.71h0c-1.54,2.95.05,7.77,4.13,6.19-.69,3.88-1.82,7.26-6.58,7.26Z"/>
      <polygon class="cls-2" points="99.86 175.68 99.85 175.65 99.86 175.65 99.86 175.68"/>
      <path class="cls-2" d="M99.16,172.5c.13-.27.27-.55.4-.83.12-.28.25-.55.36-.83.03-.08.05-.15.08-.23,0,0,0,0,0,0l.08.22c.11.28.24.56.36.83.13.28.27.55.4.83.13.26.27.52.41.78-.35.55-.69,1.1-1.02,1.66l-.23.4-.23-.4c-.33-.56-.67-1.11-1.02-1.66.14-.26.28-.52.41-.78Z"/>
      <polygon class="cls-2" points="100.15 175.65 100.14 175.68 100.14 175.65 100.15 175.65"/>
      <path class="cls-2" d="M97.55,169.3c.18-.19.37-.37.55-.56.18-.2.35-.4.53-.6.2-.24.41-.49.6-.75.13-.17.25-.34.38-.51.09-.12.17-.24.25-.36,0,1.1.16,2.31-.04,3.39v-.07c-.15.26-.27.53-.38.81l-.35.82c-.03.07-.06.13-.09.2-.1.2-.19.4-.29.6-.09.17-.18.34-.27.51-.57-.93-1.12-1.88-1.54-2.89l.42-.37c.08-.07.17-.14.24-.22Z"/>
      <path class="cls-2" d="M95.92,162.8l.03-.36c.02-.3.09-.6.14-.89.04-.27.12-.53.18-.79.08-.26.16-.51.25-.77l.13-.33c.05-.11.08-.23.14-.33.2-.43.43-.86.69-1.26l.2-.3.21-.29c.66-.94,1.45-1.78,2.11-2.72.66.94,1.45,1.78,2.1,2.72l.21.29.2.3c.26.4.49.83.69,1.26.06.11.09.22.14.33l.13.33c.09.26.17.51.25.77.06.26.14.52.18.79.05.29.12.59.14.89l.03.36c.02.24.05.48.05.72l.02.72c0,.36-.01.73-.03,1.09-.02.3-.05.6-.07.9-.03.3-.09.6-.13.89l-.15.71c-.05.29-.15.58-.23.87-.06.17-.12.34-.17.51-.03.09-.07.18-.1.27l-.3-.26c-.08-.07-.16-.13-.23-.21-.19-.18-.37-.37-.56-.56-.17-.19-.35-.38-.52-.57l-.4-.48c-.07-.08-.13-.16-.2-.24-.13-.17-.25-.33-.38-.5-.17-.24-.35-.48-.52-.72l.02-.45-.18.24-.18-.24.02.45c-.17.24-.35.48-.52.72-.13.17-.25.33-.38.5-.06.08-.13.16-.2.24l-.4.48c-.17.19-.35.38-.52.57-.19.19-.37.37-.56.56-.07.08-.15.14-.23.21l-.3.26c-.03-.09-.07-.18-.1-.27-.06-.17-.12-.34-.17-.51-.08-.29-.18-.58-.23-.87l-.15-.71c-.04-.3-.1-.6-.13-.89-.02-.3-.05-.6-.07-.9-.01-.36-.02-.73-.03-1.09l.02-.72c0-.24.03-.48.05-.72Z"/>
      <path class="cls-2" d="M100,184.16c.39,1.32,1.34,2.52,1.36,3.93,0,.08,0,.18-.01.25v.12s-.03.12-.03.12c-.08.33-.23.62-.46.87-.3.36-.59.72-.86,1.11-.27-.38-.56-.75-.86-1.11-.22-.25-.38-.54-.46-.87l-.02-.12v-.12c-.02-.08-.02-.18-.02-.25.02-1.41.97-2.61,1.36-3.93.1.34-.1.34,0,0Z"/>
      <path class="cls-2" d="M116.93,165.7c0,.48.09.96.27,1.42-3.8-.67-7.26-2.16-7.26-6.58,0-1.94,1.62-4.2,3.72-2.86.69.44,1.32,2.9,1.81,2.9,3.96,0-.76-7.31-1.93-8.03,2.01-.27,4.03-.4,6.05-.54-.32,3.54,1.9,5.07,5.07,3.98.03.37.05.74.06,1.11v.05c-.02,1-.19,1.98-.4,2.96-.07.28-.15.54-.21.79-.22.7-.45,1.39-.71,2.07,0,0,0,0,0,0-2.41-1.26-6.45-.76-6.45,2.71Z"/>
      <path class="cls-2" d="M123.75,150.01c-1.31-2.62-3.67-4.72-6.17-6.16-.59-.32-1.19-.59-1.81-.86-.56-.21-1.12-.4-1.7-.56,1.04-1.78.55-7.42-2.69-4.89.37-4.77-2.07-13.36,5.35-14.06-1.31.55-2.33,1.72-2.54,3-2.58-.37-2.54,3.02-1.11,4.25,2.41,2.07,6.86.75,7.58-2.41,1.45,1.49,1.02,4.9.76,6.77-5.97-1-2.03,6.84.69,8.3,4.07,2.19,10.4,1.12,13.32-2.56-1.77,4.95-6.79,7.95-11.66,9.17-.01-.02.14-.03,0,0Z"/>
      <path class="cls-2" d="M135.38,132.97c0-1.5,2.89-2.26,2.89-.85,0,.76-2.2.61-1.12,1.87,1.03,1.19,2.71-.47,2.71-1.57,0-4.27-7.98-1.92-5.38,2.07-3.99-2.6-6.33,5.37-2.07,5.37,1.09,0,2.76-1.69,1.57-2.72-1.26-1.08-1.11,1.12-1.87,1.12-1.16,0-.65-2.02-.28-2.41,1.96-2.05,3.35,1.52,2.47,3.12-1.82,3.31-6.98,2.55-9.23.15,3.05-3.28,3.79-8.47,1.62-12.42h0s.01,0,.01,0c3.95,2.17,9.14,1.43,12.42-1.62,1.74,1.62,2.5,4.41,1.83,6.7-.6,2.04-5.58,4.89-5.58,1.18Z"/>
      <path class="cls-2" d="M142.61,133.43c2.31-3.58,2.81-9.12-.03-12.56-1.81-2.2-8.36-4.71-7.48.54-1.87.27-5.27.69-6.77-.76,3.16-.71,4.48-5.16,2.41-7.58-1.21-1.41-4.68-1.47-4.25,1.11-1.28.21-2.46,1.23-3.01,2.54.71-7.42,9.28-4.97,14.06-5.35-2.54,3.25,3.11,3.73,4.89,2.7.16.58.35,1.14.56,1.7.27.62.54,1.22.86,1.81,1.42,2.44,3.54,4.96,6.16,6.17-1.28,4.85-4.17,9.93-9.17,11.66.65-.51,1.24-1.18,1.76-1.99,1.2-1.86-.52.81,0,0Z"/>
      <path class="cls-2" d="M82.42,167.7c3.4-.57,7.26-1.63,8.01-5.53.99-5.21-5.83-7.42-6.01-2.26-2.03-2.93.24-5.8,2.85-7.23,1.49.24,2.95.59,4.4,1.01,1.76.6,3.48,1.31,4.97,2.45-2.14,2.32-4.6,4.96-4.6,8.35,0,.11,0,.21-.01.32v.03c0,.23.01.46.02.69.02.26.04.52.06.78.03.26.07.52.11.78.05.21.09.43.13.64.03.13.07.25.11.38.31,1.1.78,2.13,1.41,3.08-.09.04-.21.08-.34.13-.72.27-1.5.45-2.26.53-3.72.55-7.47-1.01-10.37-3.23-.22-.18-.43-.38-.66-.55.73-.12,1.46-.24,2.19-.36,4.13-.7-.34.06,0,0Z"/>
      <path class="cls-2" d="M103.86,155.79c2.65-1.77,5.76-2.61,8.88-3.11,2.61,1.43,4.87,4.3,2.85,7.23-.18-5.38-8.25-2.47-5.6,3.61,1.61,3.69,6.37,3.95,9.78,4.54-.22.18-.44.37-.66.55-2.89,2.23-6.65,3.78-10.37,3.23-.76-.08-1.54-.27-2.26-.53-.13-.04-.25-.09-.34-.13.63-.95,1.1-1.97,1.41-3.08.04-.13.07-.25.11-.38.04-.21.09-.43.13-.64.04-.26.08-.52.11-.78.02-.26.04-.52.06-.78,0-.23.01-.46.02-.69v-.03c0-.11,0-.21-.01-.32,0-3.38-2.46-6.03-4.6-8.35.14-.11.32-.23.5-.35.43-.29-.18.13,0,0Z"/>
      <path class="cls-2" d="M101,171.66c-.03-.07-.06-.13-.09-.2l-.35-.82c-.1-.28-.23-.55-.39-.81v.07c-.18-1.08-.03-2.29-.03-3.39.08.12.16.24.25.36.13.17.25.34.38.51.18.26.4.5.6.75.18.2.35.4.53.6.18.19.37.38.55.56.07.08.16.15.24.22l.42.37c-.43,1.01-.97,1.96-1.54,2.89-.09-.17-.18-.34-.27-.51-.1-.2-.19-.4-.29-.6Z"/>
      <path class="cls-2" d="M27.74,101.29c.2-.1.4-.19.6-.29.07-.03.13-.06.2-.09l.82-.35c.28-.1.55-.23.81-.39h-.07c1.08-.18,2.29-.03,3.39-.03-.12.08-.24.16-.36.25-.17.13-.34.25-.51.38-.26.18-.5.4-.75.6-.2.18-.4.35-.6.53-.19.18-.38.37-.56.55-.21.19-.4.44-.59.65-1.01-.42-1.96-.97-2.89-1.54.17-.09.34-.18.51-.27Z"/>
      <polygon class="cls-2" points="24.35 100.15 24.32 100.14 24.35 100.14 24.35 100.15"/>
      <path class="cls-2" d="M25.69,99.39l1.03-.64c.26.14.52.28.78.41.27.13.55.27.83.4.28.12.55.25.83.36.08.03.15.06.23.08-.08.03-.15.06-.23.08-.28.11-.56.24-.83.36-.28.13-.55.26-.83.4-.26.13-.52.27-.78.41-.55-.35-1.1-.69-1.66-1.02l-.4-.23.4-.23.63-.38Z"/>
      <polygon class="cls-2" points="24.35 99.86 24.32 99.86 24.35 99.85 24.35 99.86"/>
      <path class="cls-2" d="M57.39,66.57c-2.31,3.58-2.81,9.12.03,12.56,1.81,2.2,8.36,4.71,7.48-.54,1.86-.27,5.27-.69,6.77.76-3.16.71-4.48,5.16-2.41,7.58,1.23,1.43,4.62,1.47,4.25-1.11,1.28-.21,2.45-1.23,3-2.54-.7,7.42-9.28,4.97-14.06,5.35,2.54-3.25-3.11-3.74-4.89-2.7-.18-.57-.35-1.14-.56-1.7-.27-.62-.54-1.22-.86-1.81-1.44-2.5-3.54-4.86-6.16-6.17,1.21-4.84,4.21-9.94,9.17-11.66-.65.51-1.24,1.18-1.76,1.99-1.2,1.86.52-.81,0,0Z"/>
      <path class="cls-2" d="M10.13,99.47l.41-.33c.25-.23.54-.38.87-.46l.12-.02h.12c.08-.02.18-.02.25-.02,1.41.02,2.61.97,3.93,1.36-1.32.39-2.52,1.34-3.93,1.36-.08,0-.18,0-.25-.01h-.12s-.12-.03-.12-.03c-.33-.08-.62-.23-.87-.46-.36-.3-.72-.59-1.11-.86.24-.17.47-.34.7-.53Z"/>
      <path class="cls-2" d="M146.71,119.73c1.01,1.17,2.21,2.18,3.54,2.99.19-.82.29-1.65.35-2.49.01-.15.02-.3.03-.44.19-4.6.4-9.48,2.43-13.7-.3.32-3.27,1.84-3.51.8-.23-1.07,4.17-1.53,2.39-4.3-1.03-1.61-3.71-1.56-4.99-.33-2.87,2.76-.83,7.95-3.48,10.96.15.73.37,1.43.62,2.13.24.58.49,1.13.77,1.69.54.96,1.14,1.87,1.86,2.7.51.59-.51-.59,0,0ZM149.75,102.53c1.58,0,1.58,2.44,0,2.44s-1.58-2.44,0-2.44Z"/>
      <path class="cls-2" d="M39.45,109.93c1.94,0,4.2,1.62,2.86,3.72-.44.69-2.9,1.32-2.9,1.81,0,3.96,7.31-.76,8.03-1.93.27,2.01.4,4.03.54,6.05-3.54-.28-5.08,1.88-3.98,5.07-.37.03-.74.05-1.11.06h-.12c-.98-.03-1.93-.19-2.89-.4-.28-.07-.54-.15-.79-.21-.7-.21-1.39-.44-2.07-.71h0c1.55-2.95-.06-7.77-4.13-6.19.69-3.88,1.82-7.26,6.58-7.26Z"/>
      <path class="cls-2" d="M28.69,106.48c.04-.13.09-.25.13-.34.95.63,1.98,1.1,3.08,1.41l.25.07.13.03.64.14c.26.04.52.08.77.11.26.02.52.04.78.06.22,0,.43.01.65.02h.07c.11,0,.21,0,.32-.01,3.39,0,6.02-2.46,8.35-4.6,2.05,2.66,2.94,6.11,3.46,9.37-1.43,2.61-4.3,4.87-7.23,2.85,5.38-.18,2.47-8.25-3.61-5.6-3.69,1.61-3.94,6.37-4.54,9.78-.18-.22-.37-.43-.55-.66-2.23-2.89-3.78-6.65-3.23-10.37.08-.76.27-1.55.53-2.26.04-.13-.07.2,0,0Z"/>
      <path class="cls-2" d="M60.86,125.08c3.28,3.06,8.47,3.79,12.42,1.62h.01s0,0,0,0c-2.17,3.95-1.43,9.14,1.62,12.42-2.03,2.17-6.35,3.03-8.59.71-1.09-1.12-1.85-4.46.71-4.46,1.5,0,2.26,2.89.85,2.89-.76,0-.61-2.2-1.87-1.12-1.19,1.03.47,2.71,1.57,2.71,4.27,0,1.92-7.98-2.07-5.38,2.6-3.99-5.37-6.33-5.37-2.07,0,1.09,1.69,2.76,2.71,1.57,1.08-1.26-1.12-1.11-1.12-1.87,0-1.16,2.02-.65,2.41-.28,2.05,1.96-1.53,3.34-3.12,2.47-3.31-1.82-2.55-6.98-.15-9.23,1.96,1.83-1.35,1.27,0,0Z"/>
      <path class="cls-2" d="M66.57,142.61c3.58,2.31,9.12,2.81,12.56-.03,2.2-1.81,4.71-8.35-.54-7.48-.27-1.86-.69-5.27.76-6.77.71,3.16,5.16,4.48,7.58,2.41,1.43-1.23,1.47-4.62-1.11-4.25-.21-1.28-1.23-2.45-2.54-3,7.42.7,4.97,9.28,5.35,14.06-3.25-2.54-3.74,3.11-2.69,4.89-.58.17-1.14.36-1.7.56-.62.27-1.22.54-1.81.86-2.5,1.44-4.86,3.54-6.17,6.16-4.84-1.21-9.94-4.21-11.66-9.17.51.65,1.18,1.24,1.99,1.76,1.86,1.2-.81-.52,0,0Z"/>
      <path class="cls-2" d="M52.25,122.22c1.59-1.29,2.88-2.88,3.9-4.65.32-.59.59-1.19.86-1.81.21-.56.39-1.12.56-1.7,1.78,1.04,7.42.55,4.89-2.69,4.77.37,13.36-2.07,14.06,5.35-.55-1.31-1.72-2.33-3-2.54.37-2.57-3.02-2.54-4.25-1.11-2.07,2.41-.75,6.86,2.41,7.58-1.49,1.45-4.9,1.02-6.77.75,1-5.97-6.84-2.03-8.3.69-2.19,4.07-1.12,10.4,2.56,13.31-4.95-1.73-7.95-6.81-9.17-11.66.73-.37,1.62-1.01,2.26-1.53.68-.55-.68.55,0,0Z"/>
      <path class="cls-2" d="M46.94,106.08c2.11,4.38,2.21,9.4,2.46,14.15.07.83.18,1.67.35,2.49,2.29-1.39,4.09-3.36,5.39-5.69.29-.56.53-1.11.77-1.69.25-.7.48-1.4.62-2.13-2.76-2.94-.6-8.18-3.48-10.96-1.61-1.55-5.37-1.09-5.37,1.62,0,1.28,2.83,2.67,2.76,3-.24,1.04-3.21-.48-3.51-.81.17.35.58.63,0,0ZM49.03,103.75c0-1.58,2.45-1.58,2.45,0s-2.45,1.58-2.45,0Z"/>
      <path class="cls-2" d="M75.3,156.98c.01-.33.03-.65.06-.97,3.16,1.09,5.38-.44,5.07-3.98,2.02.14,4.04.27,6.05.54-2.46,1.52-4.12,4.01-2.87,6.87,1.22,2.81,1.59-1.01,2.75-1.74,3.6-2.29,4.1,3.78,3.13,5.79-1.21,2.51-4.18,3.2-6.67,3.64,1.57-4.07-3.22-5.68-6.18-4.13,0,0,0,0,0,0-.27-.68-.5-1.38-.72-2.07-.07-.25-.14-.51-.21-.79-.21-.98-.38-1.95-.4-2.96v-.19Z"/>
      <path class="cls-2" d="M102.46,30.7c-.18.19-.37.38-.55.56-.18.2-.35.4-.53.6-.2.24-.41.49-.6.74-.12.17-.25.34-.38.51-.08.12-.17.24-.25.36,0-1.09-.18-2.32.04-3.38v.07c.15-.25.27-.53.37-.81l.35-.82c.11-.27.25-.54.38-.8.09-.17.18-.34.27-.51.57.93,1.12,1.88,1.54,2.89l-.42.37c-.08.07-.17.14-.24.22Z"/>
      <path class="cls-2" d="M100.84,27.5c-.13.28-.27.55-.4.83-.12.28-.25.55-.36.83l-.08.21s0,0,0,0c0,0,0,0,0,0l-.08-.21c-.11-.28-.24-.56-.36-.83-.12-.28-.26-.55-.4-.83-.13-.26-.27-.52-.41-.78.35-.55.69-1.1,1.02-1.66l.23-.4.23.4c.33.56.67,1.11,1.02,1.66-.14.26-.28.52-.41.78Z"/>
      <path class="cls-2" d="M104.08,37.2l-.03.36c-.03.3-.09.6-.14.89,0,.06-.03.12-.04.18-.04.18-.08.35-.12.53l-.02.09c-.08.26-.16.51-.25.77l-.13.33c-.05.11-.08.23-.14.33-.2.43-.43.86-.69,1.26l-.2.3-.21.29c-.66.94-1.45,1.78-2.11,2.72-.65-.94-1.45-1.78-2.1-2.72l-.21-.29-.2-.3c-.26-.4-.49-.83-.69-1.26-.06-.11-.09-.22-.14-.33l-.13-.33c-.08-.26-.17-.51-.25-.77l-.02-.09c-.05-.23-.12-.47-.16-.7-.05-.29-.12-.59-.14-.89l-.03-.36c-.02-.24-.05-.48-.05-.72l-.02-.72c0-.36.02-.73.03-1.09.03-.3.05-.6.07-.9.03-.3.09-.6.13-.89l.15-.71c.05-.29.14-.59.23-.87.06-.17.12-.34.17-.51.03-.09.07-.18.1-.27l.3.26c.08.07.16.13.23.21.15.15.3.3.45.44l.11.11c.17.19.34.38.52.58l.4.48c.07.08.13.16.2.24.13.17.25.33.38.5.17.24.35.48.52.72l-.02.45.18-.24.18.24-.02-.45c.17-.24.34-.48.52-.72.13-.17.25-.33.38-.5.06-.08.13-.16.2-.24l.4-.48c.17-.19.35-.38.52-.58.19-.18.37-.37.56-.55.07-.08.15-.14.23-.21l.3-.26c.03.09.07.18.1.27.06.17.12.34.17.51.08.29.18.58.23.87l.15.71c.04.3.1.6.13.89.03.3.05.6.07.9.01.36.02.73.03,1.09l-.02.72c0,.24-.03.48-.05.72Z"/>
      <path class="cls-2" d="M147.76,77.78c-1.6,1.29-2.87,2.88-3.9,4.65-.32.59-.59,1.19-.86,1.81-.21.56-.42,1.12-.56,1.7-1.78-1.04-7.43-.56-4.89,2.69-4.78-.38-13.35,2.07-14.06-5.35.55,1.31,1.72,2.33,3.01,2.54-.43,2.58,3.04,2.51,4.25,1.11,2.07-2.41.75-6.86-2.41-7.58,1.5-1.45,4.9-1.02,6.77-.76-1,5.97,6.84,2.03,8.3-.69,2.19-4.07,1.12-10.4-2.56-13.31,5,1.74,7.89,6.82,9.17,11.66-.69.32-1.67,1.05-2.26,1.52-.68.55.68-.55,0,0Z"/>
      <path class="cls-2" d="M139.14,74.92c-3.29-3.06-8.47-3.79-12.42-1.62h-.01s0,0,0,0c2.16-3.96,1.43-9.14-1.62-12.42,2.03-2.17,6.35-3.03,8.59-.71,1.09,1.12,1.85,4.46-.71,4.46-1.5,0-2.26-2.89-.85-2.89.76,0,.61,2.2,1.87,1.12,1.19-1.03-.47-2.71-1.57-2.71-4.27,0-1.92,7.98,2.07,5.38-2.6,3.99,5.37,6.33,5.37,2.07,0-1.1-1.69-2.76-2.71-1.57-1.08,1.26,1.12,1.11,1.12,1.87,0,1.16-2.02.65-2.41.28-2.05-1.95,1.52-3.35,3.12-2.47,3.32,1.81,2.55,6.98.15,9.23-1.96-1.83,1.35-1.27,0,0Z"/>
      <path class="cls-2" d="M124.7,43.02c-.01.33-.03.65-.06.97-3.16-1.09-5.38.44-5.07,3.98-2.02-.14-4.04-.27-6.05-.54,2.46-1.52,4.12-4.01,2.87-6.87-1.22-2.81-1.59,1.01-2.75,1.74-3.6,2.29-4.1-3.78-3.13-5.79,1.21-2.51,4.18-3.2,6.67-3.64-1.57,4.08,3.22,5.68,6.18,4.13h0c.27.69.5,1.38.71,2.08.07.25.14.51.21.79.22.98.38,1.95.4,2.96v.19Z"/>
      <polygon class="cls-2" points="100.14 24.32 100.15 24.35 100.14 24.35 100.14 24.32"/>
      <path class="cls-2" d="M133.43,57.39c-3.58-2.31-9.12-2.81-12.56.03-2.2,1.81-4.71,8.35.54,7.48.27,1.86.69,5.27-.75,6.77-.72-3.16-5.16-4.48-7.58-2.41-1.43,1.23-1.47,4.62,1.11,4.25.21,1.28,1.23,2.45,2.54,3-7.42-.7-4.97-9.28-5.35-14.06,3.25,2.54,3.74-3.11,2.7-4.89.58-.16,1.14-.35,1.7-.56.62-.27,1.22-.54,1.81-.86,2.44-1.42,4.96-3.54,6.17-6.16,4.85,1.28,9.93,4.17,11.66,9.17-.51-.65-1.18-1.24-1.99-1.76-1.86-1.2.81.52,0,0Z"/>
      <path class="cls-2" d="M76.25,49.98c1.21,2.62,3.73,4.74,6.17,6.16.59.32,1.19.59,1.81.86.56.21,1.12.41,1.7.56-1.04,1.78-.56,7.43,2.69,4.89-.37,4.77,2.07,13.36-5.35,14.06,1.31-.55,2.33-1.72,2.54-3,2.58.37,2.54-3.02,1.11-4.25-2.41-2.07-6.86-.75-7.58,2.41-1.45-1.49-1.02-4.9-.75-6.77,5.97.99,2.03-6.84-.69-8.3-4.07-2.19-10.4-1.12-13.31,2.56,1.74-5,6.82-7.89,11.66-9.17.01.02-.14.04,0,0Z"/>
      <path class="cls-2" d="M64.62,67.03c0,1.5-2.89,2.26-2.89.85,0-.76,2.2-.61,1.12-1.87-1.03-1.19-2.71.47-2.71,1.57,0,4.27,7.98,1.92,5.38-2.07,3.99,2.6,6.33-5.37,2.07-5.37-1.1,0-2.76,1.69-1.57,2.71,1.26,1.08,1.11-1.12,1.87-1.12,1.16,0,.65,2.02.28,2.41-1.96,2.05-3.34-1.53-2.47-3.12,1.82-3.32,6.98-2.55,9.23-.15-3.06,3.28-3.79,8.47-1.62,12.42h0s-.01,0-.01,0c-3.95-2.16-9.14-1.43-12.42,1.62-1.74-1.62-2.5-4.41-1.83-6.7.6-2.04,5.58-4.89,5.58-1.18Z"/>
      <polygon class="cls-2" points="99.85 24.35 99.86 24.32 99.86 24.35 99.85 24.35"/>
      <path class="cls-2" d="M83.07,34.29c0-.48-.09-.96-.27-1.42,3.8.67,7.26,2.16,7.26,6.58,0,1.94-1.62,4.2-3.72,2.86-.69-.44-1.32-2.9-1.81-2.9-3.96,0,.76,7.31,1.93,8.03-2.01.27-4.03.4-6.05.54.28-3.54-1.88-5.08-5.07-3.98-.03-.37-.05-.74-.06-1.11v-.03s0-.02,0-.02c.02-1,.18-1.98.4-2.96.07-.28.15-.54.21-.79.21-.7.44-1.39.71-2.07h0c2.41,1.25,6.45.75,6.45-2.72Z"/>
      <path class="cls-2" d="M100,15.84c-.39-1.32-1.34-2.52-1.36-3.93,0-.08,0-.18.01-.25v-.12s.03-.12.03-.12c.08-.33.23-.62.46-.87.3-.36.6-.72.86-1.11.17.24.35.47.53.7l.33.41c.23.25.38.54.46.87l.02.12v.12c.02.08.02.18.02.25-.02,1.41-.97,2.61-1.36,3.93-.1-.34.1-.34,0,0Z"/>
      <path class="cls-2" d="M99,28.34c.03.07.06.13.09.2l.35.82c.1.28.23.55.39.81v-.07c.18,1.08.03,2.29.03,3.38-.08-.12-.16-.24-.25-.36-.13-.17-.25-.34-.38-.51-.19-.25-.4-.5-.6-.74-.18-.2-.35-.4-.53-.6-.18-.19-.37-.38-.55-.56-.07-.08-.16-.15-.24-.22l-.42-.37c.42-1.01.97-1.96,1.54-2.89.09.17.18.34.27.51.1.2.19.4.29.6Z"/>
      <path class="cls-2" d="M96.14,44.21c-2.65,1.77-5.76,2.61-8.88,3.11-2.61-1.43-4.87-4.3-2.85-7.23.18,5.38,8.25,2.47,5.6-3.61-1.61-3.68-6.37-3.96-9.78-4.54.22-.18.44-.37.66-.55,2.91-2.24,6.64-3.75,10.37-3.23.76.09,1.55.26,2.26.53.13.04.25.09.34.13-.63.95-1.1,1.98-1.41,3.08-.03.13-.07.25-.1.38-.05.21-.09.43-.13.64-.04.26-.08.52-.11.78-.02.26-.04.52-.06.78,0,.22-.01.43-.02.65v.07c0,.11,0,.21.01.32,0,3.39,2.46,6.02,4.6,8.35-.14.11-.31.23-.5.35-.43.29.18-.13,0,0Z"/>
      <path class="cls-2" d="M117.58,32.3c-3.4.57-7.26,1.63-8.01,5.53-.99,5.21,5.84,7.42,6,2.26,2.03,2.93-.24,5.8-2.85,7.23-1.49-.24-2.95-.58-4.4-1.01-1.76-.59-3.48-1.32-4.97-2.45,2.14-2.32,4.61-4.96,4.61-8.35,0-.11,0-.21,0-.32v-.03s0-.04,0-.04v-.13s-.02-.52-.02-.52c-.02-.26-.04-.52-.06-.78-.03-.26-.07-.52-.11-.78-.04-.21-.09-.43-.13-.64-.03-.13-.07-.25-.1-.38-.31-1.1-.78-2.13-1.41-3.08.09-.04.21-.08.34-.13.71-.27,1.5-.45,2.26-.53,3.71-.52,7.48.98,10.37,3.23.22.18.45.36.66.55-.73.12-1.46.24-2.19.36-4.12.7.34-.06,0,0Z"/>
      <path class="cls-2" d="M171.31,93.52c-.04.13-.09.25-.13.34-.95-.63-1.97-1.1-3.08-1.41l-.25-.07-.13-.03c-.21-.05-.43-.09-.64-.14-.26-.04-.52-.08-.78-.11-.26-.02-.52-.04-.78-.06-.22,0-.43-.01-.65-.02h-.04s-.03,0-.03,0c-.11,0-.21,0-.32.01-3.39,0-6.02,2.46-8.35,4.6-2.05-2.67-2.94-6.11-3.46-9.37,1.43-2.61,4.3-4.87,7.23-2.85-5.38.18-2.47,8.25,3.61,5.6,3.68-1.61,3.96-6.37,4.54-9.78.19.22.37.44.55.66,2.22,2.94,3.75,6.61,3.23,10.37-.09.76-.26,1.55-.53,2.26-.04.13.07-.2,0,0Z"/>
      <path class="cls-2" d="M166.42,100.5c.09.06.17.12.25.18.17.13.33.25.5.38.25.18.49.4.72.6.19.17.38.35.57.52.18.19.37.37.55.56.08.07.14.15.21.23l.26.3c-.09.03-.18.07-.27.1-.17.06-.34.12-.51.17-.29.08-.58.18-.87.23l-.71.15c-.3.04-.6.1-.9.13-.3.03-.6.05-.9.07-.36.01-.73.02-1.09.03l-.72-.02c-.24,0-.48-.03-.72-.05l-.36-.03c-.3-.02-.6-.09-.89-.14-.27-.05-.53-.12-.79-.18-.26-.08-.51-.16-.77-.25-.22-.09-.45-.18-.67-.27-.43-.2-.86-.43-1.26-.69l-.3-.2-.29-.21c-.94-.66-1.78-1.45-2.72-2.11.94-.66,1.78-1.45,2.72-2.11l.29-.21.3-.2c.4-.26.83-.48,1.26-.69.11-.06.22-.09.33-.14l.33-.13c.26-.09.51-.17.77-.25.26-.06.52-.14.79-.18.29-.05.59-.12.89-.14l.36-.03c.24-.02.48-.05.72-.05l.72-.02c.36,0,.73.01,1.09.03.3.03.6.05.9.07.3.03.6.08.9.13l.71.15c.29.05.59.15.87.23.17.06.34.12.51.17.09.03.18.07.27.1l-.26.3c-.07.08-.13.16-.21.23-.18.19-.37.37-.55.56-.19.17-.38.35-.57.52-.24.2-.47.41-.72.6-.17.13-.33.25-.5.38-.24.17-.48.35-.72.52l-.45-.02.24.18-.24.18.45-.02c.15.12.31.23.47.34.09.06-.16-.11,0,0Z"/>
      <path class="cls-2" d="M160.55,109.43c-4.26,0-5.08,6-.63,6.15-2.93,2.03-5.8-.24-7.23-2.85.24-1.49.58-2.95,1.01-4.4.59-1.76,1.31-3.49,2.45-4.97,2.32,2.14,4.96,4.61,8.35,4.61.11,0,.21,0,.32,0h.03s.04,0,.04,0c.22,0,.43-.01.65-.02.26-.02.52-.04.78-.06.26-.03.52-.07.78-.11.21-.05.43-.09.64-.13.13-.03.25-.07.38-.1,1.1-.31,2.13-.78,3.08-1.41.04.09.08.21.13.34.27.72.45,1.5.53,2.26.52,3.76-1.01,7.43-3.23,10.37-.18.22-.36.45-.55.66-.79-4.66-1.54-10.34-7.52-10.34Z"/>
      <path class="cls-2" d="M172.26,98.71c-.2.1-.4.19-.6.29-.07.03-.13.06-.2.09l-.82.35c-.28.1-.55.23-.81.39h.07c-1.08.18-2.29.03-3.38.03.12-.08.24-.16.36-.25.17-.13.34-.25.51-.38.26-.19.5-.4.74-.6.2-.18.4-.35.6-.53.19-.18.38-.37.56-.55.08-.07.15-.16.22-.24l.37-.42c1.01.43,1.96.97,2.89,1.54-.17.09-.34.18-.51.27Z"/>
      <path class="cls-2" d="M151.57,100.32c-.18-.12-.38-.23-.58-.32,1.71-.81,3.33-2.66,2.83-4.67.44.73.95,1.41,1.51,2.04-1.01.91-2.26,1.55-3.24,2.44l-.5-.1.3.29-.3.29.5-.1c1,.9,2.23,1.53,3.24,2.44-.57.63-1.07,1.31-1.52,2.04.45-1.78-.81-3.46-2.25-4.36-.02-.01,1.41.88,0,0Z"/>
      <path class="cls-2" d="M172.09,100.65c-.14-.07-.28-.13-.41-.2-.28-.12-.55-.25-.83-.36-.08-.03-.15-.06-.23-.08.08-.03.15-.06.23-.08.28-.11.56-.24.83-.36.28-.12.55-.26.83-.4.26-.13.52-.27.78-.41.55.35,1.1.69,1.66,1.02l.41.23-.41.23c-.56.33-1.11.67-1.66,1.02-.26-.14-.52-.28-.78-.41l-.41-.2Z"/>
      <path class="cls-2" d="M153.06,93.92c-2.03-4.23-2.24-9.1-2.43-13.71,0-.15-.02-.3-.03-.44-.06-.83-.16-1.67-.35-2.49-2.29,1.39-4.09,3.36-5.39,5.69-.28.56-.53,1.11-.77,1.69-.25.7-.48,1.4-.62,2.13,2.76,2.94.6,8.18,3.48,10.96,1.61,1.55,5.37,1.09,5.37-1.62,0-1.28-2.83-2.67-2.76-3,.24-1.04,3.21.48,3.51.8-.17-.35-.58-.62,0,0ZM150.97,96.25c0,1.58-2.44,1.58-2.44,0s2.44-1.58,2.44,0Z"/>
      <path class="cls-2" d="M152.19,117.14c.09-1.21.21-2.41.37-3.61.72,1.17,8.03,5.89,8.03,1.93,0-.49-2.46-1.12-2.9-1.81-1.34-2.1.92-3.72,2.86-3.72,4.42,0,5.91,3.47,6.58,7.26-4.07-1.57-5.68,3.22-4.13,6.18h0c-.68.27-1.37.5-2.07.72-.25.07-.51.14-.79.21-.98.22-1.95.38-2.96.4h-.05c-.37,0-.74-.04-1.11-.06,1.09-3.16-.44-5.38-3.98-5.07.06-.81.11-1.63.17-2.44.09-1.2-.04.6,0,0Z"/>
      <path class="cls-2" d="M169.88,103.11l-.37-.42c-.07-.08-.14-.17-.22-.24-.19-.18-.38-.37-.56-.55-.2-.18-.4-.35-.6-.53-.25-.2-.49-.41-.74-.6-.17-.12-.34-.25-.51-.38-.12-.09-.24-.17-.36-.25,1.1,0,2.3-.16,3.38.04h-.07c.26.15.53.27.81.38l.82.35c.07.03.13.06.2.09.2.1.4.19.6.29.17.09.34.18.51.27-.93.57-1.88,1.12-2.89,1.54Z"/>
      <path class="cls-1" d="M94.78,181.03h-.07s.04-.02.07,0Z"/>
      <path class="cls-1" d="M96.24,148.52c1.58,0,1.58,2.45,0,2.45s-1.58-2.45,0-2.45Z"/>
      <path class="cls-1" d="M103.75,150.97c-1.58,0-1.58-2.45,0-2.45s1.58,2.45,0,2.45Z"/>
      <path class="cls-1" d="M105.29,181.03h-.07s.05-.03.07,0Z"/>
      <path class="cls-1" d="M105.22,18.97h.07s-.05.02-.07,0Z"/>
      <path class="cls-1" d="M103.76,51.48c-1.58,0-1.58-2.45,0-2.45s1.58,2.45,0,2.45Z"/>
      <path class="cls-1" d="M96.25,49.03c1.58,0,1.58,2.45,0,2.45s-1.58-2.45,0-2.45Z"/>
      <path class="cls-1" d="M94.71,18.97h.07s-.05.03-.07,0Z"/>
      <path class="cls-1" d="M181.03,105.22v.07s-.02-.05,0-.07Z"/>
      <path class="cls-1" d="M149.75,102.53c1.58,0,1.58,2.44,0,2.44s-1.58-2.44,0-2.44Z"/>
      <path class="cls-1" d="M150.97,96.25c0,1.58-2.44,1.58-2.44,0s2.44-1.58,2.44,0Z"/>
      <path class="cls-1" d="M181.03,94.71v.07s-.03-.05,0-.07Z"/>
      <path class="cls-1" d="M0,100.28l.54-.09c.11.11.23.21.35.3l.42.3c.58.49,1.24.8,2,.92h.15s0,0,0,0h0s.01,0,.01,0h.02s.03,0,.03,0c.07,0,.13,0,.2,0h.14c.96-.1,1.85-.55,2.81-.61.08,0,.16-.01.24-.01h.06c.06,0,.13,0,.19,0,.09,0,.16,0,.24.01.16.02.32.04.45.09.03.01.06.02.08.04.02.01.05.03.06.04.06.07.08.15.05.24-.19.98-1.01,1.65-.97,2.74,0,.07,0,.13.01.2v.07c.03.19.07.38.12.56l.09.27c.38,1.06,1.17,1.96,2.23,2.37l.27.09c.14.03.28.06.41.09.36.04.73.07,1.09.11l-.48-.5c-.89-.95-.81-2.66.13-3.56,0,.03,0,.06,0,.1v.25c0,.09.02.19.03.28.29,2.24,2.32,4.48,4.66,4.56h.14s.02,0,.03,0h.02s.06,0,.1,0c.09,0,.17,0,.26-.02l.29-.05c.05,0,.09-.02.14-.04l.13-.04c1.46-.52,2.19-2.06,2.21-3.51v-.15s0,0-.02,0h0s.01-.07.01-.07h0c-.06-.07-.02-.05,0-.01v-.05s0,0,0-.06c-.66-.22-.57-.05-.53,0,0,0,0,0,0,0v.02s0,.03,0,.03c-.01.05-.02.1-.03.15-.2.84-.8,1.63-1.74,1.63h-.04c-.06,0-.13,0-.19-.01-.04,0-.07-.01-.1-.02-.03,0-.07,0-.1-.02l-.11-.03c-.91-.34-1.45-1.03-1.63-2.07,0-.08-.03-.15-.03-.23v-.24s-.01-.01-.01-.01h0s0-.04,0-.04c0-.14,0-.28.04-.41.02-.15.07-.3.11-.45.76-2.06,3.18-2.89,5.19-2.88.17,0,.34.01.51.02.16.02.32.04.47.06.16.03.32.06.48.1,1.26.38,2.33,1.07,3.33,1.91-.93.59-1.76,1.4-2.55,2.17-.2.21-.39.42-.59.62-1.18,1.31-2.1,2.79-2.75,4.42-.06.19-.12.38-.18.57-.05.2-.1.4-.14.6-.04.28-.09.57-.1.83v.2s-.01.03-.01.03h0v.04c0,.05,0,.11,0,.16,0,.14.02.29.04.43,0,.07.02.14.03.22l.04.21c.03.11.06.21.08.32.04.1.07.21.11.31.08.21.18.41.29.6.08.13.16.26.25.38l.14.18.16.17s.05.06.08.08c.09.08.18.15.27.22l.2.13.05.03c.05.03.1.05.16.08.14.08.29.12.44.18.12.03.25.05.37.07h.11c1.3.15,2.61-.88,2.69-2.2v-.05s0-.03,0-.03v-.15c0-.1,0-.21-.03-.3-.03-.09-.08-.17-.17-.21-.12-.04-.22-.02-.31.05-.02.02-.02.02-.04.04-.06.07-.07.1-.09.13l-.1.19c-.16.28-.46.7-.85.7h-.03s-.01,0-.02,0c-.05,0-.1,0-.14-.02-.1-.03-.2-.07-.3-.13-.1-.06-.19-.14-.28-.22-2.3-2.39,2.49-2.91,3.39-3.99.09-.09.15-.2.22-.31.06-.11.12-.22.15-.33.09-.22.13-.45.16-.69,0-.11,0-.21.01-.31v-.05s0-.04,0-.04c-.15-1.27-.9-2.07-2.11-2.43-.32-.08-.65-.13-.98-.15h-.02c.06-.07.12-.13.18-.19.83-.78,1.67-1.51,2.58-2.19,1.14.99,2.21,2.05,3.45,2.91-.05.11-.11.25-.18.44-.08.21-.16.47-.25.76-.14.53-.27,1.06-.34,1.6-.65,4.03,1.03,8.07,3.46,11.2.12.14.24.29.36.43l.02.03c.09.11.19.21.29.32-1.18,1.83-.65,4.47-3.71,4.47-2.14,0-1.45-3.31-2.27-3.31-2.58,0,.39,5.78,2.39,6.19,3.28.67,6.6-1.25,8.39-3.93.75.28,1.49.57,2.25.82.26.07.53.15.82.23.65.15,1.29.32,1.96.38.18.03.37.05.55.06.21,0,.41.02.62.03h.05c.46,0,.91-.02,1.37-.05.05,0,.09,0,.13-.01,0,.01,0,.03.01.05,2.83,6.29,11.45,12.95,18.68,11.35h.04s0,.03,0,.03c-1.6,7.23,5.06,15.85,11.35,18.68.01,0,.03,0,.05.01,0,.04-.01.09-.01.13-.03.44-.05.89-.06,1.33v.04s0,.05,0,.05c.04,1.06.24,2.09.47,3.13.08.29.16.56.23.82.24.76.49,1.52.82,2.25-2.64,1.89-4.61,5.03-3.93,8.39.41,2.01,6.19,4.98,6.19,2.39,0-.83-3.31-.14-3.31-2.27,0-3.06,2.64-2.53,4.47-3.71.11.09.21.2.32.29l.02.02c.15.1.31.26.44.37,3.09,2.45,7.19,4.11,11.2,3.46.54-.07,1.07-.2,1.6-.34.3-.09.56-.17.76-.25.19-.07.34-.13.44-.18.87,1.24,1.92,2.32,2.91,3.45-.68.91-1.41,1.75-2.19,2.58-.06.06-.13.12-.19.17,0-.1,0-.2-.02-.29-.02-.24-.07-.47-.13-.71-.36-1.21-1.16-1.96-2.43-2.11h-.04s-.02,0-.02,0h-.03c-.1,0-.2,0-.31.01-.23.03-.46.07-.69.16-.11.04-.22.1-.33.15-.1.07-.21.13-.31.22-1.08.9-1.6,5.7-3.99,3.39-.08-.09-.17-.18-.22-.28-.07-.1-.11-.2-.13-.3-.01-.05-.02-.09-.02-.14v-.04s0-.02,0-.03c.03-.38.41-.65.7-.81l.19-.1s.07-.03.13-.09c.09-.08.15-.22.09-.35-.04-.1-.12-.15-.21-.18-.07-.02-.15-.03-.23-.03-.03,0-.05,0-.08,0h-.18s-.05,0-.05,0c-1.32.08-2.35,1.39-2.21,2.69v.11c.03.12.05.25.08.37.05.15.1.3.18.44.03.05.05.11.08.16.05.08.11.16.16.25.05.07.1.12.15.18l.08.09s.05.05.08.08l.17.16.18.14c.12.09.25.17.38.25.13.07.26.15.4.2.07.03.14.06.2.09.1.03.21.07.31.11.11.03.21.06.32.08l.21.04c.07.01.14.03.22.03.14.02.29.03.43.04.05,0,.11,0,.16,0h.04s.03,0,.03,0h.2c.26-.01.55-.07.83-.11.2-.04.4-.09.59-.14.19-.06.38-.12.57-.18,1.66-.67,3.02-1.64,4.42-2.75.21-.2.42-.39.63-.59.79-.81,1.47-1.67,2.17-2.55.84,1,1.51,2.07,1.91,3.32.04.16.07.32.1.48.03.16.04.32.06.47.01.17.01.34.02.51.01,2.01-.82,4.42-2.88,5.19-.15.05-.3.09-.45.11-.08.02-.15.02-.22.03-.06,0-.12,0-.19,0h-.03s0,0,0,0h-.01s-.24-.01-.24-.01c-.08,0-.15-.02-.23-.03-1.04-.18-1.73-.72-2.07-1.63l-.03-.11s-.01-.07-.02-.1c0-.03-.01-.06-.02-.1,0-.06,0-.13-.01-.19v-.04c0-.94.79-1.54,1.63-1.74l.11-.03h.03s.03-.01.05-.01h-.01c.06.03.23.13.01-.54-.07,0-.05,0-.06,0h-.05s.06.07,0,0h-.01s-.07.01-.07.01h0s0-.02,0-.02h-.16c-1.45.02-3,.75-3.51,2.21l-.04.14s-.03.09-.04.14l-.05.29c-.01.09-.01.17-.02.26,0,.03,0,.06,0,.1v.02s0,0,0,.03v.14c.08,2.35,2.32,4.37,4.56,4.66.09,0,.19.02.28.02h.25s.07.01.1.01c-.9.94-2.62,1.03-3.56.13l-.5-.47c.03.36.07.73.11,1.09.03.14.06.28.09.41l.09.27c.42,1.06,1.31,1.84,2.37,2.23l.27.09c.18.05.37.09.56.11h.07c.07.01.13.02.2.02,1.08.04,1.76-.76,2.74-.97.09-.03.17-.01.24.05.02.01.03.04.04.06.01.02.02.06.04.08.05.13.07.29.09.45,0,.08.01.15.01.24v.13s0,.06,0,.06v.06c0,.08,0,.16-.02.24-.04.96-.5,1.85-.6,2.81v.14c-.02.07-.02.13-.02.2v.03s0,.02,0,.02v.02h0s0,.15,0,.15c.12.75.42,1.42.92,2l.3.42c.05.07.1.14.17.2.05.05.09.1.13.15l-.08.53.28-.32.28.32-.09-.54c.1-.11.2-.23.3-.35l.3-.42c.49-.58.8-1.24.92-2v-.15s0,0,0,0h0v-.03s0-.03,0-.03c0-.07,0-.13,0-.2v-.14c-.1-.96-.57-1.85-.61-2.81-.01-.08-.01-.16-.02-.24v-.06s0-.06,0-.06v-.13c0-.09.01-.16.02-.24.02-.16.04-.32.09-.45.01-.03.02-.06.04-.08.01-.02.03-.05.04-.06.07-.06.15-.08.24-.05.97.22,1.66,1.02,2.74.97.07,0,.13,0,.2-.01h.07c.19-.03.38-.07.56-.12l.27-.09c1.06-.39,1.95-1.17,2.37-2.23l.09-.27c.03-.14.06-.28.09-.41.04-.36.07-.73.11-1.09l-.5.47c-.95.89-2.66.81-3.56-.13.03,0,.06,0,.1,0h.25c.09,0,.19-.02.28-.03,2.24-.29,4.48-2.32,4.56-4.66v-.14s0-.02,0-.03v-.02s0-.06,0-.1c0-.09,0-.17-.02-.26l-.05-.29c0-.05-.02-.09-.04-.14l-.04-.14c-.52-1.46-2.06-2.19-3.51-2.21h-.16s.01.02.01.02h0s-.07-.01-.07-.01h-.01c-.06.06-.04.02,0-.01h-.05s0,0-.06,0c-.22.66-.05.57,0,.52,0,0,0,0-.01.01.02,0,.03,0,.05,0h.03s.11.03.11.03c.84.2,1.63.81,1.63,1.74v.04c0,.06,0,.13-.01.19,0,.04-.01.07-.02.1,0,.03,0,.07-.02.1l-.03.11c-.34.91-1.03,1.45-2.07,1.63-.08,0-.15.03-.23.03h-.24s-.01.01-.01.01h-.04c-.14,0-.28-.01-.41-.04-.15-.02-.3-.07-.45-.11-2.06-.76-2.89-3.18-2.88-5.19,0-.17.01-.34.02-.51.02-.16.04-.32.06-.47.04-.16.06-.32.1-.48.38-1.26,1.07-2.33,1.91-3.32.64.92,1.39,1.75,2.17,2.55.21.2.42.39.62.59,1.38,1.13,2.76,2.09,4.42,2.75.19.06.38.12.57.18.2.05.39.1.59.14.28.04.57.09.83.1h.2s.03.01.03.01h.01s.02,0,.03,0c.05,0,.11,0,.16,0,.15,0,.29-.02.43-.04.07,0,.15-.02.22-.03l.21-.04c.11-.03.21-.06.32-.08.1-.04.21-.07.31-.11.21-.08.41-.18.6-.29.13-.08.26-.16.38-.25l.18-.14.17-.16s.06-.05.08-.08l.08-.09c.05-.06.1-.12.15-.18.05-.08.11-.16.16-.25.03-.05.05-.11.08-.16.08-.14.12-.29.18-.44.03-.12.05-.25.07-.37v-.11c.15-1.3-.88-2.61-2.2-2.69h-.05s-.03,0-.03,0h-.15c-.1,0-.21,0-.31.03-.09.03-.17.07-.21.18-.04.12-.02.22.05.31.02.02.02.02.04.04.07.06.1.07.13.09l.19.1c.35.2.66.44.7.85v.04s0,.1-.02.14c-.02.1-.07.2-.13.3-.06.1-.14.19-.22.28-2.39,2.3-2.91-2.49-3.99-3.39-.09-.09-.2-.15-.31-.22-.11-.05-.22-.12-.33-.15-.23-.09-.46-.13-.69-.16-.11,0-.21,0-.31-.01h-.05s-.04,0-.04,0c-1.27.15-2.07.91-2.43,2.11-.08.32-.14.65-.14.98,0,0,0,.02,0,.02-.06-.06-.13-.12-.19-.18-.78-.83-1.51-1.67-2.19-2.58,1-1.13,2.05-2.21,2.91-3.45.11.04.25.11.44.17.21.08.47.17.76.25.53.14,1.05.27,1.6.34,4,.64,8.1-1.01,11.2-3.46.14-.12.29-.24.43-.37l.03-.02c.11-.09.21-.19.32-.29,1.83,1.18,4.47.65,4.47,3.71,0,2.14-3.31,1.45-3.31,2.27,0,2.59,5.78-.39,6.19-2.39.67-3.28-1.25-6.6-3.93-8.39.31-.74.57-1.49.82-2.25.07-.26.15-.53.23-.82.15-.65.32-1.29.38-1.96.03-.18.05-.37.06-.55,0-.18.02-.36.03-.55,0-.04,0-.08,0-.12,0-.46-.02-.91-.06-1.37,0-.05,0-.09-.01-.13.01,0,.03,0,.05-.01,6.29-2.83,12.95-11.45,11.35-18.68v-.04s.03,0,.03,0c7.23,1.6,15.85-5.06,18.68-11.35,0-.01,0-.03.01-.05.05,0,.09.01.13.01.44.03.89.06,1.33.06h.04s.05,0,.05,0c1.06-.04,2.09-.24,3.13-.47.29-.08.56-.16.82-.23.76-.24,1.5-.54,2.25-.82,1.79,2.68,5.11,4.6,8.39,3.92,2.01-.41,4.98-6.19,2.39-6.19-.83,0-.14,3.31-2.27,3.31-3.06,0-2.53-2.64-3.71-4.47.09-.11.2-.21.29-.32l.02-.02c.1-.15.25-.31.36-.44,2.45-3.09,4.11-7.19,3.46-11.2-.07-.54-.2-1.07-.34-1.6-.09-.3-.17-.55-.26-.76-.07-.19-.13-.33-.18-.44,1.24-.87,2.32-1.92,3.45-2.91.92.67,1.75,1.41,2.58,2.19.06.06.12.13.18.19-.1,0-.2,0-.3.02-.24.02-.47.07-.71.13-1.21.36-1.96,1.16-2.11,2.43v.04s0,.02,0,.02v.03c0,.1,0,.2.01.31.03.24.07.46.16.69.04.11.1.22.15.33.07.1.13.21.22.31.9,1.08,5.7,1.6,3.39,3.99-.09.08-.18.17-.27.22-.1.07-.2.11-.3.14-.05.01-.1.02-.14.02h-.04s-.02,0-.03,0c-.38-.03-.65-.41-.81-.7l-.11-.19s-.03-.07-.09-.13c-.07-.1-.23-.14-.35-.09-.1.04-.14.12-.18.21-.02.08-.03.15-.03.23,0,.03,0,.05,0,.08v.18s0,.05,0,.05c.08,1.32,1.39,2.35,2.69,2.21h.11c.12-.03.25-.05.37-.08.15-.05.3-.1.44-.18l.11-.05.05-.03.05-.03.19-.13c.07-.05.12-.1.18-.15l.09-.08s.05-.05.08-.08l.16-.17.14-.18c.09-.12.17-.25.25-.38.07-.13.15-.26.2-.4.03-.07.06-.13.09-.2.04-.1.07-.21.11-.31.03-.11.06-.21.08-.32l.04-.21c.01-.07.03-.14.03-.22.02-.14.03-.29.04-.43v-.16s0-.03,0-.04c0-.08,0-.15-.01-.23,0-.26-.06-.55-.1-.83-.04-.2-.09-.4-.14-.59-.06-.19-.12-.38-.18-.57-.65-1.62-1.57-3.03-2.7-4.36-.02-.02-.03-.04-.05-.05-.2-.21-.39-.42-.59-.63-.81-.79-1.67-1.47-2.55-2.17,1-.84,2.07-1.51,3.32-1.91.16-.04.32-.07.48-.1.16-.03.32-.04.48-.06.17-.01.34-.01.51-.02,2.01-.01,4.42.82,5.19,2.88.05.15.09.3.11.45.01.08.02.15.03.22,0,.06,0,.12,0,.19v.03s0,0,0,0h0s0,.02,0,.02v.24c-.01.08-.03.16-.04.23-.18,1.04-.72,1.73-1.63,2.07l-.11.03s-.07.01-.1.02c-.04,0-.06.01-.1.02-.06,0-.13,0-.19.01h-.04c-.94,0-1.54-.79-1.74-1.63l-.03-.11s0-.05-.01-.08c0,0-.01.01-.01.01.05-.06.15-.23-.52-.01,0,.06,0,.05,0,.06v.05s.07-.06,0,0h0s.01.08.01.08h0s-.02,0-.02,0v.15c.02,1.45.75,3,2.21,3.51l.13.04s.09.03.14.04l.29.05c.09.01.17.01.26.02h.07s.03,0,.03,0h.01s0,0,.03,0h.14c2.35-.09,4.37-2.32,4.66-4.56,0-.09.02-.19.02-.28v-.25s.01-.07.01-.1c.96.88,1.01,2.63.13,3.56l-.47.5c.36-.03.73-.07,1.09-.11.14-.03.28-.06.41-.09l.27-.09c1.06-.42,1.84-1.31,2.23-2.37l.09-.26c.05-.18.09-.37.11-.56v-.07s.01-.07.01-.07v-.13c.05-1.08-.75-1.77-.97-2.74-.03-.09-.01-.17.05-.24.01-.02.04-.03.06-.04.02-.01.06-.02.08-.04.13-.05.29-.07.45-.09.08,0,.15-.01.24-.01.06,0,.13,0,.19,0h.06c.08,0,.16,0,.24.02.96.04,1.85.5,2.81.6h.14s.09.02.13.02h.07s.03,0,.03,0h.02s.01,0,.02,0h0s.15,0,.15,0c.75-.12,1.42-.42,2-.92l.42-.3c.07-.05.14-.1.2-.17.05-.05.1-.09.15-.13l.53.08-.31-.28.31-.28-.54.09c-.11-.1-.23-.2-.35-.3l-.42-.3c-.58-.49-1.24-.8-2-.92h-.15s0,0,0,0h0s-.01,0-.01,0h-.02s-.03,0-.03,0c-.07,0-.13,0-.2,0h-.14c-.96.1-1.85.57-2.81.61-.08.01-.16.01-.24.02h-.06c-.06,0-.13,0-.19,0-.09,0-.16,0-.24-.01-.16-.02-.32-.04-.45-.09-.03-.01-.06-.02-.08-.04-.02-.01-.05-.03-.06-.04-.06-.07-.08-.15-.05-.24.22-.97,1.02-1.66.97-2.74v-.13s-.01-.07-.01-.07v-.07c-.03-.19-.07-.38-.12-.56l-.09-.27c-.39-1.06-1.17-1.95-2.23-2.37l-.27-.09c-.14-.03-.28-.06-.41-.09-.36-.04-.73-.07-1.09-.11l.47.5c.88.93.83,2.69-.13,3.56,0-.03,0-.06,0-.1v-.25c0-.09-.02-.19-.03-.28-.29-2.24-2.32-4.48-4.66-4.56h-.14s-.02,0-.03,0h-.02s-.06,0-.1,0c-.09,0-.17,0-.26.02l-.29.05c-.05,0-.09.02-.14.04l-.13.04c-1.46.52-2.19,2.06-2.21,3.51v.16s.02,0,.02,0h0s-.01.07-.01.07h0c.06.07.02.05,0,.01v.03s0,.03,0,.03c0,0,0-.01,0,.05.65.22.57.05.53,0,0,0,0,0,0,0,0-.02,0-.03,0-.05v-.03s.03-.11.03-.11c.2-.84.8-1.63,1.74-1.63h.04c.06,0,.13,0,.19.01.04,0,.07.01.1.02.03,0,.06,0,.1.02l.11.03c.91.34,1.45,1.03,1.63,2.07,0,.08.03.15.03.23v.24s.01.01.01.01h0s0,0,0,0v.03c0,.14-.01.28-.04.41-.02.15-.07.3-.11.45-.76,2.06-3.18,2.89-5.19,2.88-.17,0-.34-.01-.51-.02-.16-.02-.32-.04-.48-.06-.16-.03-.32-.06-.48-.1-1.25-.38-2.33-1.07-3.32-1.91.92-.64,1.75-1.39,2.55-2.17.2-.21.39-.42.59-.62,1.18-1.31,2.1-2.79,2.75-4.42.06-.19.12-.38.18-.57.05-.2.1-.39.14-.59.04-.28.09-.57.1-.83,0-.08,0-.15.01-.23v-.04c0-.05,0-.11,0-.16,0-.15-.02-.29-.04-.43,0-.07-.02-.14-.03-.22l-.04-.21c-.03-.11-.06-.21-.08-.32-.03-.1-.07-.21-.11-.31-.08-.21-.18-.41-.29-.6-.08-.13-.16-.26-.25-.38l-.14-.18-.16-.17s-.05-.06-.08-.08l-.09-.08c-.06-.05-.12-.1-.18-.15-.08-.05-.16-.11-.25-.16l-.05-.03-.11-.05c-.14-.08-.29-.12-.44-.18-.12-.03-.25-.05-.37-.07h-.11c-1.3-.15-2.61.88-2.69,2.2v.05s0,.03,0,.03v.15c0,.1,0,.21.03.3.03.09.07.17.18.21.12.04.22.02.31-.05.02-.02.03-.02.04-.04.06-.07.07-.1.09-.13l.11-.19c.22-.4.45-.65.87-.7h.02s.1,0,.14.02c.1.02.2.07.3.13.1.06.19.14.27.22,2.3,2.39-2.49,2.91-3.39,3.99-.09.09-.15.2-.22.31-.05.11-.12.22-.15.33-.09.23-.13.46-.16.69,0,.11,0,.21-.01.31v.05s0,.04,0,.04c.15,1.27.91,2.07,2.11,2.43.32.08.65.14.98.14h.02c-.06.07-.12.13-.18.19-.83.78-1.65,1.53-2.58,2.19-1.13-1-2.21-2.05-3.45-2.91.04-.11.11-.25.17-.44.08-.21.17-.47.26-.76.14-.53.27-1.05.34-1.6.64-4-1.01-8.1-3.46-11.2-.12-.14-.24-.29-.36-.43l-.02-.03c-.09-.11-.19-.21-.29-.32,1.18-1.83.65-4.47,3.71-4.47,2.14,0,1.45,3.31,2.27,3.31,2.59,0-.39-5.78-2.39-6.19-3.28-.67-6.6,1.25-8.39,3.93-.74-.31-1.49-.58-2.25-.82-.26-.07-.53-.15-.82-.23-.65-.15-1.29-.32-1.96-.38-.18-.03-.37-.05-.55-.06-.18,0-.36-.02-.55-.03-.04,0-.08,0-.12,0-.46,0-.91.02-1.37.06-.05,0-.09,0-.13.01,0-.01,0-.03-.01-.05-2.83-6.29-11.45-12.95-18.68-11.35h-.04s0-.03,0-.03c1.59-7.23-5.06-15.85-11.35-18.68-.01,0-.03,0-.05-.01,0-.05.01-.09.02-.13.03-.46.05-.91.06-1.37v-.05c-.04-1.06-.23-2.09-.48-3.13-.08-.29-.16-.56-.23-.82-.25-.76-.53-1.51-.82-2.25,2.53-2.11,4.65-4.86,3.93-8.39-.41-2-6.19-4.98-6.19-2.39,0,.83,3.31.14,3.31,2.27,0,3.06-2.64,2.53-4.47,3.71-.11-.1-.21-.19-.32-.29l-.03-.02c-.15-.12-.29-.24-.44-.36-3.09-2.45-7.19-4.11-11.2-3.46-.54.07-1.07.2-1.6.34-.3.09-.55.17-.76.26-.19.07-.33.13-.44.18-.87-1.24-1.92-2.32-2.91-3.45.68-.91,1.4-1.76,2.19-2.58.06-.06.13-.12.19-.18,0,.1,0,.2.02.3.02.24.07.47.13.71.35,1.21,1.16,1.96,2.43,2.11h.04s.02,0,.02,0h.03c.1,0,.2,0,.31-.01.24-.03.46-.07.69-.16.12-.04.22-.1.33-.15.1-.07.21-.13.31-.22,1.08-.91,1.59-5.69,3.99-3.39.08.09.16.18.22.27.07.1.11.2.14.3.01.05.02.09.02.14v.04s0,.02,0,.03c-.07.39-.35.61-.7.81l-.19.11s-.07.03-.13.09c-.09.09-.16.2-.09.35.04.1.12.15.21.18.08.02.15.03.23.03.03,0,.05,0,.08,0h.18s.05,0,.05,0c1.32-.08,2.35-1.39,2.21-2.69v-.11c-.03-.12-.05-.25-.08-.37-.05-.15-.1-.31-.18-.44l-.05-.11-.03-.05c-.05-.08-.11-.16-.16-.25-.05-.07-.1-.12-.15-.18l-.08-.09c-.08-.08-.16-.16-.25-.24l-.18-.14c-.12-.09-.25-.17-.38-.25-.13-.07-.26-.15-.4-.2-.07-.03-.14-.06-.21-.09-.1-.03-.21-.07-.31-.11-.11-.03-.21-.06-.32-.08l-.21-.04c-.07-.01-.14-.03-.21-.03-.15-.02-.29-.03-.43-.04-.05,0-.11,0-.16,0h-.04s-.03,0-.03,0h-.2c-.26.01-.55.07-.83.11-.2.04-.4.09-.59.14-.19.06-.38.12-.57.18-1.62.65-3.03,1.57-4.36,2.7-.02.02-.04.03-.05.05-.21.2-.42.39-.63.59-.79.81-1.47,1.67-2.17,2.55-.84-1-1.51-2.07-1.91-3.32-.04-.16-.07-.32-.1-.48-.02-.16-.04-.32-.06-.48-.01-.17-.01-.34-.02-.51-.01-2.01.82-4.42,2.88-5.19.15-.05.3-.09.45-.11.08-.02.15-.02.22-.03.06,0,.12,0,.19,0h.03s0,0,0,0h.02s.24.01.24.01c.08,0,.16.02.23.03,1.04.18,1.73.72,2.07,1.63l.03.11s.01.07.02.1c0,.04.01.06.02.1,0,.06,0,.13.01.19v.04c0,.94-.78,1.54-1.63,1.74l-.12.03s-.05,0-.08.01h.01c-.06-.03-.23-.13-.01.54.06,0,.05,0,.06,0h.05s-.06-.07,0,0h.01s.07-.01.07-.01h0s0,.02,0,.02h.15c1.45-.02,3-.75,3.51-2.21l.04-.14s.03-.09.04-.14l.05-.29c0-.11.02-.22.03-.32v-.03s0-.02,0-.02c0-.01,0,0,0-.03v-.14c-.09-2.35-2.32-4.37-4.56-4.66-.09,0-.19-.02-.28-.02h-.25s-.07-.01-.1-.02c.88-.96,2.63-1.01,3.56-.13l.5.47c-.03-.36-.07-.73-.1-1.09-.03-.14-.06-.28-.09-.41l-.09-.27c-.41-1.06-1.31-1.85-2.37-2.23l-.27-.09c-.18-.05-.37-.09-.56-.11h-.07c-.07-.01-.13-.02-.2-.02-1.08-.04-1.76.76-2.74.97-.09.03-.17.01-.24-.05-.02-.01-.03-.04-.04-.06-.01-.02-.02-.06-.04-.08-.05-.13-.07-.29-.09-.45,0-.08-.01-.15-.01-.24,0-.06,0-.13,0-.19v-.06c0-.08,0-.16.02-.24.06-.96.51-1.85.6-2.81v-.14c.02-.07.02-.13.02-.2v-.05s0-.01,0-.02h0s0-.15,0-.15c-.12-.75-.42-1.42-.91-2l-.3-.42c-.05-.07-.1-.14-.16-.2-.05-.05-.09-.1-.14-.15l.08-.53-.28.32-.28-.32.09.54c-.11.11-.21.23-.3.35l-.3.42c-.49.58-.8,1.24-.92,2v.15s0,.03,0,.04v.03c0,.07,0,.13,0,.2v.14c.1.96.55,1.85.61,2.81,0,.08.01.16.01.24v.06s0,.06,0,.06v.13c0,.09-.01.16-.02.24-.02.16-.04.32-.09.45-.01.03-.02.06-.04.08-.01.02-.03.05-.04.06-.07.06-.15.08-.24.05-.97-.22-1.66-1.02-2.74-.97-.07,0-.13,0-.2.01h-.07c-.19.03-.38.07-.56.12l-.26.09c-1.06.38-1.96,1.17-2.37,2.23l-.09.27c-.03.14-.06.28-.09.41-.04.36-.07.73-.11,1.09l.5-.47c.93-.88,2.69-.83,3.56.13-.03,0-.06,0-.1,0h-.25c-.09,0-.19.02-.28.03-2.24.29-4.48,2.32-4.56,4.66v.14s0,.02,0,.03v.02s0,.06,0,.1c0,.09,0,.17.02.26l.05.29c0,.05.02.09.04.14l.04.14c.52,1.46,2.06,2.19,3.51,2.21h.16s0-.02,0-.02h0s.07.01.07.01h.01c.06-.06.03-.02,0,.01h.06s-.01,0,.05,0c.22-.66.05-.57,0-.52,0,0,.01-.01.01-.01-.03,0-.05,0-.08-.01l-.12-.03c-.84-.2-1.63-.8-1.63-1.74v-.03h0c0-.08,0-.14.01-.2,0-.04.01-.07.02-.1,0-.03,0-.06.02-.1l.03-.11c.34-.91,1.03-1.45,2.07-1.63.08,0,.15-.03.23-.03h.24s.01-.01.01-.01h.04c.14,0,.28,0,.41.04.15.02.3.07.45.11,2.05.77,2.89,3.17,2.88,5.19,0,.17-.01.34-.02.51-.02.16-.04.32-.06.48-.03.16-.06.32-.1.48-.39,1.25-1.07,2.33-1.91,3.32-.64-.92-1.4-1.73-2.17-2.55-.21-.2-.42-.39-.63-.59-1.31-1.18-2.79-2.09-4.42-2.75-.19-.06-.38-.12-.57-.18-.2-.05-.4-.1-.6-.14-.28-.04-.57-.09-.83-.1h-.2s-.03-.01-.03-.01h-.01s-.02,0-.03,0c-.05,0-.11,0-.16,0-.14,0-.29.02-.43.04-.07,0-.14.02-.22.03l-.21.04c-.11.03-.21.06-.32.08-.1.04-.21.07-.31.11-.21.08-.41.18-.6.29-.13.08-.26.16-.38.25l-.18.14c-.08.08-.17.16-.25.24-.08.09-.15.18-.22.27l-.13.2-.03.05-.03.05-.05.11c-.08.14-.12.29-.18.44-.03.12-.05.25-.07.37v.11c-.15,1.3.88,2.61,2.2,2.69h.05s.03,0,.03,0h.15c.1,0,.21,0,.31-.03.09-.03.17-.08.21-.18.04-.12.02-.22-.05-.31-.02-.02-.02-.02-.04-.04-.07-.06-.1-.07-.13-.09l-.19-.11c-.4-.22-.65-.45-.7-.87v-.02s0-.1.02-.14c.03-.1.07-.2.13-.3.06-.1.14-.19.22-.27,2.39-2.3,2.91,2.49,3.99,3.39.09.09.2.15.31.22.11.05.22.12.33.15.23.09.45.13.69.16.11,0,.21,0,.31.01h.05s.04,0,.04,0c1.27-.15,2.07-.91,2.43-2.11.08-.32.13-.65.15-.98v-.02c.07.06.13.12.19.18.78.83,1.51,1.67,2.19,2.58-.99,1.13-2.05,2.21-2.91,3.45-.11-.04-.25-.11-.44-.17-.21-.08-.47-.17-.76-.26-.53-.14-1.05-.27-1.6-.34-4-.65-8.11,1.01-11.2,3.46-.14.12-.29.24-.43.36l-.03.02c-.11.1-.21.19-.32.29-1.83-1.18-4.47-.65-4.47-3.71,0-2.14,3.31-1.45,3.31-2.27,0-2.59-5.78.39-6.19,2.39-.67,3.27,1.24,6.62,3.92,8.39-.28.75-.57,1.49-.82,2.25-.07.26-.15.53-.23.82-.15.65-.32,1.29-.38,1.96-.02.18-.04.37-.06.55,0,.21-.02.41-.03.62v.05c0,.46.03.91.05,1.37,0,.05,0,.09.01.13-.01,0-.03,0-.05.01-6.29,2.83-12.95,11.45-11.35,18.68v.04s-.03,0-.03,0c-7.23-1.59-15.85,5.06-18.68,11.35,0,.01,0,.03-.01.05-.04,0-.09-.01-.13-.02-.44-.02-.89-.05-1.33-.06h-.09c-1.06.04-2.09.23-3.13.48-.29.08-.56.16-.82.23-.76.25-1.51.53-2.25.82-2.11-2.53-4.86-4.65-8.39-3.92-2,.41-4.97,6.19-2.39,6.19.83,0,.14-3.31,2.27-3.31,3.06,0,2.53,2.64,3.71,4.47-.09.11-.19.21-.29.32l-.02.03c-.12.15-.24.29-.36.44-2.45,3.09-4.11,7.19-3.46,11.2.07.54.2,1.07.34,1.6.09.3.17.55.25.76.07.19.13.33.18.44-1.24.87-2.32,1.92-3.45,2.91-.91-.68-1.76-1.4-2.58-2.19-.06-.06-.12-.13-.18-.19.1,0,.2,0,.3-.02.24-.02.47-.07.71-.13,1.21-.35,1.96-1.16,2.11-2.43v-.04s0-.02,0-.02v-.03c0-.1,0-.2-.01-.31-.03-.24-.07-.46-.16-.69-.04-.11-.1-.22-.15-.33-.07-.1-.13-.21-.22-.31-.91-1.09-5.69-1.59-3.39-3.99.09-.08.18-.16.28-.22.1-.07.2-.11.3-.14.05-.01.1-.02.14-.02h.04s.02,0,.03,0c.39.06.62.37.81.7l.1.19s.03.07.09.13c.08.1.22.15.35.09.1-.05.14-.12.17-.21.02-.08.03-.15.03-.23,0-.03,0-.05,0-.08v-.18s0-.05,0-.05c-.08-1.32-1.39-2.35-2.69-2.21h-.11c-.12.03-.25.05-.37.08-.15.05-.3.1-.44.18-.05.03-.11.05-.16.08-.08.05-.16.11-.25.16-.07.05-.12.1-.18.15l-.09.08s-.05.05-.08.08l-.16.17-.14.18c-.09.12-.17.25-.25.38-.07.13-.15.26-.2.4-.03.07-.06.13-.09.2-.03.1-.07.21-.11.31-.03.11-.06.21-.08.32l-.04.21c-.01.07-.03.14-.03.22-.02.14-.03.29-.04.43,0,.05,0,.11,0,.16v.03h0v.24c.01.26.07.55.11.83.04.2.09.4.14.59.06.19.12.38.18.57.67,1.66,1.64,3.02,2.75,4.42.2.21.39.42.59.63.81.78,1.64,1.51,2.55,2.17-1,.84-2.07,1.51-3.33,1.91-.16.04-.32.07-.48.1-.16.02-.32.04-.47.06-.17.01-.34.01-.51.02-2.01.01-4.42-.82-5.19-2.88-.05-.15-.09-.3-.11-.45-.02-.08-.02-.15-.03-.22,0-.06,0-.12,0-.19v-.03s0,0,0,0h0s0-.02,0-.02v-.24c.01-.08.03-.16.04-.23.18-1.04.72-1.73,1.63-2.07l.11-.03s.07-.01.1-.02c.03,0,.06-.01.1-.02.06,0,.13,0,.19-.01h.04c.94,0,1.54.79,1.74,1.63.01.05.02.1.03.15v.03s0,.02,0,.02c0,0,0,0,.01-.01-.05.06-.15.23.52.01,0-.06,0-.06,0-.06v-.05s-.07.06,0,0h0s-.01-.08-.01-.08h0s.02,0,.02,0v-.15c-.02-1.45-.75-3-2.21-3.51l-.13-.04s-.09-.03-.14-.04l-.29-.05c-.09-.01-.17-.01-.26-.02h-.07s-.03,0-.03,0h-.02s0,0-.03,0h-.14c-2.35.09-4.37,2.32-4.66,4.56,0,.09-.02.19-.02.28v.25s-.01.07-.02.1c-.94-.9-1.03-2.62-.13-3.56l.48-.5c-.36.03-.73.07-1.09.11-.14.03-.28.06-.41.09l-.27.09c-1.06.42-1.84,1.31-2.23,2.37l-.09.26c-.05.18-.09.37-.11.56v.07c-.01.07-.02.13-.02.2-.04,1.08.78,1.76.97,2.74.03.1.01.18-.06.25,0,0-.03.01-.05.03-.02.01-.06.02-.08.04-.13.05-.29.07-.45.09-.08,0-.15.01-.24.01-.06,0-.13,0-.19,0h-.06c-.08,0-.16,0-.24-.02-.96-.06-1.85-.51-2.81-.6h-.14c-.07-.02-.13-.02-.2-.02h-.05s-.01,0-.02,0h0s-.15,0-.15,0c-.75.12-1.42.42-2,.92l-.42.3c-.07.05-.14.1-.2.16-.05.05-.1.09-.15.14l-.53-.08.32.28-.32.28ZM185.16,100.38c-.32-.14-.65-.27-.99-.38,1.32-.39,2.52-1.34,3.93-1.36.08,0,.18,0,.25.01h.12s.12.03.12.03c.33.08.62.23.87.46.36.3.73.59,1.11.86-.38.27-.75.56-1.11.86-.25.22-.54.38-.87.46l-.12.02h-.12c-.08.02-.18.02-.25.02-1.04-.12-2.02-.45-2.93-.98-.32-.14.65.28,0,0ZM175.65,100.14h.03-.03s0,0,0,0ZM175.65,99.85h.03s-.03,0-.03,0h0ZM28.18,97.86c.63-.37,1.27-.69,1.94-.97l.37.42c.07.08.14.17.22.24.19.18.38.37.56.55.2.18.4.35.6.53.24.2.49.41.75.6.17.13.34.25.51.38.12.09.24.17.36.25-1.1,0-2.3.16-3.39-.04h.07c-.26-.15-.53-.27-.81-.38l-.82-.35c-.07-.03-.13-.06-.2-.09-.2-.1-.4-.19-.6-.29-.17-.09-.34-.18-.51-.27.31-.19.63-.38.95-.57.42-.24-.32.19,0,0ZM34.5,99.82l-.45.02c-.24-.17-.48-.34-.72-.52-.17-.13-.33-.25-.5-.38-.08-.06-.16-.13-.24-.2l-.48-.4c-.19-.17-.38-.35-.57-.52-.19-.19-.37-.37-.56-.56-.08-.07-.14-.15-.21-.23l-.26-.3c.09-.03.18-.07.27-.1l.51-.17c.29-.08.58-.18.87-.23l.71-.15c.3-.04.6-.1.9-.13.3-.03.6-.05.9-.07.36-.01.73-.02,1.09-.03l.72.02c.24,0,.48.03.72.05l.36.03c.3.02.6.09.89.14.06,0,.12.03.18.04.2.05.41.1.61.15.26.08.51.16.77.25l.33.13c.11.05.23.08.33.14.43.2.86.43,1.26.69l.3.2.29.21c.94.66,1.78,1.45,2.72,2.11-.94.65-1.78,1.45-2.72,2.1l-.29.21-.3.2c-.4.26-.83.48-1.26.69-.11.06-.22.09-.33.14l-.33.13c-.23.08-.46.15-.68.22l-.09.03-.09.02c-.23.05-.47.12-.7.16-.29.05-.59.12-.89.14l-.36.03c-.24.02-.48.05-.72.05l-.72.02c-.36,0-.73-.02-1.09-.03-.3-.03-.6-.05-.9-.07-.3-.03-.6-.08-.9-.13l-.71-.15c-.29-.05-.59-.15-.87-.23-.17-.06-.34-.12-.51-.17-.09-.03-.18-.07-.27-.1l.26-.3c.07-.08.13-.16.21-.23.18-.19.37-.37.56-.56.19-.17.38-.35.57-.52l.48-.4c.08-.07.16-.13.24-.2.17-.13.33-.25.5-.38.24-.17.48-.35.72-.52l.45.02-.24-.18.24-.18ZM48.43,100.32c-1.44.9-2.7,2.57-2.25,4.35-.44-.73-.95-1.41-1.51-2.04,1.01-.91,2.26-1.55,3.24-2.44l.5.1-.3-.29.3-.29-.5.1c-1.02-.92-2.24-1.44-3.24-2.44.57-.63,1.07-1.31,1.51-2.04-.51,2.01,1.12,3.87,2.83,4.68-.2.09-.39.2-.58.32-1.39.87.19-.12,0,0ZM32.14,81.41c.58,3.65,1.38,8.19,5.69,9.01,5.21.99,7.42-5.84,2.26-6.01,2.93-2.03,5.8.24,7.23,2.85-.24,1.49-.58,2.96-1.01,4.41-.6,1.76-1.31,3.48-2.45,4.97-2.32-2.14-4.96-4.61-8.35-4.61-.11,0-.21,0-.32,0h-.03c-.23,0-.46.01-.69.02-.26.02-.52.04-.78.06-.26.03-.52.07-.77.11-.21.04-.43.09-.64.13-.13.03-.25.07-.38.1-1.1.31-2.13.78-3.08,1.41-.04-.09-.08-.21-.13-.34-.27-.72-.45-1.5-.53-2.26-.55-3.7.99-7.5,3.23-10.37.18-.22.37-.44.55-.66.07.38.13.77.2,1.18.05.33-.07-.41,0,0ZM47.98,80.42c-.14,2.02-.27,4.04-.54,6.05-1.52-2.46-4.01-4.12-6.87-2.87-2.81,1.22,1.01,1.59,1.75,2.75,2.29,3.6-3.78,4.1-5.8,3.13-2.51-1.21-3.2-4.18-3.64-6.67,4.07,1.57,5.68-3.22,4.13-6.18h0c.68-.27,1.37-.5,2.07-.71.25-.07.51-.14.79-.21.98-.21,1.95-.38,2.96-.4h.05c.37,0,.74.03,1.11.06-1.01,2.92.09,5.09,3.44,5.09.21,0,.38,0,.55-.02ZM49.7,77.56c.02-.09.04-.19.06-.28,2.29,1.38,4.09,3.36,5.39,5.69.29.56.53,1.11.77,1.69.25.7.48,1.4.62,2.13-2.76,2.94-.6,8.18-3.48,10.96-1.61,1.55-5.37,1.09-5.37-1.62,0-1.27,2.83-2.67,2.76-3-.23-1.04-3.21.48-3.51.8,2.12-4.37,2.21-9.4,2.46-14.15.06-.74.16-1.47.29-2.2.02-.09-.11.58,0,0ZM77.3,120.03c.86-4.32-.98-8.51-5.19-10.25-3.9-1.61-8.81,1.53-12.33-1.25,5.91-9.12,18.57-9.19,27.98-6.83-1.76,1.83-.22,4.29,2.06,4.07,2.63-.25,5.48-2.33,7.27-4.12h0c.21.2.41.41.62.62h0c.21.21.41.41.62.62h0c-1.79,1.79-3.86,4.64-4.12,7.27-.22,2.28,2.25,3.82,4.08,2.06,2.36,9.41,2.3,22.06-6.83,27.98-2.78-3.53.37-8.42-1.25-12.33-1.74-4.22-5.93-6.05-10.25-5.19,1.83-1.72,4.35-2.99,6.86-3.47-1.22,4.97,3.43,3.7,5.68,2.24,2.6-1.69,3.81,3.99.48,4.24v.3c5.31,0,3.06-6.28,0-7.79-3.96-1.96-9.6-.24-13.1,2l-.06-.06h0l-.06-.06c2.24-3.5,3.97-9.14,2-13.1-1.51-3.05-7.79-5.3-7.79,0h.3c.25-3.38,6.73-2.12,3.54,1.34-2.17,2.36-.28,5.63,2.95,4.83-.48,2.51-1.75,5.03-3.47,6.86.19-.92,1.72-1.83,0,0ZM71.65,115.7c2.19-2.01,4.51,1.64,4.51,3.46,0,2.05-.98,3.96-2.5,5.29-3.54,3.11-8.19,2.62-11.64-.23,2.11-1.27,4.77-1.55,7.18-1.48,5.04,0,7.41-7.86,2.45-7.04ZM77.27,130.8c.08,2.41-.21,5.07-1.48,7.18-3.15-3.82-3.33-9.44.88-12.68,2.4-1.85,11.11-.73,7.64,3.05.27-1.64-1.2-3.06-2.79-3.06-2.01,0-4.25,2.26-4.25,5.51ZM93.12,149.55c-1.04.23.48,3.21.8,3.51-4.2-2.05-9.12-2.24-13.7-2.43-.15,0-.3-.02-.44-.03-.83-.07-1.67-.18-2.49-.35,1.39-2.29,3.36-4.09,5.69-5.39.56-.28,1.11-.53,1.69-.77.7-.25,1.4-.48,2.13-.62,2.94,2.76,8.18.6,10.95,3.48,1.55,1.61,1.09,5.37-1.62,5.37-1.27,0-2.67-2.83-3-2.76-.18.04.16-.03,0,0ZM98.7,153.72c-.42.56-.87,1.1-1.34,1.62-.63-.57-1.31-1.07-2.04-1.51,2.01.51,3.87-1.12,4.68-2.83.81,1.7,2.66,3.33,4.67,2.83-.73.44-1.41.95-2.04,1.51-.91-1.01-1.55-2.25-2.44-3.24l.1-.5-.29.3-.29-.3.1.5c-.36.55-.73,1.09-1.11,1.63-.4.54.2-.27,0,0ZM106.08,153.06c.32-.3,1.84-3.27.8-3.51-1.08-.23-1.52,4.17-4.3,2.39-1.61-1.03-1.56-3.71-.33-4.99,2.77-2.89,8.01-.72,10.96-3.48.73.14,1.43.37,2.13.62.58.25,1.13.49,1.69.77,2.33,1.3,4.3,3.1,5.69,5.39-.82.17-1.65.28-2.49.35-.15.01-.3.02-.44.03-4.59.19-9.49.39-13.71,2.43.62-.58.35-.17,0,0ZM111.58,125.11c-4.38,4.67.45,10.67-3.05,15.11-9.12-5.91-9.19-18.57-6.83-27.98,1.83,1.76,4.29.22,4.08-2.06-.25-2.63-2.33-5.48-4.12-7.27h0c.21-.21.41-.41.62-.62h0c.21-.21.42-.41.62-.62h0c1.79,1.79,4.64,3.87,7.27,4.12,2.28.22,3.82-2.25,2.07-4.07,9.41-2.36,22.06-2.3,27.98,6.83-3.53,2.78-8.42-.37-12.33,1.25-4.22,1.74-6.05,5.93-5.19,10.25-1.72-1.83-2.99-4.35-3.47-6.86,4.98,1.21,3.7-3.42,2.25-5.68-1.68-2.61,3.99-3.81,4.24-.48h.3c0-5.31-6.28-3.06-7.79,0-1.96,3.96-.24,9.6,2.01,13.1l-.06.06h0l-.06.06c-3.5-2.24-9.14-3.97-13.1-2-3.05,1.51-5.3,7.79,0,7.79v-.3c-3.38-.25-2.12-6.73,1.34-3.54,2.36,2.17,5.63.28,4.83-2.95,2.51.48,5.03,1.75,6.86,3.47-3.14-.63-6.19,0-8.45,2.41-1.55,1.65,1.62-1.73,0,0ZM115.7,128.35c-2.01-2.19,1.64-4.51,3.46-4.51,2.05,0,3.96.98,5.29,2.5,3.11,3.54,2.62,8.19-.23,11.64-1.27-2.11-1.56-4.77-1.48-7.18,0-3.25-2.24-5.51-4.25-5.51-1.59,0-3.07,1.41-2.79,3.06ZM130.8,122.73c2.42-.08,5.07.21,7.18,1.48-3.82,3.15-9.45,3.33-12.68-.88-1.85-2.4-.73-11.11,3.05-7.64-.13-.02-.26-.03-.39-.03-5.4,0-1.26,7.07,2.84,7.07ZM122.7,79.97c-.86,4.32.98,8.51,5.19,10.25,3.9,1.61,8.81-1.53,12.33,1.25-5.91,9.12-18.57,9.19-27.98,6.83,1.75-1.83.22-4.29-2.07-4.07-2.63.25-5.48,2.33-7.27,4.12h0c-.21-.2-.41-.41-.62-.62h0c-.21-.21-.41-.41-.62-.62h0c1.76-1.89,3.86-4.58,4.12-7.27.22-2.28-2.25-3.82-4.08-2.06-2.36-9.41-2.3-22.07,6.83-27.98,2.78,3.52-.37,8.42,1.25,12.33,1.74,4.22,5.93,6.05,10.25,5.19-1.83,1.72-4.35,2.99-6.86,3.47,1.21-4.98-3.42-3.7-5.68-2.25-2.61,1.68-3.8-3.99-.48-4.24v-.3c-5.31,0-3.06,6.28,0,7.79,3.96,1.96,9.6.24,13.1-2l.06.06h0l.06.06c-2.24,3.5-3.97,9.14-2,13.1,1.51,3.05,7.79,5.3,7.79,0h-.3c-.26,3.38-6.73,2.12-3.54-1.34,2.17-2.36.28-5.63-2.95-4.83.48-2.51,1.75-5.03,3.47-6.86-.18.92-1.72,1.83,0,0ZM128.35,84.3c-2.19,2.01-4.51-1.64-4.51-3.46,0-2.05.98-3.96,2.5-5.29,3.54-3.11,8.19-2.62,11.64.23-2.11,1.27-4.77,1.55-7.18,1.48-5.04,0-7.41,7.86-2.45,7.04ZM122.74,69.2c-.08-2.41.21-5.07,1.48-7.18,3.15,3.82,3.33,9.44-.87,12.68-2.41,1.85-11.11.73-7.64-3.05-.25,1.64,1.18,3.06,2.79,3.06,2.01,0,4.25-2.26,4.25-5.51ZM106.88,50.45c1.04-.23-.48-3.21-.8-3.51,4.21,2.04,9.11,2.24,13.7,2.43.15,0,.3.02.44.03.83.07,1.67.18,2.49.35-1.38,2.29-3.36,4.09-5.69,5.39-.56.28-1.11.53-1.69.77-.7.25-1.4.48-2.13.62-2.94-2.76-8.18-.6-10.96-3.48-1.55-1.61-1.09-5.37,1.62-5.37,1.27,0,2.67,2.83,3,2.76.18-.04-.16.03,0,0ZM101.3,46.28c.42-.56.87-1.1,1.34-1.62.63.57,1.31,1.07,2.04,1.52-2.01-.51-3.87,1.12-4.68,2.83-.8-1.7-2.66-3.33-4.67-2.83.73-.44,1.41-.95,2.04-1.51.91,1.01,1.55,2.26,2.44,3.24l-.1.5.29-.3.29.3-.1-.5c.36-.55.73-1.09,1.11-1.63.4-.54-.2.27,0,0ZM93.92,46.94c-.32.3-1.84,3.27-.81,3.51,1.08.23,1.52-4.17,4.3-2.39,1.61,1.03,1.56,3.71.33,4.99-2.77,2.88-8.02.72-10.96,3.48-.73-.14-1.43-.37-2.13-.62-.58-.24-1.13-.49-1.69-.77-2.32-1.3-4.31-3.1-5.69-5.39.82-.17,1.65-.28,2.49-.35,4.77-.26,9.77-.36,14.15-2.46-.63.58-.35.17,0,0ZM88.42,74.89c4.38-4.66-.46-10.68,3.05-15.11,9.12,5.91,9.19,18.57,6.83,27.98-1.83-1.76-4.29-.22-4.07,2.06.25,2.63,2.33,5.48,4.12,7.27h0c-.21.21-.41.41-.62.62h0c-.21.21-.41.41-.62.62h0c-1.89-1.76-4.58-3.86-7.27-4.12-2.28-.22-3.82,2.25-2.06,4.07-9.41,2.36-22.06,2.3-27.98-6.83,3.52-2.78,8.43.36,12.33-1.25,4.21-1.74,6.06-5.93,5.19-10.25,1.72,1.83,2.99,4.35,3.47,6.86-4.97-1.22-3.7,3.43-2.24,5.68,1.69,2.61-3.99,3.81-4.24.48h-.3c0,5.31,6.27,3.06,7.79,0,1.96-3.96.24-9.6-2-13.1l.06-.06h0l.06-.06c3.5,2.24,9.14,3.97,13.1,2,3.05-1.51,5.3-7.79,0-7.79v.3c3.38.25,2.12,6.73-1.34,3.54-2.36-2.17-5.63-.28-4.83,2.95-2.51-.48-5.03-1.75-6.86-3.47,3.14.62,6.19,0,8.45-2.41,1.55-1.65-1.62,1.73,0,0ZM84.3,71.65c2.01,2.19-1.64,4.51-3.46,4.51-2.05,0-3.96-.98-5.29-2.5-3.11-3.54-2.62-8.19.23-11.64,1.27,2.11,1.56,4.77,1.48,7.18,0,3.25,2.24,5.51,4.25,5.51,1.59,0,3.07-1.41,2.79-3.06ZM69.2,77.26c-2.41.08-5.07-.21-7.18-1.48,3.82-3.15,9.45-3.33,12.68.88,1.85,2.4.73,11.11-3.05,7.64.13.02.26.03.39.03,5.4,0,1.26-7.07-2.84-7.07ZM89.59,100c.72-2.82,4.67-.74,6.13,0-1.47.73-5.41,2.83-6.13,0,.23-.91.23.91,0,0ZM100,110.41c-2.82-.72-.74-4.66,0-6.13.66,1.31,1.36,2.45,1.36,3.99,0,1.21-.44,1.91-1.36,2.14ZM92.57,141.38c3.39-2.21,6.01-5.7,7.43-9.87,1.42,4.18,4.04,7.66,7.43,9.87-3.99,1.46-6.42,3.15-7.43,5.16-1.01-2.02-3.44-3.71-7.43-5.16,3.39-2.21,3.99,1.46,0,0ZM100,89.59c2.82.72.74,4.66,0,6.13-.65-1.32-1.36-2.45-1.36-3.99,0-1.21.44-1.91,1.36-2.14ZM107.43,58.62c-3.39,2.21-6.01,5.7-7.43,9.87-1.42-4.18-4.04-7.66-7.43-9.87,3.99-1.46,6.42-3.15,7.43-5.16,1.01,2.02,3.44,3.71,7.43,5.16-3.39,2.21-3.99-1.46,0,0ZM97.72,99.85c.03-.45.21-.87.5-1.2l.64.64c-.13.17-.21.36-.23.57h-.9ZM98.63,100.15c.03.21.11.4.23.56l-.64.64c-.29-.34-.47-.76-.5-1.2h.9ZM99.85,98.93v.49l-.35-.35c.1-.07.22-.12.35-.15ZM99.29,98.86l-.64-.64c.34-.29.76-.46,1.2-.5v.9c-.21.03-.4.11-.56.23ZM99.85,99.85h.3v.23l-.11-.11-.03.03-.04-.04-.11.11v-.23ZM100.15,99.42v-.49c.13.02.25.07.35.14l-.35.35ZM100.15,97.72c.45.03.87.21,1.2.5l-.64.64c-.17-.13-.36-.21-.57-.23v-.9ZM100.92,99.5c.07.1.12.22.15.35h-.5l.35-.35ZM101.07,100.15c-.02.13-.07.24-.14.35l-.35-.35h.5ZM100.15,101.07v-.5l.35.35c-.1.07-.22.12-.35.15ZM100.71,101.14l.64.64c-.34.29-.76.46-1.2.5v-.9c.21-.03.4-.11.56-.23ZM100.08,100.15h-.16l.08-.08.08.08ZM99.85,100.57v.5c-.13-.02-.25-.07-.35-.14l.35-.35ZM99.85,102.28c-.45-.03-.87-.21-1.2-.5l.64-.64c.16.13.36.21.56.23v.9ZM99.08,100.5c-.07-.1-.12-.22-.15-.35h.5l-.35.35ZM98.93,99.85c.02-.13.07-.25.14-.35l.35.35h-.5ZM101.14,99.29l.64-.64c.29.34.46.76.5,1.2h-.9c-.03-.21-.11-.4-.23-.56ZM101.37,100.15h.9c-.03.45-.21.87-.5,1.2l-.64-.64c.13-.17.21-.36.23-.57ZM104.28,100c1.47-.73,5.41-2.83,6.13,0-.72,2.82-4.66.74-6.13,0,.2-.1.2.1,0,0ZM131.51,100c4.18-1.42,7.66-4.04,9.87-7.43,1.46,3.99,3.15,6.42,5.16,7.43-2.01,1.01-3.71,3.44-5.16,7.43-2.21-3.39-5.7-6.01-9.87-7.43,4.18-1.42,4.18,1.42,0,0ZM68.49,100c-4.18,1.42-7.66,4.04-9.87,7.43-1.45-3.99-3.15-6.42-5.16-7.43,2.02-1.01,3.71-3.44,5.16-7.43,2.21,3.39,5.7,6.01,9.87,7.43-4.18,1.42-4.18-1.42,0,0ZM58.18,64.97c.39-.18.72-.3.97-.39-3.68,2.91-4.75,9.25-2.56,13.32,1.46,2.72,9.3,6.66,8.3.69,1.86-.27,5.27-.69,6.77.76-3.16.71-4.48,5.16-2.41,7.58,1.23,1.43,4.62,1.47,4.25-1.11,1.28-.21,2.45-1.23,3-2.54-.7,7.42-9.28,4.97-14.06,5.35,2.54-3.25-3.11-3.74-4.89-2.7-.18-.57-.35-1.14-.56-1.7-.27-.62-.54-1.22-.86-1.81-1.44-2.5-3.54-4.86-6.16-6.17,1.13-4.52,3.79-9.26,8.2-11.27.39-.18-.48.22,0,0ZM61.73,67.88c0-.76,2.2-.61,1.12-1.87-1.03-1.19-2.71.47-2.71,1.57,0,4.27,7.98,1.92,5.38-2.07,3.99,2.6,6.33-5.37,2.07-5.37-1.1,0-2.76,1.69-1.57,2.71,1.26,1.08,1.11-1.12,1.87-1.12,1.41,0,.65,2.89-.85,2.89-2.56,0-1.8-3.34-.7-4.46,2.24-2.32,6.56-1.45,8.59.71-3.06,3.28-3.79,8.47-1.62,12.42h0s-.01,0-.01,0c-3.95-2.16-9.14-1.43-12.42,1.62-2.55-2.39-3.26-9.67,1.74-9.67,5.37,0-.88,5.3-.88,2.63ZM72.59,51.26c1.18-.54,2.41-.94,3.66-1.27,1.21,2.62,3.73,4.74,6.17,6.16.59.32,1.19.59,1.81.86.56.21,1.12.41,1.7.56-1.04,1.78-.56,7.43,2.69,4.89-.37,4.77,2.07,13.36-5.35,14.06,1.31-.55,2.33-1.72,2.54-3,2.58.37,2.54-3.02,1.11-4.25-2.41-2.07-6.86-.75-7.58,2.41-1.45-1.49-1.02-4.9-.75-6.77,5.97.99,2.03-6.84-.69-8.3-4.07-2.19-10.4-1.12-13.31,2.56,1.29-3.71,4.53-6.31,8-7.9,1.02-.46-1.02.47,0,0ZM82.8,32.87c3.8.67,7.26,2.16,7.26,6.58,0,1.94-1.62,4.2-3.72,2.86-.69-.44-1.32-2.9-1.81-2.9-3.96,0,.76,7.31,1.93,8.03-2.01.27-4.03.4-6.05.54.28-3.54-1.88-5.08-5.07-3.98-.03-.37-.05-.74-.06-1.11v-.03s0-.02,0-.02c.02-1,.18-1.98.4-2.96.07-.28.15-.54.21-.79.21-.7.44-1.39.71-2.07h0c.9.46,1.8.71,2.62.71,2.6,0,4.56-2.28,3.56-4.85ZM94.68,41.66c.63.76,1.3,1.48,1.96,2.2-2.67,2.05-6.11,2.94-9.37,3.46-2.61-1.43-4.87-4.3-2.85-7.23.18,5.38,8.25,2.47,5.6-3.61-1.61-3.68-6.37-3.96-9.78-4.54.22-.18.44-.37.66-.55,2.91-2.24,6.64-3.75,10.37-3.23.76.09,1.55.26,2.26.53.13.04.25.09.34.13-.63.95-1.1,1.98-1.41,3.08-.03.13-.07.25-.1.38-.05.21-.09.43-.13.64-.04.26-.08.52-.11.78-.02.26-.04.52-.06.78,0,.22-.01.43-.02.65v.07c0,.11,0,.21.01.32,0,2.31,1.24,4.42,2.65,6.15.63.76-.44-.54,0,0ZM98.71,27.74c.1.2.19.4.29.6.03.07.06.13.09.2l.35.82c.1.28.23.55.39.81v-.07c.18,1.08.03,2.29.03,3.38-.08-.12-.16-.24-.25-.36-.13-.17-.25-.34-.38-.51-.19-.25-.4-.5-.6-.74-.18-.2-.35-.4-.53-.6-.18-.19-.37-.38-.55-.56-.07-.08-.16-.15-.24-.22l-.42-.37c.42-1.01.97-1.96,1.54-2.89l.06.12c.07.13.14.27.21.4ZM101.18,12.91c-.42.97-.81,1.94-1.18,2.93-.39-1.32-1.34-2.52-1.36-3.93,0-.08,0-.18.01-.25v-.12s.03-.12.03-.12c.08-.33.23-.62.46-.87.3-.36.6-.72.86-1.11.17.24.35.47.53.7l.33.41c.23.25.38.54.46.87l.02.12v.12c.02.08.02.18.02.25,0,.33-.08.67-.18,1-.21.66.1-.33,0,0ZM99.86,24.32v.03h0v-.03ZM100.15,24.35h0v-.03.03ZM101.25,26.72c-.14.26-.28.52-.41.78-.13.28-.27.55-.4.83-.12.28-.25.55-.36.83l-.08.21s0,0,0,0c0,0,0,0,0,0l-.08-.21c-.11-.28-.24-.56-.36-.83-.12-.28-.26-.55-.4-.83-.13-.26-.27-.52-.41-.78.35-.55.69-1.1,1.02-1.66l.23-.4.23.4.38.63.64,1.03ZM102.81,29.45c.1.22.2.44.3.66l-.42.37c-.08.07-.17.14-.24.22-.18.19-.37.38-.55.56-.18.2-.35.4-.53.6-.2.24-.41.49-.6.74-.12.17-.25.34-.38.51-.08.12-.17.24-.25.36,0-1.09-.18-2.32.04-3.38v.07c.15-.25.27-.53.37-.81l.35-.82c.11-.27.25-.54.38-.8.09-.17.18-.34.27-.51.45.72.87,1.46,1.25,2.23.1.22-.21-.43,0,0ZM104.15,35.76l-.02.72c0,.24-.03.48-.05.72l-.03.36c-.03.3-.09.6-.14.89,0,.06-.03.12-.04.18-.04.18-.08.35-.12.53l-.02.09c-.08.26-.16.51-.25.77l-.13.33c-.05.11-.08.23-.14.33-.2.43-.43.86-.69,1.26l-.2.3-.21.29c-.66.94-1.45,1.78-2.11,2.72-.65-.94-1.45-1.78-2.1-2.72l-.21-.29-.2-.3c-.26-.4-.49-.83-.69-1.26-.06-.11-.09-.22-.14-.33l-.13-.33c-.08-.26-.17-.51-.25-.77l-.02-.09c-.05-.23-.12-.47-.16-.7-.05-.29-.12-.59-.14-.89l-.03-.36c-.02-.24-.05-.48-.05-.72l-.02-.72c0-.36.02-.73.03-1.09.03-.3.05-.6.07-.9.03-.3.09-.6.13-.89l.15-.71c.05-.29.14-.59.23-.87.06-.17.12-.34.17-.51.03-.09.07-.18.1-.27l.3.26c.08.07.16.13.23.21.15.15.3.3.45.44l.11.11c.17.19.34.38.52.58l.4.48c.07.08.13.16.2.24.13.17.25.33.38.5.17.24.35.48.52.72l-.02.45.18-.24.18.24-.02-.45c.17-.24.34-.48.52-.72.13-.17.25-.33.38-.5.06-.08.13-.16.2-.24l.4-.48c.17-.19.35-.38.52-.58.19-.18.37-.37.56-.55.07-.08.15-.14.23-.21l.3-.26c.03.09.07.18.1.27.06.17.12.34.17.51.08.29.18.58.23.87l.15.71c.04.3.1.6.13.89.03.3.05.6.07.9v.36c.02.24.03.49.03.72ZM119.7,31.88s.05.04.07.06c-3.41.58-8.18.86-9.78,4.54-2.66,6.09,5.42,8.98,5.6,3.61,2.03,2.93-.24,5.8-2.85,7.23-1.49-.24-2.95-.58-4.4-1.01-1.76-.59-3.48-1.32-4.97-2.45,2.14-2.32,4.61-4.96,4.61-8.35,0-.11,0-.21,0-.32v-.03s0-.04,0-.04v-.13s-.02-.52-.02-.52c-.02-.26-.04-.52-.06-.78-.03-.26-.07-.52-.11-.78-.04-.21-.09-.43-.13-.64-.03-.13-.07-.25-.1-.38-.31-1.1-.78-2.13-1.41-3.08.09-.04.21-.08.34-.13.71-.27,1.5-.45,2.26-.53,3.71-.52,7.48.98,10.37,3.23.2.16.4.32.59.49.02.02-.08-.07,0,0ZM124.71,42.89c0,.37-.03.74-.06,1.11-3.16-1.09-5.38.44-5.07,3.98-2.02-.14-4.04-.27-6.05-.54,2.46-1.52,4.12-4.01,2.87-6.87-1.22-2.81-1.59,1.01-2.75,1.74-3.6,2.29-4.1-3.78-3.13-5.79,1.21-2.51,4.18-3.2,6.67-3.64-1.57,4.08,3.22,5.68,6.18,4.13h0c.27.69.5,1.38.71,2.08.07.25.14.51.21.79.22.98.38,1.95.4,2.96v.05ZM135.03,58.18c.18.39.3.71.39.97-2.91-3.68-9.25-4.75-13.32-2.56-2.72,1.46-6.66,9.3-.69,8.3.27,1.86.69,5.27-.75,6.77-.72-3.16-5.16-4.48-7.58-2.41-1.43,1.23-1.47,4.62,1.11,4.25.21,1.28,1.23,2.45,2.54,3-7.42-.7-4.97-9.28-5.35-14.06,3.25,2.54,3.74-3.11,2.7-4.89.58-.16,1.14-.35,1.7-.56.62-.27,1.22-.54,1.81-.86,2.44-1.42,4.96-3.54,6.17-6.16,4.52,1.19,9.24,3.76,11.27,8.2.18.39-.22-.48,0,0ZM138.98,65.69c3.32,1.81,2.55,6.98.15,9.23-3.29-3.06-8.47-3.79-12.42-1.62h-.01s0,0,0,0c2.16-3.96,1.43-9.14-1.62-12.42,2.23-2.39,7.42-3.18,9.23.15.88,1.6-.51,5.16-2.47,3.12-.37-.39-.88-2.41.28-2.41.76,0,.61,2.2,1.87,1.12,1.19-1.03-.47-2.71-1.57-2.71-4.27,0-1.92,7.98,2.07,5.38-2.6,3.99,5.37,6.33,5.37,2.07,0-1.1-1.69-2.76-2.71-1.57-1.08,1.26,1.12,1.11,1.12,1.87,0,1.41-2.89.65-2.89-.85,0-1.97,2.39-2,3.6-1.34.31.17-.51-.28,0,0ZM149.91,75.84c.04.14.07.27.11.41-2.62,1.21-4.74,3.73-6.16,6.17-.32.59-.59,1.19-.86,1.81-.21.56-.42,1.12-.56,1.7-1.78-1.04-7.43-.56-4.89,2.69-4.78-.38-13.35,2.07-14.06-5.35.55,1.31,1.72,2.33,3.01,2.54-.43,2.58,3.04,2.51,4.25,1.11,2.07-2.41.75-6.86-2.41-7.58,1.5-1.45,4.9-1.02,6.77-.76-1,5.97,6.84,2.03,8.3-.69,2.19-4.07,1.12-10.4-2.56-13.31,4.82,1.68,7.78,6.56,9.06,11.25.04.14-.31-1.13,0,0ZM151.66,89.88c.33,1.39.78,2.75,1.4,4.04-.3-.32-3.27-1.84-3.51-.8-.23,1.07,4.17,1.52,2.39,4.3-1.03,1.61-3.71,1.56-4.99.33-2.89-2.77-.72-8.01-3.48-10.96.14-.73.37-1.43.62-2.13.24-.58.49-1.13.77-1.69,1.3-2.33,3.1-4.3,5.39-5.69.19.82.29,1.65.35,2.49.01.15.02.3.03.44.13,3.23.32,6.51,1.03,9.67.25,1.06-.24-1.06,0,0ZM153.82,104.68c.51-2.01-1.12-3.87-2.83-4.68,1.71-.81,3.33-2.66,2.83-4.67.44.73.95,1.41,1.51,2.04-1.01.91-2.26,1.55-3.24,2.44l-.5-.1.3.29-.3.29.5-.1c1,.9,2.23,1.53,3.24,2.44-.57.63-1.07,1.31-1.52,2.04.07-.26.36-.6,0,0ZM165.5,100.18l.45-.02c.24.17.48.34.72.52.17.13.33.25.5.38.25.18.49.4.72.6.19.17.38.35.57.52.18.19.37.37.55.56.08.07.14.15.21.23l.26.3c-.09.03-.18.07-.27.1-.17.06-.34.12-.51.17-.29.08-.58.18-.87.23l-.71.15c-.3.04-.6.1-.9.13-.3.03-.6.05-.9.07-.36.01-.73.02-1.09.03l-.72-.02c-.24,0-.48-.03-.72-.05l-.36-.03c-.3-.02-.6-.09-.89-.14-.27-.05-.53-.12-.79-.18-.26-.08-.51-.16-.77-.25-.22-.09-.45-.18-.67-.27-.43-.2-.86-.43-1.26-.69l-.3-.2-.29-.21c-.94-.66-1.78-1.45-2.72-2.11.94-.66,1.78-1.45,2.72-2.11l.29-.21.3-.2c.4-.26.83-.48,1.26-.69.11-.06.22-.09.33-.14l.33-.13c.26-.09.51-.17.77-.25.26-.06.52-.14.79-.18.29-.05.59-.12.89-.14l.36-.03c.24-.02.48-.05.72-.05l.72-.02c.36,0,.73.01,1.09.03.3.03.6.05.9.07.3.03.6.08.9.13l.71.15c.29.05.59.15.87.23.17.06.34.12.51.17.09.03.18.07.27.1l-.26.3c-.07.08-.13.16-.21.23-.18.19-.37.37-.55.56-.19.17-.38.35-.57.52-.24.2-.47.41-.72.6-.17.13-.33.25-.5.38-.24.17-.48.35-.72.52l-.45-.02.24.18-.24.18ZM167.13,82.8c-.67,3.8-2.16,7.26-6.58,7.26-1.94,0-4.2-1.62-2.86-3.72.44-.69,2.9-1.32,2.9-1.81,0-3.96-7.31.77-8.03,1.93-.27-2.01-.4-4.03-.54-6.05,3.54.28,5.08-1.88,3.98-5.07.37-.03.74-.05,1.11-.06h.12c.98.03,1.93.19,2.89.4.28.07.54.15.79.21.7.21,1.39.44,2.07.71h0c-1.26,2.41-.76,6.46,2.71,6.46.48,0,.96-.09,1.42-.27ZM171.66,92.33c-.09.4-.21.8-.35,1.19-.04.13-.09.25-.13.34-.95-.63-1.97-1.1-3.08-1.41l-.25-.07-.13-.03c-.21-.05-.43-.09-.64-.14-.26-.04-.52-.08-.78-.11-.26-.02-.52-.04-.78-.06-.22,0-.43-.01-.65-.02h-.04s-.03,0-.03,0c-.11,0-.21,0-.32.01-3.39,0-6.02,2.46-8.35,4.6-2.05-2.67-2.94-6.11-3.46-9.37,1.43-2.61,4.3-4.87,7.23-2.85-5.38.18-2.47,8.25,3.61,5.6,3.68-1.61,3.96-6.37,4.54-9.78.19.22.37.44.55.66,2.22,2.94,3.75,6.61,3.23,10.37-.05.36-.11.72-.19,1.08-.04.16.03-.17,0,0ZM171.82,97.87c.32.19.64.38.95.57-.17.09-.34.18-.51.27-.2.1-.4.19-.6.29-.07.03-.13.06-.2.09l-.82.35c-.28.1-.55.23-.81.39h.07c-1.08.18-2.29.03-3.38.03.12-.08.24-.16.36-.25.17-.13.34-.25.51-.38.26-.19.5-.4.74-.6.2-.18.4-.35.6-.53.19-.18.38-.37.56-.55.08-.07.15-.16.22-.24l.37-.42c.67.28,1.31.61,1.94.97.32.19-.42-.24,0,0ZM172.5,100.84c-.27-.13-.55-.27-.83-.4-.28-.12-.55-.25-.83-.36l-.21-.08h0s0,0,0-.01l.21-.08c.28-.11.56-.24.83-.36.28-.12.55-.26.83-.4.26-.13.52-.27.78-.41.55.35,1.1.69,1.66,1.02l.41.23-.41.23c-.56.33-1.11.67-1.66,1.02-.26-.14-.52-.28-.78-.41ZM171.82,102.13c-.63.37-1.27.69-1.94.97l-.37-.42c-.07-.08-.14-.17-.22-.24-.19-.18-.38-.37-.56-.55-.2-.18-.4-.35-.6-.53-.25-.2-.49-.41-.74-.6-.17-.12-.34-.25-.51-.38-.12-.09-.24-.17-.36-.25,1.1,0,2.3-.16,3.38.04h-.07c.26.15.53.27.81.38l.82.35c.07.03.13.06.2.09.2.1.4.19.6.29.17.09.34.18.51.27-.32.19-.63.38-.95.57-.42.24.32-.19,0,0ZM167.87,118.59c-.6-3.65-1.37-8.19-5.69-9.01-5.21-.99-7.42,5.83-2.26,6.01-2.93,2.03-5.8-.24-7.23-2.85.24-1.49.58-2.95,1.01-4.4.59-1.76,1.31-3.49,2.45-4.97,2.32,2.14,4.96,4.61,8.35,4.61.11,0,.21,0,.32,0h.03s.04,0,.04,0c.22,0,.43-.01.65-.02.26-.02.52-.04.78-.06.26-.03.52-.07.78-.11.21-.05.43-.09.64-.13.13-.03.25-.07.38-.1,1.1-.31,2.13-.78,3.08-1.41.04.09.08.21.13.34.27.72.45,1.5.53,2.26.52,3.76-1.01,7.43-3.23,10.37-.18.22-.36.45-.55.66-.07-.38-.13-.77-.19-1.18-.05-.33.07.41,0,0ZM152.02,119.58c.14-2.02.27-4.04.54-6.05.72,1.17,8.03,5.89,8.03,1.93,0-.49-2.46-1.12-2.9-1.81-1.34-2.1.92-3.72,2.86-3.72,4.42,0,5.91,3.47,6.58,7.26-4.07-1.57-5.68,3.22-4.13,6.18h0c-.68.27-1.37.5-2.07.72-.25.07-.51.14-.79.21-.98.22-1.95.38-2.96.4h-.05c-.37,0-.74-.04-1.11-.06,1.01-2.92-.09-5.09-3.44-5.09-.21,0-.38,0-.55.02ZM150.3,122.44c-.02.1-.03.19-.06.29-2.29-1.39-4.09-3.36-5.39-5.69-.28-.56-.53-1.11-.77-1.69-.25-.7-.48-1.4-.62-2.13,2.65-3.01.61-8.2,3.48-10.96,1.61-1.55,5.37-1.09,5.37,1.62,0,1.27-2.83,2.67-2.76,3,.23,1.03,3.21-.48,3.51-.8-2.03,4.22-2.24,9.11-2.43,13.7,0,.15-.02.3-.03.44-.06.74-.16,1.47-.29,2.2-.02.1.11-.58,0,0ZM141.82,135.03c-.39.18-.72.3-.97.39,3.68-2.91,4.75-9.25,2.56-13.32-1.46-2.72-9.3-6.66-8.3-.69-1.87.27-5.27.69-6.77-.76,3.16-.71,4.48-5.16,2.41-7.58-1.21-1.41-4.68-1.47-4.25,1.11-1.28.21-2.46,1.23-3.01,2.54.71-7.42,9.28-4.97,14.06-5.35-2.54,3.25,3.11,3.73,4.89,2.7.16.58.35,1.14.56,1.7.27.62.54,1.22.86,1.81,1.42,2.44,3.54,4.96,6.16,6.17-1.19,4.52-3.76,9.24-8.2,11.27-.39.18.48-.22,0,0ZM138.27,132.12c0,.76-2.2.61-1.12,1.87,1.03,1.19,2.71-.47,2.71-1.57,0-4.27-7.98-1.92-5.38,2.07-3.99-2.6-6.33,5.37-2.07,5.37,1.09,0,2.76-1.69,1.57-2.72-1.26-1.08-1.11,1.12-1.87,1.12-1.42,0-.65-2.89.85-2.89,2.56,0,1.8,3.34.71,4.46-2.24,2.32-6.56,1.46-8.59-.71,3.05-3.28,3.79-8.47,1.62-12.42h0s.01,0,.01,0c3.95,2.17,9.14,1.43,12.42-1.62,2.55,2.38,3.26,9.67-1.74,9.67-5.37,0,.87-5.3.87-2.63ZM127.41,148.74c-1.18.53-2.41.96-3.66,1.27-1.31-2.62-3.67-4.72-6.17-6.16-.59-.32-1.19-.59-1.81-.86-.56-.21-1.12-.4-1.7-.56,1.04-1.78.55-7.42-2.69-4.89.37-4.77-2.07-13.36,5.35-14.06-1.31.55-2.33,1.72-2.54,3-2.58-.37-2.54,3.02-1.11,4.25,2.41,2.07,6.86.75,7.58-2.41,1.45,1.49,1.02,4.9.76,6.77-5.97-1-2.03,6.84.69,8.3,4.07,2.19,10.4,1.12,13.32-2.56-1.33,3.71-4.51,6.3-8,7.9-1.02.46,1.02-.47,0,0ZM117.2,167.13c-3.8-.67-7.26-2.16-7.26-6.58,0-1.94,1.62-4.2,3.72-2.86.69.44,1.32,2.9,1.81,2.9,3.96,0-.76-7.31-1.93-8.03,2.01-.27,4.03-.4,6.05-.54-.32,3.54,1.9,5.07,5.07,3.98.03.37.05.74.06,1.11v.05c-.02,1-.19,1.98-.4,2.96-.07.28-.15.54-.21.79-.22.7-.44,1.39-.72,2.07h0c-.9-.46-1.8-.71-2.62-.71-2.61,0-4.55,2.28-3.56,4.85ZM105.32,158.34c-.63-.76-1.3-1.48-1.96-2.2,2.66-2.05,6.11-2.94,9.37-3.46,2.61,1.43,4.87,4.3,2.85,7.23-.18-5.38-8.25-2.47-5.6,3.61,1.61,3.69,6.37,3.95,9.78,4.54-.22.18-.44.37-.66.55-2.89,2.23-6.65,3.78-10.37,3.23-.76-.08-1.54-.27-2.26-.53-.13-.04-.25-.09-.34-.13.63-.95,1.1-1.97,1.41-3.08.04-.13.07-.25.11-.38.04-.21.09-.43.13-.64.04-.26.08-.52.11-.78.02-.26.04-.52.06-.78,0-.23.01-.46.02-.69v-.03c0-.11,0-.21-.01-.32,0-2.3-1.24-4.42-2.65-6.15-.63-.76.44.54,0,0ZM101.29,172.26c-.1-.2-.19-.4-.29-.6-.03-.07-.06-.13-.09-.2l-.35-.82c-.1-.28-.23-.55-.39-.81v.07c-.18-1.08-.03-2.29-.03-3.39.08.12.16.24.25.36.13.17.25.34.38.51.18.26.4.5.6.75.18.2.35.4.53.6.18.19.37.38.55.56.07.08.16.15.24.22l.42.37c-.43,1.01-.97,1.96-1.54,2.89l-.06-.12c-.07-.13-.14-.26-.21-.4ZM98.82,187.09c.42-.97.81-1.94,1.18-2.93.39,1.32,1.34,2.52,1.36,3.93,0,.08,0,.18-.01.25v.12s-.03.12-.03.12c-.08.33-.23.62-.46.87-.3.36-.59.72-.86,1.11-.27-.38-.56-.75-.86-1.11-.22-.25-.38-.54-.46-.87l-.02-.12v-.12c-.02-.08-.02-.18-.02-.25,0-.33.08-.67.18-1,.21-.66-.11.33,0,0ZM100.14,175.68v-.03h0v.03ZM99.85,175.65h0v.03-.03ZM98.75,173.28c.14-.26.28-.52.41-.78.13-.27.27-.55.4-.83.12-.28.25-.55.36-.83.03-.08.05-.15.08-.23.03.08.06.15.08.23.11.28.24.56.36.83.13.28.27.55.4.83.13.26.27.52.41.78-.35.55-.69,1.1-1.02,1.66l-.23.4-.23-.4-.38-.63-.64-1.03ZM97.19,170.55c-.11-.22-.2-.44-.3-.66l.42-.37c.08-.07.17-.14.24-.22.18-.19.37-.37.55-.56.18-.2.35-.4.53-.6.2-.24.41-.49.6-.75.13-.17.25-.34.38-.51.09-.12.17-.24.25-.36,0,1.1.16,2.31-.04,3.39v-.07c-.15.26-.27.53-.38.81l-.35.82c-.03.07-.06.13-.09.2-.1.2-.19.4-.29.6-.09.17-.18.34-.27.51-.46-.72-.87-1.46-1.25-2.23-.11-.22.21.43,0,0ZM95.85,164.24l.02-.72c0-.24.03-.48.05-.72l.03-.36c.02-.3.09-.6.14-.89.04-.27.12-.53.18-.79.08-.26.16-.51.25-.77l.13-.33c.05-.11.08-.23.14-.33.2-.43.43-.86.69-1.26l.2-.3.21-.29c.66-.94,1.45-1.78,2.11-2.72.66.94,1.45,1.78,2.1,2.72l.21.29.2.3c.26.4.49.83.69,1.26.06.11.09.22.14.33l.13.33c.09.26.17.51.25.77.06.26.14.52.18.79.05.29.12.59.14.89l.03.36c.02.24.05.48.05.72l.02.72c0,.36-.01.73-.03,1.09-.02.3-.05.6-.07.9-.03.3-.09.6-.13.89l-.15.71c-.05.29-.15.58-.23.87-.06.17-.12.34-.17.51-.03.09-.07.18-.1.27l-.3-.26c-.08-.07-.16-.13-.23-.21-.19-.18-.37-.37-.56-.56-.17-.19-.35-.38-.52-.57l-.4-.48c-.07-.08-.13-.16-.2-.24-.13-.17-.25-.33-.38-.5-.17-.24-.35-.48-.52-.72l.02-.45-.18.24-.18-.24.02.45c-.17.24-.35.48-.52.72-.13.17-.25.33-.38.5-.06.08-.13.16-.2.24l-.4.48c-.17.19-.35.38-.52.57-.19.19-.37.37-.56.56-.07.08-.15.14-.23.21l-.3.26c-.03-.09-.07-.18-.1-.27-.06-.17-.12-.34-.17-.51-.08-.29-.18-.58-.23-.87l-.15-.71c-.04-.3-.1-.6-.13-.89-.02-.3-.05-.6-.07-.9v-.36c-.01-.24-.03-.49-.03-.72ZM80.3,168.12s-.04-.04-.07-.06c3.42-.6,8.17-.85,9.78-4.54,2.66-6.08-5.42-8.99-5.6-3.61-2.03-2.93.24-5.8,2.85-7.23,1.49.24,2.95.59,4.4,1.01,1.76.6,3.48,1.31,4.97,2.45-2.14,2.32-4.6,4.96-4.6,8.35,0,.11,0,.21-.01.32v.03c0,.23.01.46.02.69.02.26.04.52.06.78.03.26.07.52.11.78.05.21.09.43.13.64.03.13.07.25.11.38.31,1.1.78,2.13,1.41,3.08-.09.04-.21.08-.34.13-.72.27-1.5.45-2.26.53-3.72.55-7.47-1.01-10.37-3.23-.2-.16-.4-.32-.59-.49-.02-.02.08.07,0,0ZM75.29,157.11c0-.37.03-.74.06-1.11,3.16,1.09,5.38-.44,5.07-3.98,2.02.14,4.04.27,6.05.54-2.46,1.52-4.12,4.01-2.87,6.87,1.22,2.81,1.59-1.01,2.75-1.74,3.6-2.29,4.1,3.78,3.13,5.79-1.21,2.51-4.18,3.2-6.67,3.64,1.57-4.07-3.22-5.68-6.18-4.13,0,0,0,0,0,0-.27-.68-.5-1.37-.71-2.07-.07-.25-.14-.51-.21-.79-.21-.98-.38-1.95-.4-2.96v-.05ZM64.97,141.82c-.18-.39-.3-.71-.39-.97,2.91,3.68,9.25,4.75,13.32,2.56,2.72-1.46,6.66-9.3.69-8.3-.27-1.86-.69-5.27.76-6.77.71,3.16,5.16,4.48,7.58,2.41,1.43-1.23,1.47-4.62-1.11-4.25-.21-1.28-1.23-2.45-2.54-3,7.42.7,4.97,9.28,5.35,14.06-3.25-2.54-3.74,3.11-2.69,4.89-.58.17-1.14.36-1.7.56-.62.27-1.22.54-1.81.86-2.5,1.44-4.86,3.54-6.17,6.16-4.51-1.13-9.26-3.8-11.27-8.2-.18-.39.22.48,0,0ZM61.02,134.31c-3.31-1.82-2.55-6.98-.15-9.23,3.28,3.06,8.47,3.79,12.42,1.62h.01s0,0,0,0c-2.17,3.95-1.43,9.14,1.62,12.42-2.25,2.4-7.4,3.16-9.23-.15-.88-1.6.51-5.17,2.47-3.12.37.39.88,2.41-.28,2.41-.76,0-.61-2.2-1.87-1.12-1.19,1.03.47,2.71,1.57,2.71,4.27,0,1.92-7.98-2.07-5.38,2.6-3.99-5.37-6.33-5.37-2.07,0,1.09,1.69,2.76,2.71,1.57,1.08-1.26-1.12-1.11-1.12-1.87,0-1.41,2.89-.65,2.89.85,0,1.97-2.39,2-3.6,1.34-.31-.17.51.28,0,0ZM50.09,124.16c-.04-.14-.07-.27-.11-.41,2.61-1.31,4.72-3.67,6.16-6.17.32-.59.59-1.19.86-1.81.21-.56.39-1.12.56-1.7,1.78,1.04,7.42.55,4.89-2.69,4.77.37,13.36-2.07,14.06,5.35-.55-1.31-1.72-2.33-3-2.54.37-2.57-3.02-2.54-4.25-1.11-2.07,2.41-.75,6.86,2.41,7.58-1.49,1.45-4.9,1.02-6.77.75,1-5.97-6.84-2.03-8.3.69-2.19,4.07-1.12,10.4,2.56,13.31-4.82-1.69-7.78-6.55-9.06-11.25-.04-.14.31,1.13,0,0ZM48.34,110.12c-.33-1.39-.78-2.75-1.4-4.04.3.32,3.27,1.84,3.51.81.23-1.08-4.17-1.52-2.39-4.3,1.03-1.61,3.71-1.56,4.99-.33,2.89,2.77.72,8.02,3.48,10.96-.14.73-.37,1.43-.62,2.13-.24.58-.49,1.13-.77,1.69-1.3,2.33-3.1,4.3-5.39,5.69-.17-.82-.28-1.65-.35-2.49-.18-3.38-.31-6.8-1.06-10.11-.25-1.06.24,1.06,0,0ZM32.87,117.2c.67-3.8,2.16-7.26,6.58-7.26,1.94,0,4.2,1.62,2.86,3.72-.44.69-2.9,1.32-2.9,1.81,0,3.96,7.31-.76,8.03-1.93.27,2.01.4,4.03.54,6.05-3.54-.28-5.08,1.88-3.98,5.07-.37.03-.74.05-1.11.06h-.12c-.98-.03-1.93-.19-2.89-.4-.28-.07-.54-.15-.79-.21-.7-.21-1.39-.44-2.07-.71h0c1.27-2.41.75-6.46-2.71-6.46-.48,0-.96.09-1.42.27ZM28.34,107.67c.09-.4.21-.8.34-1.19.04-.13.09-.25.13-.34.95.63,1.98,1.1,3.08,1.41l.25.07.13.03.64.14c.26.04.52.08.77.11.26.02.52.04.78.06.22,0,.43.01.65.02h.07c.11,0,.21,0,.32-.01,3.39,0,6.02-2.46,8.35-4.6,2.05,2.66,2.94,6.11,3.46,9.37-1.43,2.61-4.3,4.87-7.23,2.85,5.38-.18,2.47-8.25-3.61-5.6-3.69,1.61-3.94,6.37-4.54,9.78-.18-.22-.37-.43-.55-.66-2.23-2.89-3.78-6.65-3.23-10.37.04-.36.11-.72.19-1.08.04-.16-.03.17,0,0ZM28.18,102.13c-.32-.19-.64-.38-.95-.57.17-.09.34-.18.51-.27.2-.1.4-.19.6-.29.07-.03.13-.06.2-.09l.82-.35c.28-.1.55-.23.81-.39h-.07c1.08-.18,2.29-.03,3.39-.03-.12.08-.24.16-.36.25-.17.13-.34.25-.51.38-.26.18-.5.4-.75.6-.2.18-.4.35-.6.53-.19.18-.38.37-.56.55-.21.19-.4.44-.59.65-.67-.28-1.31-.6-1.94-.97-.32-.19.42.24,0,0ZM24.66,100l.4-.23c.56-.33,1.11-.67,1.66-1.02.26.14.52.28.78.41.27.13.55.27.83.4.28.12.55.25.83.36l.21.08s0,0,0,0c0,0,0,0,0,0l-.21.08c-.28.11-.56.24-.83.36-.28.13-.55.26-.83.4-.26.13-.52.27-.78.41-.55-.35-1.1-.69-1.66-1.02l-.4-.23ZM24.32,100.14h.03s-.03,0-.03,0ZM24.32,99.86h.03s0,0,0,0h-.03ZM9.71,100.2c-.09-.07-.18-.13-.28-.2.38-.27.75-.56,1.11-.86.25-.23.54-.38.87-.46l.12-.02h.12c.08-.02.18-.02.25-.02,1.41.02,2.61.97,3.93,1.36-1.32.39-2.52,1.34-3.93,1.36-.08,0-.18,0-.25-.01h-.12s-.12-.03-.12-.03c-.33-.08-.62-.23-.87-.46-.27-.22-.55-.45-.83-.66-.09-.07.14.11,0,0Z"/>
      <path class="cls-1" d="M18.97,94.78v-.07s.02.05,0,.07Z"/>
      <path class="cls-1" d="M50.25,97.47c-1.58,0-1.58-2.44,0-2.44s1.58,2.44,0,2.44Z"/>
      <path class="cls-1" d="M49.03,103.75c0-1.58,2.45-1.58,2.45,0s-2.45,1.58-2.45,0Z"/>
      <path class="cls-1" d="M18.97,105.29v-.07s.03.05,0,.07Z"/>
    </g>
  </g>
</svg>